{
.appVersion = "934";
copyright = "Copyright (c) 2010 by Ilya Yudin. All rights reserved.";
customParameters = (
{
name = trademark;
value = "Podkova 1.0 is a trademark of Ilya Yudin.";
}
);
date = "2010-06-15 18:45:47 +0000";
designer = "Ilya Yudin";
familyName = Podkova;
featurePrefixes = (
{
automatic = 1;
code = "languagesystem DFLT dflt;\012";
name = Languagesystems;
}
);
features = (
{
automatic = 1;
code = "feature subs;\012feature sinf;\012feature sups;\012feature frac;\012feature ordn;\012";
name = aalt;
},
{
automatic = 1;
code = "sub zero by zero.subs;\012sub one by one.subs;\012sub two by two.subs;\012sub three by three.subs;\012sub four by four.subs;\012sub five by five.subs;\012sub six by six.subs;\012sub seven by seven.subs;\012sub eight by eight.subs;\012sub nine by nine.subs;\012";
name = subs;
},
{
automatic = 1;
code = "sub zero by zero.subs;\012sub one by one.subs;\012sub two by two.subs;\012sub three by three.subs;\012sub four by four.subs;\012sub five by five.subs;\012sub six by six.subs;\012sub seven by seven.subs;\012sub eight by eight.subs;\012sub nine by nine.subs;\012";
name = sinf;
},
{
automatic = 1;
code = "sub zero by zero.sups;\012sub one by one.sups;\012sub two by two.sups;\012sub three by three.sups;\012sub four by four.sups;\012sub five by five.sups;\012sub six by six.sups;\012sub seven by seven.sups;\012sub eight by eight.sups;\012sub nine by nine.sups;\012";
name = sups;
},
{
automatic = 1;
code = "sub one slash two by onehalf;\012";
name = frac;
},
{
automatic = 1;
code = "sub N o period by numero;\012";
name = ordn;
},
{
automatic = 1;
code = "sub f i by fi;\012sub f l by fl;\012";
name = liga;
}
);
fontMaster = (
{
alignmentZones = (
"{589, 16}",
"{429, 15}",
"{-15, 15}",
"{-232, 24}"
);
ascender = 750;
capHeight = 589;
descender = -250;
horizontalStems = (
69,
51,
62
);
id = UUID0;
verticalStems = (
78,
85
);
xHeight = 429;
}
);
glyphs = (
{
glyphname = A;
lastChange = "2016-09-19 16:28:09 +0000";
layers = (
{
layerId = UUID0;
paths = (
{
closed = 1;
nodes = (
"638 69 LINE",
"543 69 LINE",
"363 589 LINE",
"168 589 LINE",
"168 520 LINE",
"269 520 LINE",
"103 69 LINE",
"8 69 LINE",
"8 0 LINE",
"240 0 LINE",
"240 69 LINE",
"177 69 LINE",
"211 160 LINE",
"427 160 LINE",
"458 69 LINE",
"395 69 LINE",
"395 0 LINE",
"638 0 LINE"
);
},
{
closed = 1;
nodes = (
"323 488 LINE",
"403 229 LINE",
"236 229 LINE"
);
}
);
width = 646;
}
);
unicode = 0041;
},
{
glyphname = AE;
lastChange = "2016-09-19 16:28:09 +0000";
layers = (
{
layerId = UUID0;
paths = (
{
closed = 1;
nodes = (
"388 0 LINE",
"825 0 LINE",
"877 154 LINE",
"811 176 LINE",
"771 69 LINE",
"563 69 LINE",
"563 260 LINE",
"724 260 LINE",
"724 329 LINE",
"564 329 LINE",
"564 520 LINE",
"751 520 LINE",
"791 413 LINE",
"857 435 LINE",
"805 589 LINE",
"302 589 LINE",
"302 520 LINE",
"405 520 LINE",
"119 69 LINE",
"19 69 LINE",
"19 0 LINE",
"259 0 LINE",
"259 69 LINE",
"200 69 LINE",
"257 160 LINE",
"483 160 LINE",
"483 69 LINE",
"388 69 LINE"
);
},
{
closed = 1;
nodes = (
"484 520 LINE",
"483 229 LINE",
"300 229 LINE",
"482 520 LINE"
);
}
);
width = 911;
}
);
unicode = 00C6;
},
{
glyphname = B;
lastChange = "2016-09-19 16:28:09 +0000";
layers = (
{
layerId = UUID0;
paths = (
{
closed = 1;
nodes = (
"311 520 LINE",
"376 520 OFFCURVE",
"435 521 OFFCURVE",
"435 434 CURVE SMOOTH",
"435 345 OFFCURVE",
"373 328 OFFCURVE",
"345 328 CURVE SMOOTH",
"220 328 LINE",
"220 520 LINE"
);
},
{
closed = 1;
nodes = (
"344 268 LINE",
"416 268 OFFCURVE",
"454 237 OFFCURVE",
"454 174 CURVE SMOOTH",
"454 103 OFFCURVE",
"411 70 OFFCURVE",
"338 70 CURVE SMOOTH",
"219 70 LINE",
"220 268 LINE"
);
},
{
closed = 1;
nodes = (
"45 589 LINE",
"45 520 LINE",
"140 520 LINE",
"140 69 LINE",
"45 69 LINE",
"45 0 LINE",
"362 0 LINE SMOOTH",
"487 0 OFFCURVE",
"539 76 OFFCURVE",
"539 174 CURVE SMOOTH",
"539 229 OFFCURVE",
"503 283 OFFCURVE",
"449 304 CURVE",
"482 326 OFFCURVE",
"520 379 OFFCURVE",
"520 435 CURVE SMOOTH",
"520 547 OFFCURVE",
"451 589 OFFCURVE",
"300 589 CURVE SMOOTH"
);
}
);
width = 599;
}
);
unicode = 0042;
},
{
glyphname = C;
lastChange = "2016-09-19 16:28:09 +0000";
layers = (
{
layerId = UUID0;
paths = (
{
closed = 1;
nodes = (
"481 154 LINE",
"462 74 LINE",
"437 65 OFFCURVE",
"395 53 OFFCURVE",
"345 53 CURVE SMOOTH",
"219 53 OFFCURVE",
"146 143 OFFCURVE",
"146 295 CURVE SMOOTH",
"146 444 OFFCURVE",
"217 536 OFFCURVE",
"345 536 CURVE SMOOTH",
"404 536 OFFCURVE",
"442 523 OFFCURVE",
"462 512 CURVE",
"482 426 LINE",
"551 441 LINE",
"529 557 LINE",
"528 558 OFFCURVE",
"476 603 OFFCURVE",
"344 604 CURVE SMOOTH",
"172 605 OFFCURVE",
"60 483 OFFCURVE",
"61 295 CURVE SMOOTH",
"62 105 OFFCURVE",
"173 -15 OFFCURVE",
"345 -15 CURVE SMOOTH",
"453 -15 OFFCURVE",
"524 22 OFFCURVE",
"524 22 CURVE",
"549 138 LINE"
);
}
);
width = 591;
}
);
unicode = 0043;
},
{
glyphname = D;
lastChange = "2016-09-19 16:28:09 +0000";
layers = (
{
layerId = UUID0;
paths = (
{
closed = 1;
nodes = (
"45 589 LINE",
"45 520 LINE",
"140 520 LINE",
"140 69 LINE",
"45 69 LINE",
"45 0 LINE",
"319 0 LINE SMOOTH",
"485 0 OFFCURVE",
"614 109 OFFCURVE",
"614 285 CURVE SMOOTH",
"614 517 OFFCURVE",
"491 589 OFFCURVE",
"311 589 CURVE"
);
},
{
closed = 1;
nodes = (
"311 521 LINE",
"445 521 OFFCURVE",
"529 483 OFFCURVE",
"529 285 CURVE SMOOTH",
"529 144 OFFCURVE",
"451 67 OFFCURVE",
"301 68 CURVE SMOOTH",
"220 69 LINE",
"220 521 LINE"
);
}
);
width = 678;
}
);
unicode = 0044;
},
{
glyphname = E;
lastChange = "2016-09-19 16:28:09 +0000";
layers = (
{
layerId = UUID0;
paths = (
{
closed = 1;
nodes = (
"500 176 LINE",
"460 69 LINE",
"225 69 LINE",
"226 270 LINE",
"413 270 LINE",
"413 339 LINE",
"226 339 LINE",
"226 520 LINE",
"440 520 LINE",
"480 413 LINE",
"546 435 LINE",
"494 589 LINE",
"51 589 LINE",
"51 520 LINE",
"146 520 LINE",
"145 69 LINE",
"50 69 LINE",
"50 0 LINE",
"514 0 LINE",
"566 154 LINE"
);
}
);
width = 610;
}
);
unicode = 0045;
},
{
glyphname = Eacute;
lastChange = "2016-09-19 16:28:09 +0000";
layers = (
{
layerId = UUID0;
paths = (
{
closed = 1;
nodes = (
"500 176 LINE",
"460 69 LINE",
"225 69 LINE",
"226 270 LINE",
"413 270 LINE",
"413 339 LINE",
"226 339 LINE",
"226 520 LINE",
"440 520 LINE",
"480 413 LINE",
"546 435 LINE",
"494 589 LINE",
"51 589 LINE",
"51 520 LINE",
"146 520 LINE",
"145 69 LINE",
"50 69 LINE",
"50 0 LINE",
"514 0 LINE",
"566 154 LINE"
);
},
{
closed = 1;
nodes = (
"227 640 LINE",
"245 608 LINE",
"412 670 LINE",
"437 682 OFFCURVE",
"446 707 OFFCURVE",
"435 725 CURVE SMOOTH",
"424 742 OFFCURVE",
"399 747 OFFCURVE",
"373 727 CURVE"
);
}
);
width = 610;
}
);
unicode = 00C9;
},
{
glyphname = F;
lastChange = "2016-09-19 16:28:09 +0000";
layers = (
{
layerId = UUID0;
paths = (
{
closed = 1;
nodes = (
"545 435 LINE",
"493 589 LINE",
"51 589 LINE",
"51 520 LINE",
"146 520 LINE",
"145 69 LINE",
"50 69 LINE",
"50 0 LINE",
"346 0 LINE",
"346 69 LINE",
"224 69 LINE",
"224 264 LINE",
"390 264 LINE",
"390 333 LINE",
"225 333 LINE",
"225 520 LINE",
"439 520 LINE",
"479 413 LINE"
);
}
);
width = 525;
}
);
unicode = 0046;
},
{
glyphname = G;
lastChange = "2016-09-19 16:28:09 +0000";
layers = (
{
layerId = UUID0;
paths = (
{
closed = 1;
nodes = (
"348 221 LINE",
"476 221 LINE",
"476 93 LINE SMOOTH",
"476 91 OFFCURVE",
"415 53 OFFCURVE",
"330 53 CURVE SMOOTH",
"229 53 OFFCURVE",
"148 120 OFFCURVE",
"148 295 CURVE SMOOTH",
"148 450 OFFCURVE",
"215 536 OFFCURVE",
"330 536 CURVE SMOOTH",
"402 536 OFFCURVE",
"445 521 OFFCURVE",
"467 511 CURVE",
"487 426 LINE",
"556 441 LINE",
"534 557 LINE",
"534 557 OFFCURVE",
"461 604 OFFCURVE",
"329 604 CURVE SMOOTH",
"177 604 OFFCURVE",
"63 485 OFFCURVE",
"63 295 CURVE SMOOTH",
"63 85 OFFCURVE",
"195 -15 OFFCURVE",
"330 -15 CURVE SMOOTH",
"479 -15 OFFCURVE",
"551 62 OFFCURVE",
"551 63 CURVE",
"551 290 LINE",
"348 290 LINE"
);
}
);
width = 626;
}
);
unicode = 0047;
},
{
glyphname = H;
lastChange = "2016-09-19 16:28:09 +0000";
layers = (
{
layerId = UUID0;
paths = (
{
closed = 1;
nodes = (
"449 0 LINE",
"687 0 LINE",
"687 69 LINE",
"592 69 LINE",
"594 520 LINE",
"689 520 LINE",
"689 589 LINE",
"450 589 LINE",
"450 520 LINE",
"514 520 LINE",
"513 336 LINE",
"225 336 LINE",
"226 520 LINE",
"290 520 LINE",
"290 589 LINE",
"51 589 LINE",
"51 520 LINE",
"146 520 LINE",
"145 69 LINE",
"50 69 LINE",
"50 0 LINE",
"288 0 LINE",
"288 69 LINE",
"224 69 LINE",
"225 267 LINE",
"513 267 LINE",
"513 69 LINE",
"449 69 LINE"
);
}
);
width = 729;
}
);
unicode = 0048;
},
{
glyphname = I;
lastChange = "2016-09-19 16:28:09 +0000";
layers = (
{
layerId = UUID0;
paths = (
{
closed = 1;
nodes = (
"51 520 LINE",
"146 520 LINE",
"146 69 LINE",
"50 69 LINE",
"50 0 LINE",
"321 0 LINE",
"321 69 LINE",
"225 69 LINE",
"227 520 LINE",
"321 520 LINE",
"321 589 LINE",
"51 589 LINE"
);
}
);
width = 371;
}
);
unicode = 0049;
},
{
glyphname = J;
lastChange = "2016-09-19 16:28:09 +0000";
layers = (
{
layerId = UUID0;
paths = (
{
closed = 1;
nodes = (
"154 520 LINE",
"266 520 LINE",
"265 246 LINE SMOOTH",
"265 184 OFFCURVE",
"266 139 OFFCURVE",
"255 108 CURVE SMOOTH",
"241 66 OFFCURVE",
"195 50 OFFCURVE",
"159 51 CURVE SMOOTH",
"125 52 OFFCURVE",
"96 67 OFFCURVE",
"97 66 CURVE",
"76 155 LINE",
"8 139 LINE",
"33 23 LINE",
"34 22 OFFCURVE",
"84 -17 OFFCURVE",
"163 -17 CURVE SMOOTH",
"239 -17 OFFCURVE",
"311 17 OFFCURVE",
"332 90 CURVE SMOOTH",
"343 129 OFFCURVE",
"343 179 OFFCURVE",
"344 244 CURVE SMOOTH",
"346 520 LINE",
"440 520 LINE",
"440 589 LINE",
"154 589 LINE"
);
}
);
width = 470;
}
);
unicode = 004A;
},
{
glyphname = K;
lastChange = "2016-09-19 16:28:09 +0000";
layers = (
{
layerId = UUID0;
paths = (
{
closed = 1;
nodes = (
"380 0 LINE",
"649 0 LINE",
"649 69 LINE",
"549 69 LINE",
"384 315 LINE",
"535 520 LINE",
"626 520 LINE",
"626 589 LINE",
"380 589 LINE",
"380 520 LINE",
"449 520 LINE",
"311 332 LINE",
"223 332 LINE",
"223 519 LINE",
"287 519 LINE",
"287 588 LINE",
"50 588 LINE",
"50 519 LINE",
"144 519 LINE",
"144 69 LINE",
"50 69 LINE",
"50 0 LINE",
"287 0 LINE",
"287 69 LINE",
"224 69 LINE",
"223 263 LINE",
"323 263 LINE",
"452 69 LINE",
"380 69 LINE"
);
}
);
width = 657;
}
);
unicode = 004B;
},
{
glyphname = L;
lastChange = "2016-09-19 16:28:09 +0000";
layers = (
{
layerId = UUID0;
paths = (
{
closed = 1;
nodes = (
"470 175 LINE",
"431 69 LINE",
"242 69 LINE",
"244 520 LINE",
"358 520 LINE",
"358 589 LINE",
"50 589 LINE",
"50 520 LINE",
"164 520 LINE",
"163 69 LINE",
"50 69 LINE",
"50 0 LINE",
"482 0 LINE",
"482 1 LINE",
"484 -1 LINE",
"536 153 LINE"
);
}
);
width = 558;
}
);
unicode = 004C;
},
{
glyphname = M;
lastChange = "2016-09-19 16:28:09 +0000";
layers = (
{
layerId = UUID0;
paths = (
{
closed = 1;
nodes = (
"479 71 LINE",
"601 390 LINE",
"647 520 LINE",
"647 69 LINE",
"583 69 LINE",
"583 0 LINE",
"822 0 LINE",
"822 69 LINE",
"727 69 LINE",
"727 520 LINE",
"822 520 LINE",
"822 589 LINE",
"609 589 LINE",
"443 160 LINE",
"293 541 LINE",
"275 589 LINE",
"53 589 LINE",
"53 520 LINE",
"146 520 LINE",
"145 69 LINE",
"50 69 LINE",
"50 0 LINE",
"283 0 LINE",
"283 69 LINE",
"218 69 LINE",
"220 520 LINE",
"266 392 LINE",
"394 71 LINE"
);
}
);
width = 867;
}
);
unicode = 004D;
},
{
glyphname = N;
lastChange = "2016-09-19 16:28:09 +0000";
layers = (
{
layerId = UUID0;
paths = (
{
closed = 1;
nodes = (
"443 520 LINE",
"527 520 LINE",
"527 122 LINE",
"271 589 LINE",
"51 589 LINE",
"51 520 LINE",
"144 520 LINE",
"145 69 LINE",
"50 69 LINE",
"50 0 LINE",
"310 0 LINE",
"310 69 LINE",
"226 69 LINE",
"224 520 LINE",
"509 0 LINE",
"607 0 LINE",
"607 520 LINE",
"703 520 LINE",
"703 589 LINE",
"443 589 LINE"
);
}
);
width = 738;
}
);
unicode = 004E;
},
{
glyphname = Ntilde;
lastChange = "2016-09-19 16:28:09 +0000";
layers = (
{
layerId = UUID0;
paths = (
{
closed = 1;
nodes = (
"439 621 OFFCURVE",
"506 640 OFFCURVE",
"554 682 CURVE",
"531 722 LINE",
"474 688 OFFCURVE",
"449 695 OFFCURVE",
"392 720 CURVE",
"311 752 OFFCURVE",
"264 724 OFFCURVE",
"203 693 CURVE",
"230 648 LINE",
"284 678 OFFCURVE",
"321 680 OFFCURVE",
"374 652 CURVE"
);
},
{
closed = 1;
nodes = (
"443 520 LINE",
"527 520 LINE",
"527 122 LINE",
"271 589 LINE",
"51 589 LINE",
"51 520 LINE",
"144 520 LINE",
"145 69 LINE",
"50 69 LINE",
"50 0 LINE",
"310 0 LINE",
"310 69 LINE",
"226 69 LINE",
"224 520 LINE",
"509 0 LINE",
"607 0 LINE",
"607 520 LINE",
"703 520 LINE",
"703 589 LINE",
"443 589 LINE"
);
}
);
width = 738;
}
);
unicode = 00D1;
},
{
glyphname = O;
lastChange = "2016-09-19 16:28:09 +0000";
layers = (
{
layerId = UUID0;
paths = (
{
closed = 1;
nodes = (
"465 536 OFFCURVE",
"527 447 OFFCURVE",
"527 295 CURVE SMOOTH",
"527 143 OFFCURVE",
"465 53 OFFCURVE",
"338 53 CURVE SMOOTH",
"211 53 OFFCURVE",
"149 143 OFFCURVE",
"149 295 CURVE SMOOTH",
"149 447 OFFCURVE",
"211 536 OFFCURVE",
"338 536 CURVE SMOOTH"
);
},
{
closed = 1;
nodes = (
"502 -15 OFFCURVE",
"612 105 OFFCURVE",
"612 295 CURVE SMOOTH",
"612 485 OFFCURVE",
"501 604 OFFCURVE",
"337 604 CURVE SMOOTH",
"175 604 OFFCURVE",
"64 485 OFFCURVE",
"64 295 CURVE SMOOTH",
"64 105 OFFCURVE",
"176 -15 OFFCURVE",
"338 -15 CURVE SMOOTH"
);
}
);
width = 672;
}
);
unicode = 004F;
},
{
glyphname = Odieresis;
lastChange = "2016-09-19 16:28:09 +0000";
layers = (
{
layerId = UUID0;
paths = (
{
closed = 1;
nodes = (
"318 730 OFFCURVE",
"292 756 OFFCURVE",
"262 756 CURVE SMOOTH",
"231 756 OFFCURVE",
"206 730 OFFCURVE",
"206 700 CURVE SMOOTH",
"206 669 OFFCURVE",
"231 644 OFFCURVE",
"262 644 CURVE SMOOTH",
"292 644 OFFCURVE",
"318 669 OFFCURVE",
"318 700 CURVE SMOOTH"
);
},
{
closed = 1;
nodes = (
"478 730 OFFCURVE",
"452 756 OFFCURVE",
"422 756 CURVE SMOOTH",
"391 756 OFFCURVE",
"366 730 OFFCURVE",
"366 700 CURVE SMOOTH",
"366 669 OFFCURVE",
"391 644 OFFCURVE",
"422 644 CURVE SMOOTH",
"452 644 OFFCURVE",
"478 669 OFFCURVE",
"478 700 CURVE SMOOTH"
);
},
{
closed = 1;
nodes = (
"211 536 OFFCURVE",
"149 447 OFFCURVE",
"149 295 CURVE SMOOTH",
"149 143 OFFCURVE",
"211 53 OFFCURVE",
"338 53 CURVE SMOOTH",
"465 53 OFFCURVE",
"527 143 OFFCURVE",
"527 295 CURVE SMOOTH",
"527 447 OFFCURVE",
"465 536 OFFCURVE",
"338 536 CURVE SMOOTH"
);
},
{
closed = 1;
nodes = (
"176 -15 OFFCURVE",
"64 105 OFFCURVE",
"64 295 CURVE SMOOTH",
"64 485 OFFCURVE",
"175 604 OFFCURVE",
"337 604 CURVE SMOOTH",
"501 604 OFFCURVE",
"612 485 OFFCURVE",
"612 295 CURVE SMOOTH",
"612 105 OFFCURVE",
"502 -15 OFFCURVE",
"338 -15 CURVE SMOOTH"
);
}
);
width = 672;
}
);
unicode = 00D6;
},
{
glyphname = OE;
lastChange = "2016-09-19 16:28:09 +0000";
layers = (
{
layerId = UUID0;
paths = (
{
closed = 1;
nodes = (
"791 176 LINE",
"751 69 LINE",
"518 69 LINE",
"518 270 LINE",
"704 270 LINE",
"704 339 LINE",
"519 339 LINE",
"519 520 LINE",
"731 520 LINE",
"771 413 LINE",
"837 435 LINE",
"785 589 LINE",
"367 589 LINE SMOOTH",
"187 589 OFFCURVE",
"64 527 OFFCURVE",
"64 295 CURVE SMOOTH",
"64 109 OFFCURVE",
"193 0 OFFCURVE",
"359 0 CURVE SMOOTH",
"805 0 LINE",
"857 154 LINE"
);
},
{
closed = 1;
nodes = (
"438 521 LINE",
"438 69 LINE",
"377 68 LINE SMOOTH",
"227 67 OFFCURVE",
"149 144 OFFCURVE",
"149 295 CURVE SMOOTH",
"149 493 OFFCURVE",
"233 521 OFFCURVE",
"367 521 CURVE SMOOTH"
);
}
);
width = 892;
}
);
unicode = 0152;
},
{
glyphname = P;
lastChange = "2016-09-19 16:28:09 +0000";
layers = (
{
layerId = UUID0;
paths = (
{
closed = 1;
nodes = (
"50 0 LINE",
"343 0 LINE",
"343 69 LINE",
"223 69 LINE",
"223 218 LINE",
"335 218 LINE SMOOTH",
"454 218 OFFCURVE",
"535 292 OFFCURVE",
"535 409 CURVE SMOOTH",
"535 531 OFFCURVE",
"478 589 OFFCURVE",
"315 589 CURVE SMOOTH",
"50 589 LINE",
"50 520 LINE",
"143 520 LINE",
"143 69 LINE",
"50 69 LINE"
);
},
{
closed = 1;
nodes = (
"314 520 LINE",
"397 520 OFFCURVE",
"450 509 OFFCURVE",
"450 408 CURVE SMOOTH",
"450 309 OFFCURVE",
"372 288 OFFCURVE",
"316 288 CURVE SMOOTH",
"224 288 LINE",
"224 520 LINE"
);
}
);
width = 568;
}
);
unicode = 0050;
},
{
glyphname = Q;
lastChange = "2016-09-19 16:28:09 +0000";
layers = (
{
layerId = UUID0;
paths = (
{
closed = 1;
nodes = (
"389 -15 OFFCURVE",
"440 0 OFFCURVE",
"482 27 CURVE",
"607 -79 LINE",
"660 -13 LINE",
"527 66 LINE",
"577 120 OFFCURVE",
"606 198 OFFCURVE",
"606 295 CURVE SMOOTH",
"606 485 OFFCURVE",
"495 604 OFFCURVE",
"331 604 CURVE SMOOTH",
"169 604 OFFCURVE",
"58 485 OFFCURVE",
"58 295 CURVE SMOOTH",
"58 105 OFFCURVE",
"170 -15 OFFCURVE",
"332 -15 CURVE SMOOTH"
);
},
{
closed = 1;
nodes = (
"459 536 OFFCURVE",
"521 447 OFFCURVE",
"521 295 CURVE SMOOTH",
"521 143 OFFCURVE",
"459 53 OFFCURVE",
"332 53 CURVE SMOOTH",
"205 53 OFFCURVE",
"143 143 OFFCURVE",
"143 295 CURVE SMOOTH",
"143 447 OFFCURVE",
"205 536 OFFCURVE",
"332 536 CURVE SMOOTH"
);
}
);
width = 700;
}
);
unicode = 0051;
},
{
glyphname = R;
lastChange = "2016-09-19 16:28:09 +0000";
layers = (
{
layerId = UUID0;
paths = (
{
closed = 1;
nodes = (
"595 69 LINE",
"504 69 LINE",
"405 241 LINE",
"478 262 OFFCURVE",
"526 319 OFFCURVE",
"526 405 CURVE SMOOTH",
"526 535 OFFCURVE",
"473 589 OFFCURVE",
"310 589 CURVE SMOOTH",
"45 589 LINE",
"45 520 LINE",
"138 520 LINE",
"138 69 LINE",
"45 69 LINE",
"45 0 LINE",
"282 0 LINE",
"282 69 LINE",
"218 69 LINE",
"218 231 LINE",
"320 231 LINE",
"444 5 LINE",
"446 0 LINE",
"595 0 LINE"
);
},
{
closed = 1;
nodes = (
"309 520 LINE",
"392 520 OFFCURVE",
"441 511 OFFCURVE",
"441 404 CURVE SMOOTH",
"441 314 OFFCURVE",
"365 301 OFFCURVE",
"312 301 CURVE SMOOTH",
"220 301 LINE",
"219 520 LINE"
);
}
);
width = 603;
}
);
unicode = 0052;
},
{
glyphname = S;
lastChange = "2016-09-19 16:28:09 +0000";
layers = (
{
layerId = UUID0;
paths = (
{
closed = 1;
nodes = (
"428 81 OFFCURVE",
"360 53 OFFCURVE",
"277 53 CURVE SMOOTH",
"234 53 OFFCURVE",
"179 67 OFFCURVE",
"139 81 CURVE",
"126 152 LINE",
"60 141 LINE",
"79 30 LINE",
"85 28 OFFCURVE",
"182 -15 OFFCURVE",
"290 -15 CURVE SMOOTH",
"418 -15 OFFCURVE",
"508 38 OFFCURVE",
"508 172 CURVE SMOOTH",
"508 248 OFFCURVE",
"475 318 OFFCURVE",
"342 338 CURVE SMOOTH",
"251 352 LINE SMOOTH",
"192 361 OFFCURVE",
"154 391 OFFCURVE",
"154 447 CURVE SMOOTH",
"154 505 OFFCURVE",
"207 537 OFFCURVE",
"286 537 CURVE SMOOTH",
"343 537 OFFCURVE",
"386 526 OFFCURVE",
"413 516 CURVE",
"426 436 LINE",
"492 443 LINE",
"475 566 LINE",
"474 566 LINE",
"467 568 OFFCURVE",
"404 604 OFFCURVE",
"285 604 CURVE SMOOTH",
"141 604 OFFCURVE",
"74 529 OFFCURVE",
"74 445 CURVE SMOOTH",
"74 355 OFFCURVE",
"126 281 OFFCURVE",
"251 265 CURVE SMOOTH",
"327 255 LINE",
"415 245 OFFCURVE",
"428 204 OFFCURVE",
"428 161 CURVE SMOOTH"
);
}
);
width = 563;
}
);
unicode = 0053;
},
{
glyphname = T;
lastChange = "2016-09-19 16:28:09 +0000";
layers = (
{
layerId = UUID0;
paths = (
{
closed = 1;
nodes = (
"526 425 LINE",
"526 589 LINE",
"11 589 LINE",
"11 425 LINE",
"87 425 LINE",
"87 520 LINE",
"228 520 LINE",
"227 69 LINE",
"132 69 LINE",
"132 0 LINE",
"402 0 LINE",
"402 69 LINE",
"307 69 LINE",
"309 520 LINE",
"450 520 LINE",
"450 425 LINE"
);
}
);
width = 535;
}
);
unicode = 0054;
},
{
glyphname = U;
lastChange = "2016-09-19 16:28:09 +0000";
layers = (
{
layerId = UUID0;
paths = (
{
closed = 1;
nodes = (
"216 53 OFFCURVE",
"184 113 OFFCURVE",
"184 228 CURVE SMOOTH",
"184 520 LINE",
"248 520 LINE",
"248 589 LINE",
"8 589 LINE",
"8 520 LINE",
"104 520 LINE",
"104 235 LINE SMOOTH",
"104 27 OFFCURVE",
"212 -15 OFFCURVE",
"315 -15 CURVE SMOOTH",
"422 -15 OFFCURVE",
"536 27 OFFCURVE",
"536 235 CURVE SMOOTH",
"536 520 LINE",
"632 520 LINE",
"632 589 LINE",
"392 589 LINE",
"392 520 LINE",
"456 520 LINE",
"456 238 LINE SMOOTH",
"456 123 OFFCURVE",
"422 53 OFFCURVE",
"315 53 CURVE SMOOTH"
);
}
);
width = 640;
}
);
unicode = 0055;
},
{
glyphname = Udieresis;
lastChange = "2016-09-19 16:28:09 +0000";
layers = (
{
layerId = UUID0;
paths = (
{
closed = 1;
nodes = (
"296 730 OFFCURVE",
"270 756 OFFCURVE",
"240 756 CURVE SMOOTH",
"209 756 OFFCURVE",
"184 730 OFFCURVE",
"184 700 CURVE SMOOTH",
"184 669 OFFCURVE",
"209 644 OFFCURVE",
"240 644 CURVE SMOOTH",
"270 644 OFFCURVE",
"296 669 OFFCURVE",
"296 700 CURVE SMOOTH"
);
},
{
closed = 1;
nodes = (
"456 730 OFFCURVE",
"430 756 OFFCURVE",
"400 756 CURVE SMOOTH",
"369 756 OFFCURVE",
"344 730 OFFCURVE",
"344 700 CURVE SMOOTH",
"344 669 OFFCURVE",
"369 644 OFFCURVE",
"400 644 CURVE SMOOTH",
"430 644 OFFCURVE",
"456 669 OFFCURVE",
"456 700 CURVE SMOOTH"
);
},
{
closed = 1;
nodes = (
"216 53 OFFCURVE",
"184 113 OFFCURVE",
"184 228 CURVE SMOOTH",
"184 520 LINE",
"248 520 LINE",
"248 589 LINE",
"8 589 LINE",
"8 520 LINE",
"104 520 LINE",
"104 235 LINE SMOOTH",
"104 27 OFFCURVE",
"212 -15 OFFCURVE",
"315 -15 CURVE SMOOTH",
"422 -15 OFFCURVE",
"536 27 OFFCURVE",
"536 235 CURVE SMOOTH",
"536 520 LINE",
"632 520 LINE",
"632 589 LINE",
"392 589 LINE",
"392 520 LINE",
"456 520 LINE",
"456 238 LINE SMOOTH",
"456 123 OFFCURVE",
"422 53 OFFCURVE",
"315 53 CURVE SMOOTH"
);
}
);
width = 640;
}
);
unicode = 00DC;
},
{
glyphname = V;
lastChange = "2016-09-19 16:28:09 +0000";
layers = (
{
layerId = UUID0;
paths = (
{
closed = 1;
nodes = (
"8 520 LINE",
"103 520 LINE",
"299 0 LINE",
"384 0 LINE",
"560 520 LINE",
"655 520 LINE",
"655 589 LINE",
"427 589 LINE",
"427 520 LINE",
"491 520 LINE",
"392 238 LINE",
"345 89 LINE",
"292 246 LINE",
"189 520 LINE",
"253 520 LINE",
"253 589 LINE",
"8 589 LINE"
);
}
);
width = 663;
}
);
unicode = 0056;
},
{
glyphname = W;
lastChange = "2016-09-19 16:28:09 +0000";
layers = (
{
layerId = UUID0;
paths = (
{
closed = 1;
nodes = (
"8 520 LINE",
"103 520 LINE",
"279 0 LINE",
"362 0 LINE",
"432 264 LINE",
"464 404 LINE",
"496 269 LINE",
"567 0 LINE",
"659 0 LINE",
"823 520 LINE",
"918 520 LINE",
"918 589 LINE",
"689 589 LINE",
"689 520 LINE",
"753 520 LINE",
"660 238 LINE",
"617 92 LINE",
"585 238 LINE",
"515 514 LINE",
"427 514 LINE",
"355 232 LINE",
"324 91 LINE",
"281 237 LINE",
"187 520 LINE",
"251 520 LINE",
"251 589 LINE",
"8 589 LINE"
);
}
);
width = 926;
}
);
unicode = 0057;
},
{
glyphname = X;
lastChange = "2016-09-19 16:28:09 +0000";
layers = (
{
layerId = UUID0;
paths = (
{
closed = 1;
nodes = (
"8 520 LINE",
"93 520 LINE",
"267 301 LINE",
"94 69 LINE",
"9 69 LINE",
"9 0 LINE",
"254 0 LINE",
"254 69 LINE",
"180 69 LINE",
"311 245 LINE",
"452 69 LINE",
"378 69 LINE",
"378 0 LINE",
"639 0 LINE",
"639 69 LINE",
"554 69 LINE",
"367 305 LINE",
"526 520 LINE",
"621 520 LINE",
"621 589 LINE",
"371 589 LINE",
"371 520 LINE",
"440 520 LINE",
"322 361 LINE",
"196 520 LINE",
"260 520 LINE",
"260 589 LINE",
"8 589 LINE"
);
}
);
width = 647;
}
);
unicode = 0058;
},
{
glyphname = Y;
lastChange = "2016-09-19 16:28:09 +0000";
layers = (
{
layerId = UUID0;
paths = (
{
closed = 1;
nodes = (
"8 520 LINE",
"92 520 LINE",
"290 274 LINE",
"289 69 LINE",
"195 69 LINE",
"195 0 LINE",
"462 0 LINE",
"462 69 LINE",
"368 69 LINE",
"370 277 LINE",
"555 520 LINE",
"651 520 LINE",
"651 589 LINE",
"414 589 LINE",
"414 520 LINE",
"469 520 LINE",
"335 344 LINE",
"194 520 LINE",
"247 520 LINE",
"247 589 LINE",
"8 589 LINE"
);
}
);
width = 659;
}
);
unicode = 0059;
},
{
glyphname = Z;
lastChange = "2016-09-19 16:28:09 +0000";
layers = (
{
layerId = UUID0;
paths = (
{
closed = 1;
nodes = (
"109 422 LINE",
"129 519 LINE",
"387 519 LINE",
"53 55 LINE",
"53 0 LINE",
"455 -2 LINE",
"455 -1 LINE",
"507 153 LINE",
"441 175 LINE",
"401 67 LINE",
"150 69 LINE",
"487 536 LINE",
"487 588 LINE",
"73 588 LINE",
"45 431 LINE"
);
}
);
width = 547;
}
);
unicode = 005A;
},
{
glyphname = A.salt;
lastChange = "2016-09-19 16:28:09 +0000";
layers = (
{
layerId = UUID0;
paths = (
{
closed = 1;
nodes = (
"671 69 LINE",
"575 69 LINE",
"393 555 LINE",
"315 555 LINE",
"136 69 LINE",
"41 69 LINE",
"41 0 LINE",
"273 0 LINE",
"273 69 LINE",
"210 69 LINE",
"244 160 LINE",
"458 160 LINE",
"491 69 LINE",
"428 69 LINE",
"428 0 LINE",
"671 0 LINE"
);
},
{
closed = 1;
nodes = (
"351 453 LINE",
"433 229 LINE",
"269 229 LINE"
);
}
);
width = 752;
}
);
},
{
glyphname = a;
lastChange = "2016-09-19 16:28:09 +0000";
layers = (
{
layerId = UUID0;
paths = (
{
closed = 1;
nodes = (
"145 313 LINE",
"155 368 LINE",
"172 373 OFFCURVE",
"203 380 OFFCURVE",
"245 380 CURVE SMOOTH",
"355 380 OFFCURVE",
"346 306 OFFCURVE",
"346 256 CURVE SMOOTH",
"346 248 LINE",
"217 249 LINE SMOOTH",
"125 249 OFFCURVE",
"50 211 OFFCURVE",
"51 118 CURVE SMOOTH",
"52 42 OFFCURVE",
"115 -15 OFFCURVE",
"223 -15 CURVE SMOOTH",
"282 -15 OFFCURVE",
"330 6 OFFCURVE",
"364 29 CURVE",
"499 -17 LINE",
"519 47 LINE",
"424 78 LINE",
"424 252 LINE SMOOTH",
"424 335 OFFCURVE",
"422 444 OFFCURVE",
"242 444 CURVE SMOOTH",
"159 444 OFFCURVE",
"97 416 OFFCURVE",
"97 416 CURVE",
"81 325 LINE"
);
},
{
closed = 1;
nodes = (
"176 49 OFFCURVE",
"131 71 OFFCURVE",
"131 119 CURVE SMOOTH",
"131 178 OFFCURVE",
"174 186 OFFCURVE",
"219 186 CURVE SMOOTH",
"346 185 LINE",
"346 87 LINE",
"325 71 OFFCURVE",
"286 49 OFFCURVE",
"227 49 CURVE SMOOTH"
);
}
);
width = 549;
}
);
unicode = 0061;
},
{
glyphname = adieresis;
lastChange = "2016-09-19 16:28:09 +0000";
layers = (
{
layerId = UUID0;
paths = (
{
closed = 1;
nodes = (
"233 562 OFFCURVE",
"207 588 OFFCURVE",
"177 588 CURVE SMOOTH",
"146 588 OFFCURVE",
"121 562 OFFCURVE",
"121 532 CURVE SMOOTH",
"121 501 OFFCURVE",
"146 476 OFFCURVE",
"177 476 CURVE SMOOTH",
"207 476 OFFCURVE",
"233 501 OFFCURVE",
"233 532 CURVE SMOOTH"
);
},
{
closed = 1;
nodes = (
"373 562 OFFCURVE",
"347 588 OFFCURVE",
"317 588 CURVE SMOOTH",
"286 588 OFFCURVE",
"261 562 OFFCURVE",
"261 532 CURVE SMOOTH",
"261 501 OFFCURVE",
"286 476 OFFCURVE",
"317 476 CURVE SMOOTH",
"347 476 OFFCURVE",
"373 501 OFFCURVE",
"373 532 CURVE SMOOTH"
);
},
{
closed = 1;
nodes = (
"145 313 LINE",
"155 368 LINE",
"172 373 OFFCURVE",
"203 380 OFFCURVE",
"245 380 CURVE SMOOTH",
"355 380 OFFCURVE",
"346 306 OFFCURVE",
"346 256 CURVE SMOOTH",
"346 248 LINE",
"217 249 LINE SMOOTH",
"125 249 OFFCURVE",
"50 211 OFFCURVE",
"51 118 CURVE SMOOTH",
"52 42 OFFCURVE",
"115 -15 OFFCURVE",
"223 -15 CURVE SMOOTH",
"282 -15 OFFCURVE",
"330 6 OFFCURVE",
"364 29 CURVE",
"499 -17 LINE",
"519 47 LINE",
"424 78 LINE",
"424 252 LINE SMOOTH",
"424 335 OFFCURVE",
"422 444 OFFCURVE",
"242 444 CURVE SMOOTH",
"159 444 OFFCURVE",
"97 416 OFFCURVE",
"97 416 CURVE",
"81 325 LINE"
);
},
{
closed = 1;
nodes = (
"176 49 OFFCURVE",
"131 71 OFFCURVE",
"131 119 CURVE SMOOTH",
"131 178 OFFCURVE",
"174 186 OFFCURVE",
"219 186 CURVE SMOOTH",
"346 185 LINE",
"346 87 LINE",
"325 71 OFFCURVE",
"286 49 OFFCURVE",
"227 49 CURVE SMOOTH"
);
}
);
width = 549;
}
);
unicode = 00E4;
},
{
glyphname = ae;
lastChange = "2016-09-19 16:28:09 +0000";
layers = (
{
layerId = UUID0;
paths = (
{
closed = 1;
nodes = (
"686 -15 OFFCURVE",
"754 50 OFFCURVE",
"754 51 CURVE",
"718 98 LINE",
"718 98 OFFCURVE",
"659 49 OFFCURVE",
"566 49 CURVE SMOOTH",
"480 49 OFFCURVE",
"433 101 OFFCURVE",
"428 194 CURVE",
"750 196 LINE",
"770 391 OFFCURVE",
"684 443 OFFCURVE",
"577 443 CURVE SMOOTH",
"500 443 OFFCURVE",
"441 407 OFFCURVE",
"402 359 CURVE",
"378 403 OFFCURVE",
"332 444 OFFCURVE",
"246 444 CURVE SMOOTH",
"163 444 OFFCURVE",
"101 416 OFFCURVE",
"101 416 CURVE",
"85 325 LINE",
"149 313 LINE",
"159 368 LINE",
"176 373 OFFCURVE",
"207 380 OFFCURVE",
"249 380 CURVE SMOOTH",
"359 380 OFFCURVE",
"350 306 OFFCURVE",
"350 256 CURVE SMOOTH",
"350 248 LINE",
"221 249 LINE SMOOTH",
"129 249 OFFCURVE",
"54 211 OFFCURVE",
"55 118 CURVE SMOOTH",
"56 42 OFFCURVE",
"119 -15 OFFCURVE",
"227 -15 CURVE SMOOTH",
"285 -15 OFFCURVE",
"371 25 OFFCURVE",
"405 48 CURVE",
"444 7 OFFCURVE",
"499 -15 OFFCURVE",
"565 -15 CURVE SMOOTH"
);
},
{
closed = 1;
nodes = (
"180 49 OFFCURVE",
"135 71 OFFCURVE",
"135 119 CURVE SMOOTH",
"135 178 OFFCURVE",
"178 186 OFFCURVE",
"223 186 CURVE SMOOTH",
"348 185 LINE",
"351 151 OFFCURVE",
"360 121 OFFCURVE",
"373 95 CURVE",
"337 73 OFFCURVE",
"278 49 OFFCURVE",
"231 49 CURVE SMOOTH"
);
},
{
closed = 1;
nodes = (
"650 379 OFFCURVE",
"681 337 OFFCURVE",
"682 257 CURVE",
"429 256 LINE",
"441 334 OFFCURVE",
"496 379 OFFCURVE",
"575 379 CURVE SMOOTH"
);
}
);
width = 804;
}
);
unicode = 00E6;
},
{
glyphname = b;
lastChange = "2016-09-19 16:28:09 +0000";
layers = (
{
layerId = UUID0;
paths = (
{
closed = 1;
nodes = (
"3 587 LINE",
"98 554 LINE",
"98 43 LINE",
"98 43 OFFCURVE",
"172 -13 OFFCURVE",
"287 -13 CURVE SMOOTH",
"416 -13 OFFCURVE",
"505 83 OFFCURVE",
"505 226 CURVE SMOOTH",
"505 368 OFFCURVE",
"415 442 OFFCURVE",
"291 442 CURVE SMOOTH",
"246 442 OFFCURVE",
"207 426 OFFCURVE",
"176 409 CURVE",
"176 597 LINE",
"24 649 LINE"
);
},
{
closed = 1;
nodes = (
"215 51 OFFCURVE",
"176 76 OFFCURVE",
"176 76 CURVE",
"176 341 LINE",
"176 341 OFFCURVE",
"219 378 OFFCURVE",
"290 378 CURVE SMOOTH",
"381 378 OFFCURVE",
"425 326 OFFCURVE",
"425 226 CURVE SMOOTH",
"425 121 OFFCURVE",
"378 51 OFFCURVE",
"286 51 CURVE SMOOTH"
);
}
);
width = 557;
}
);
unicode = 0062;
},
{
glyphname = c;
lastChange = "2016-09-19 16:28:09 +0000";
layers = (
{
layerId = UUID0;
paths = (
{
closed = 1;
nodes = (
"429 311 LINE",
"408 419 LINE",
"408 419 OFFCURVE",
"364 443 OFFCURVE",
"271 443 CURVE SMOOTH",
"142 443 OFFCURVE",
"53 357 OFFCURVE",
"53 214 CURVE SMOOTH",
"53 71 OFFCURVE",
"142 -15 OFFCURVE",
"271 -15 CURVE SMOOTH",
"364 -15 OFFCURVE",
"440 42 OFFCURVE",
"440 43 CURVE",
"407 92 LINE",
"407 92 OFFCURVE",
"346 49 OFFCURVE",
"272 49 CURVE SMOOTH",
"180 49 OFFCURVE",
"133 109 OFFCURVE",
"133 214 CURVE SMOOTH",
"133 319 OFFCURVE",
"180 379 OFFCURVE",
"272 379 CURVE SMOOTH",
"319 379 OFFCURVE",
"344 370 OFFCURVE",
"352 366 CURVE",
"365 297 LINE"
);
}
);
width = 492;
}
);
unicode = 0063;
},
{
glyphname = d;
lastChange = "2016-09-19 16:28:09 +0000";
layers = (
{
layerId = UUID0;
paths = (
{
closed = 1;
nodes = (
"460 79 LINE",
"460 597 LINE",
"308 649 LINE",
"287 587 LINE",
"382 554 LINE",
"382 422 LINE",
"351 434 OFFCURVE",
"315 443 OFFCURVE",
"271 443 CURVE SMOOTH",
"149 443 OFFCURVE",
"53 352 OFFCURVE",
"53 223 CURVE SMOOTH",
"53 80 OFFCURVE",
"142 -15 OFFCURVE",
"271 -15 CURVE SMOOTH",
"324 -15 OFFCURVE",
"368 6 OFFCURVE",
"401 29 CURVE",
"424 21 LINE",
"534 -17 LINE",
"554 47 LINE"
);
},
{
closed = 1;
nodes = (
"343 379 OFFCURVE",
"382 354 OFFCURVE",
"382 354 CURVE",
"382 86 LINE",
"361 72 OFFCURVE",
"322 49 OFFCURVE",
"272 49 CURVE SMOOTH",
"180 49 OFFCURVE",
"133 119 OFFCURVE",
"133 224 CURVE SMOOTH",
"133 313 OFFCURVE",
"187 379 OFFCURVE",
"272 379 CURVE SMOOTH"
);
}
);
width = 557;
}
);
unicode = 0064;
},
{
glyphname = e;
lastChange = "2016-09-19 16:28:09 +0000";
layers = (
{
layerId = UUID0;
paths = (
{
closed = 1;
nodes = (
"394 -15 OFFCURVE",
"462 50 OFFCURVE",
"462 51 CURVE",
"426 98 LINE",
"426 98 OFFCURVE",
"367 49 OFFCURVE",
"274 49 CURVE SMOOTH",
"188 49 OFFCURVE",
"141 101 OFFCURVE",
"136 194 CURVE",
"458 196 LINE",
"478 391 OFFCURVE",
"380 443 OFFCURVE",
"273 443 CURVE SMOOTH",
"144 443 OFFCURVE",
"55 357 OFFCURVE",
"55 214 CURVE SMOOTH",
"55 71 OFFCURVE",
"144 -15 OFFCURVE",
"273 -15 CURVE SMOOTH"
);
},
{
closed = 1;
nodes = (
"349 379 OFFCURVE",
"389 337 OFFCURVE",
"390 257 CURVE",
"137 256 LINE",
"149 334 OFFCURVE",
"195 379 OFFCURVE",
"274 379 CURVE SMOOTH"
);
}
);
width = 514;
}
);
unicode = 0065;
},
{
glyphname = eacute;
lastChange = "2016-09-19 16:28:09 +0000";
layers = (
{
layerId = UUID0;
paths = (
{
closed = 1;
nodes = (
"153 492 LINE",
"171 460 LINE",
"371 551 LINE SMOOTH",
"396 563 OFFCURVE",
"405 588 OFFCURVE",
"394 606 CURVE SMOOTH",
"383 623 OFFCURVE",
"358 628 OFFCURVE",
"332 608 CURVE"
);
},
{
closed = 1;
nodes = (
"155 -15 OFFCURVE",
"66 71 OFFCURVE",
"66 214 CURVE SMOOTH",
"66 357 OFFCURVE",
"155 443 OFFCURVE",
"284 443 CURVE SMOOTH",
"391 443 OFFCURVE",
"489 391 OFFCURVE",
"469 196 CURVE",
"147 194 LINE",
"152 101 OFFCURVE",
"199 49 OFFCURVE",
"285 49 CURVE SMOOTH",
"378 49 OFFCURVE",
"437 98 OFFCURVE",
"437 98 CURVE",
"473 51 LINE",
"473 50 OFFCURVE",
"405 -15 OFFCURVE",
"284 -15 CURVE SMOOTH"
);
},
{
closed = 1;
nodes = (
"206 379 OFFCURVE",
"160 334 OFFCURVE",
"148 256 CURVE",
"401 257 LINE",
"400 337 OFFCURVE",
"360 379 OFFCURVE",
"285 379 CURVE SMOOTH"
);
}
);
width = 525;
}
);
unicode = 00E9;
},
{
glyphname = f;
lastChange = "2016-09-19 16:28:09 +0000";
layers = (
{
layerId = UUID0;
paths = (
{
closed = 1;
nodes = (
"45 0 LINE",
"297 0 LINE",
"297 62 LINE",
"207 62 LINE",
"207 367 LINE",
"331 367 LINE",
"331 429 LINE",
"207 429 LINE",
"207 457 LINE SMOOTH",
"207 538 OFFCURVE",
"227 578 OFFCURVE",
"313 578 CURVE SMOOTH",
"375 578 OFFCURVE",
"412 555 OFFCURVE",
"412 555 CURVE",
"442 606 LINE",
"442 606 OFFCURVE",
"395 642 OFFCURVE",
"308 642 CURVE SMOOTH",
"180 642 OFFCURVE",
"129 585 OFFCURVE",
"129 473 CURVE SMOOTH",
"129 429 LINE",
"45 429 LINE",
"45 367 LINE",
"129 367 LINE",
"129 62 LINE",
"45 62 LINE"
);
}
);
width = 420;
}
);
unicode = 0066;
},
{
glyphname = g;
lastChange = "2016-09-19 16:28:09 +0000";
layers = (
{
background = {
paths = (
{
closed = 1;
nodes = (
"554 403 LINE",
"530 469 LINE",
"399 416 LINE",
"368 435 OFFCURVE",
"328 444 OFFCURVE",
"282 444 CURVE SMOOTH",
"172 444 OFFCURVE",
"94 389 OFFCURVE",
"94 283 CURVE SMOOTH",
"94 202 OFFCURVE",
"139 153 OFFCURVE",
"199 131 CURVE",
"150 117 OFFCURVE",
"122 91 OFFCURVE",
"122 46 CURVE SMOOTH",
"122 -48 OFFCURVE",
"262 -44 OFFCURVE",
"317 -44 CURVE SMOOTH",
"395 -44 OFFCURVE",
"418 -63 OFFCURVE",
"418 -100 CURVE SMOOTH",
"418 -149 OFFCURVE",
"375 -169 OFFCURVE",
"288 -169 CURVE SMOOTH",
"186 -169 OFFCURVE",
"116 -125 OFFCURVE",
"116 -125 CURVE",
"84 -182 LINE",
"85 -182 OFFCURVE",
"154 -232 OFFCURVE",
"288 -232 CURVE SMOOTH",
"399 -232 OFFCURVE",
"491 -192 OFFCURVE",
"491 -90 CURVE SMOOTH",
"491 -10 OFFCURVE",
"437 32 OFFCURVE",
"288 32 CURVE SMOOTH",
"235 32 OFFCURVE",
"189 34 OFFCURVE",
"189 71 CURVE SMOOTH",
"189 109 OFFCURVE",
"262 118 OFFCURVE",
"279 118 CURVE SMOOTH",
"282 118 LINE SMOOTH",
"378 118 OFFCURVE",
"470 167 OFFCURVE",
"470 283 CURVE SMOOTH",
"470 320 OFFCURVE",
"460 352 OFFCURVE",
"442 376 CURVE"
);
},
{
closed = 1;
nodes = (
"170 353 OFFCURVE",
"213 388 OFFCURVE",
"282 388 CURVE SMOOTH",
"351 388 OFFCURVE",
"394 353 OFFCURVE",
"394 281 CURVE SMOOTH",
"394 209 OFFCURVE",
"341 174 OFFCURVE",
"282 174 CURVE SMOOTH",
"223 174 OFFCURVE",
"170 209 OFFCURVE",
"170 281 CURVE SMOOTH"
);
}
);
};
layerId = UUID0;
paths = (
{
closed = 1;
nodes = (
"554 403 LINE",
"531 469 LINE",
"389 416 LINE",
"356 435 OFFCURVE",
"317 444 OFFCURVE",
"267 444 CURVE SMOOTH",
"148 444 OFFCURVE",
"70 381 OFFCURVE",
"70 278 CURVE SMOOTH",
"70 211 OFFCURVE",
"106 166 OFFCURVE",
"143 146 CURVE",
"143 -35 LINE",
"306 -35 LINE SMOOTH",
"389 -35 OFFCURVE",
"414 -61 OFFCURVE",
"414 -100 CURVE SMOOTH",
"414 -149 OFFCURVE",
"361 -169 OFFCURVE",
"274 -169 CURVE SMOOTH",
"172 -169 OFFCURVE",
"88 -125 OFFCURVE",
"88 -125 CURVE",
"60 -182 LINE",
"61 -182 OFFCURVE",
"154 -232 OFFCURVE",
"274 -232 CURVE SMOOTH",
"385 -232 OFFCURVE",
"487 -195 OFFCURVE",
"487 -93 CURVE SMOOTH",
"487 -13 OFFCURVE",
"434 27 OFFCURVE",
"327 27 CURVE SMOOTH",
"205 27 LINE",
"205 123 LINE",
"205 123 OFFCURVE",
"237 118 OFFCURVE",
"266 118 CURVE SMOOTH",
"370 118 OFFCURVE",
"466 167 OFFCURVE",
"466 283 CURVE SMOOTH",
"466 320 OFFCURVE",
"455 352 OFFCURVE",
"436 376 CURVE"
);
},
{
closed = 1;
nodes = (
"146 353 OFFCURVE",
"193 388 OFFCURVE",
"268 388 CURVE SMOOTH",
"343 388 OFFCURVE",
"390 353 OFFCURVE",
"390 281 CURVE SMOOTH",
"390 209 OFFCURVE",
"332 174 OFFCURVE",
"268 174 CURVE SMOOTH",
"204 174 OFFCURVE",
"146 209 OFFCURVE",
"146 281 CURVE SMOOTH"
);
}
);
width = 591;
}
);
unicode = 0067;
},
{
glyphname = h;
lastChange = "2016-09-19 16:28:09 +0000";
layers = (
{
layerId = UUID0;
paths = (
{
closed = 1;
nodes = (
"33 588 LINE",
"128 555 LINE",
"128 62 LINE",
"44 62 LINE",
"44 0 LINE",
"251 0 LINE",
"251 62 LINE",
"206 62 LINE",
"206 345 LINE",
"206 345 OFFCURVE",
"260 379 OFFCURVE",
"332 379 CURVE SMOOTH",
"418 379 OFFCURVE",
"438 329 OFFCURVE",
"438 258 CURVE SMOOTH",
"438 62 LINE",
"393 62 LINE",
"393 0 LINE",
"600 0 LINE",
"600 62 LINE",
"516 62 LINE",
"516 274 LINE SMOOTH",
"516 386 OFFCURVE",
"465 443 OFFCURVE",
"337 443 CURVE SMOOTH",
"281 443 OFFCURVE",
"234 419 OFFCURVE",
"206 401 CURVE",
"206 598 LINE",
"54 650 LINE"
);
}
);
width = 630;
}
);
unicode = 0068;
},
{
glyphname = i;
lastChange = "2016-09-19 16:28:09 +0000";
layers = (
{
layerId = UUID0;
paths = (
{
closed = 1;
nodes = (
"62 367 LINE",
"145 367 LINE",
"145 62 LINE",
"62 62 LINE",
"62 0 LINE",
"306 0 LINE",
"306 62 LINE",
"223 62 LINE",
"223 429 LINE",
"62 429 LINE"
);
},
{
closed = 1;
nodes = (
"239 621 OFFCURVE",
"210 650 OFFCURVE",
"177 650 CURVE SMOOTH",
"143 650 OFFCURVE",
"115 621 OFFCURVE",
"115 588 CURVE SMOOTH",
"115 554 OFFCURVE",
"143 526 OFFCURVE",
"177 526 CURVE SMOOTH",
"210 526 OFFCURVE",
"239 554 OFFCURVE",
"239 588 CURVE SMOOTH"
);
}
);
width = 346;
}
);
unicode = 0069;
},
{
glyphname = j;
lastChange = "2016-09-19 16:28:09 +0000";
layers = (
{
layerId = UUID0;
paths = (
{
closed = 1;
nodes = (
"58 367 LINE",
"142 367 LINE",
"142 -37 LINE SMOOTH",
"142 -87 OFFCURVE",
"149 -160 OFFCURVE",
"41 -160 CURVE SMOOTH",
"25 -160 OFFCURVE",
"12 -159 OFFCURVE",
"-1 -158 CURVE",
"-11 -219 LINE",
"1 -220 OFFCURVE",
"25 -223 OFFCURVE",
"38 -223 CURVE SMOOTH",
"218 -223 OFFCURVE",
"220 -114 OFFCURVE",
"220 -31 CURVE SMOOTH",
"220 429 LINE",
"58 429 LINE"
);
},
{
closed = 1;
nodes = (
"237 621 OFFCURVE",
"208 650 OFFCURVE",
"175 650 CURVE SMOOTH",
"141 650 OFFCURVE",
"113 621 OFFCURVE",
"113 588 CURVE SMOOTH",
"113 554 OFFCURVE",
"141 526 OFFCURVE",
"175 526 CURVE SMOOTH",
"208 526 OFFCURVE",
"237 554 OFFCURVE",
"237 588 CURVE SMOOTH"
);
}
);
width = 289;
}
);
unicode = 006A;
},
{
glyphname = k;
lastChange = "2016-09-19 16:28:09 +0000";
layers = (
{
layerId = UUID0;
paths = (
{
closed = 1;
nodes = (
"527 429 LINE",
"317 429 LINE",
"317 367 LINE",
"369 367 LINE",
"300 249 LINE",
"209 249 LINE",
"209 599 LINE",
"57 651 LINE",
"36 589 LINE",
"131 556 LINE",
"131 62 LINE",
"47 62 LINE",
"47 0 LINE",
"254 0 LINE",
"254 62 LINE",
"209 62 LINE",
"209 187 LINE",
"297 187 LINE",
"410 0 LINE",
"543 0 LINE",
"543 62 LINE",
"457 62 LINE",
"360 224 LINE",
"359 224 LINE",
"443 367 LINE",
"527 367 LINE"
);
}
);
width = 565;
}
);
unicode = 006B;
},
{
glyphname = l;
lastChange = "2016-09-19 16:28:09 +0000";
layers = (
{
layerId = UUID0;
paths = (
{
closed = 1;
nodes = (
"52 652 LINE",
"35 588 LINE",
"135 564 LINE",
"135 62 LINE",
"51 62 LINE",
"51 0 LINE",
"297 0 LINE",
"297 62 LINE",
"213 62 LINE",
"213 615 LINE"
);
}
);
width = 342;
}
);
unicode = 006C;
},
{
glyphname = m;
lastChange = "2016-09-19 16:28:09 +0000";
layers = (
{
layerId = UUID0;
paths = (
{
closed = 1;
nodes = (
"45 381 LINE",
"141 348 LINE",
"141 62 LINE",
"57 62 LINE",
"57 0 LINE",
"264 0 LINE",
"264 62 LINE",
"219 62 LINE",
"219 345 LINE",
"219 345 OFFCURVE",
"256 379 OFFCURVE",
"328 379 CURVE SMOOTH",
"414 379 OFFCURVE",
"427 329 OFFCURVE",
"427 258 CURVE SMOOTH",
"427 62 LINE",
"382 62 LINE",
"382 0 LINE",
"550 0 LINE",
"550 62 LINE",
"505 62 LINE",
"505 345 LINE",
"505 345 OFFCURVE",
"542 379 OFFCURVE",
"614 379 CURVE SMOOTH",
"700 379 OFFCURVE",
"713 329 OFFCURVE",
"713 258 CURVE SMOOTH",
"713 62 LINE",
"668 62 LINE",
"668 0 LINE",
"875 0 LINE",
"875 62 LINE",
"791 62 LINE",
"791 274 LINE SMOOTH",
"791 386 OFFCURVE",
"747 443 OFFCURVE",
"619 443 CURVE SMOOTH",
"532 443 OFFCURVE",
"477 391 OFFCURVE",
"477 391 CURVE",
"475 390 LINE",
"449 425 OFFCURVE",
"404 443 OFFCURVE",
"333 443 CURVE SMOOTH",
"262 443 OFFCURVE",
"215 410 OFFCURVE",
"198 397 CURVE",
"66 443 LINE"
);
}
);
width = 908;
}
);
unicode = 006D;
},
{
glyphname = n;
lastChange = "2016-09-19 16:28:09 +0000";
layers = (
{
layerId = UUID0;
paths = (
{
closed = 1;
nodes = (
"40 381 LINE",
"136 348 LINE",
"136 62 LINE",
"52 62 LINE",
"52 0 LINE",
"259 0 LINE",
"259 62 LINE",
"214 62 LINE",
"214 345 LINE",
"214 345 OFFCURVE",
"268 379 OFFCURVE",
"340 379 CURVE SMOOTH",
"426 379 OFFCURVE",
"446 329 OFFCURVE",
"446 258 CURVE SMOOTH",
"446 62 LINE",
"401 62 LINE",
"401 0 LINE",
"608 0 LINE",
"608 62 LINE",
"524 62 LINE",
"524 274 LINE SMOOTH",
"524 386 OFFCURVE",
"473 443 OFFCURVE",
"345 443 CURVE SMOOTH",
"274 443 OFFCURVE",
"214 410 OFFCURVE",
"194 397 CURVE",
"61 443 LINE"
);
}
);
width = 638;
}
);
unicode = 006E;
},
{
glyphname = ntilde;
lastChange = "2016-09-19 16:28:09 +0000";
layers = (
{
layerId = UUID0;
paths = (
{
closed = 1;
nodes = (
"376 490 OFFCURVE",
"469 507 OFFCURVE",
"508 546 CURVE",
"481 587 LINE",
"435 556 OFFCURVE",
"380 565 OFFCURVE",
"334 588 CURVE",
"268 618 OFFCURVE",
"201 592 OFFCURVE",
"153 564 CURVE",
"181 520 LINE",
"225 547 OFFCURVE",
"282 545 OFFCURVE",
"325 519 CURVE"
);
},
{
closed = 1;
nodes = (
"40 381 LINE",
"136 348 LINE",
"136 62 LINE",
"52 62 LINE",
"52 0 LINE",
"259 0 LINE",
"259 62 LINE",
"214 62 LINE",
"214 345 LINE",
"214 345 OFFCURVE",
"268 379 OFFCURVE",
"340 379 CURVE SMOOTH",
"426 379 OFFCURVE",
"446 329 OFFCURVE",
"446 258 CURVE SMOOTH",
"446 62 LINE",
"401 62 LINE",
"401 0 LINE",
"608 0 LINE",
"608 62 LINE",
"524 62 LINE",
"524 274 LINE SMOOTH",
"524 386 OFFCURVE",
"473 443 OFFCURVE",
"345 443 CURVE SMOOTH",
"274 443 OFFCURVE",
"214 410 OFFCURVE",
"194 397 CURVE",
"61 443 LINE"
);
}
);
width = 638;
}
);
unicode = 00F1;
},
{
glyphname = o;
lastChange = "2016-09-19 16:28:09 +0000";
layers = (
{
layerId = UUID0;
paths = (
{
closed = 1;
nodes = (
"404 -16 OFFCURVE",
"493 70 OFFCURVE",
"493 213 CURVE SMOOTH",
"493 356 OFFCURVE",
"404 442 OFFCURVE",
"271 442 CURVE SMOOTH",
"142 442 OFFCURVE",
"53 356 OFFCURVE",
"53 213 CURVE SMOOTH",
"53 70 OFFCURVE",
"142 -16 OFFCURVE",
"271 -16 CURVE SMOOTH"
);
},
{
closed = 1;
nodes = (
"366 378 OFFCURVE",
"413 318 OFFCURVE",
"413 213 CURVE SMOOTH",
"413 108 OFFCURVE",
"366 48 OFFCURVE",
"272 48 CURVE SMOOTH",
"180 48 OFFCURVE",
"133 108 OFFCURVE",
"133 213 CURVE SMOOTH",
"133 318 OFFCURVE",
"180 378 OFFCURVE",
"272 378 CURVE SMOOTH"
);
}
);
width = 543;
}
);
unicode = 006F;
},
{
glyphname = odieresis;
lastChange = "2016-09-19 16:28:09 +0000";
layers = (
{
layerId = UUID0;
paths = (
{
closed = 1;
nodes = (
"256 562 OFFCURVE",
"230 588 OFFCURVE",
"200 588 CURVE SMOOTH",
"169 588 OFFCURVE",
"144 562 OFFCURVE",
"144 532 CURVE SMOOTH",
"144 501 OFFCURVE",
"169 476 OFFCURVE",
"200 476 CURVE SMOOTH",
"230 476 OFFCURVE",
"256 501 OFFCURVE",
"256 532 CURVE SMOOTH"
);
},
{
closed = 1;
nodes = (
"396 562 OFFCURVE",
"370 588 OFFCURVE",
"340 588 CURVE SMOOTH",
"309 588 OFFCURVE",
"284 562 OFFCURVE",
"284 532 CURVE SMOOTH",
"284 501 OFFCURVE",
"309 476 OFFCURVE",
"340 476 CURVE SMOOTH",
"370 476 OFFCURVE",
"396 501 OFFCURVE",
"396 532 CURVE SMOOTH"
);
},
{
closed = 1;
nodes = (
"142 -16 OFFCURVE",
"53 70 OFFCURVE",
"53 213 CURVE SMOOTH",
"53 356 OFFCURVE",
"142 442 OFFCURVE",
"271 442 CURVE SMOOTH",
"404 442 OFFCURVE",
"493 356 OFFCURVE",
"493 213 CURVE SMOOTH",
"493 70 OFFCURVE",
"404 -16 OFFCURVE",
"271 -16 CURVE SMOOTH"
);
},
{
closed = 1;
nodes = (
"180 378 OFFCURVE",
"133 318 OFFCURVE",
"133 213 CURVE SMOOTH",
"133 108 OFFCURVE",
"180 48 OFFCURVE",
"272 48 CURVE SMOOTH",
"366 48 OFFCURVE",
"413 108 OFFCURVE",
"413 213 CURVE SMOOTH",
"413 318 OFFCURVE",
"366 378 OFFCURVE",
"272 378 CURVE SMOOTH"
);
}
);
width = 543;
}
);
unicode = 00F6;
},
{
glyphname = oe;
lastChange = "2016-09-19 16:28:09 +0000";
layers = (
{
layerId = UUID0;
paths = (
{
closed = 1;
nodes = (
"649 -15 OFFCURVE",
"717 50 OFFCURVE",
"717 51 CURVE",
"681 98 LINE",
"681 98 OFFCURVE",
"622 49 OFFCURVE",
"529 49 CURVE SMOOTH",
"443 49 OFFCURVE",
"396 101 OFFCURVE",
"391 194 CURVE",
"713 196 LINE",
"733 391 OFFCURVE",
"635 443 OFFCURVE",
"528 443 CURVE SMOOTH",
"480 443 OFFCURVE",
"438 431 OFFCURVE",
"404 409 CURVE",
"371 426 OFFCURVE",
"325 443 OFFCURVE",
"265 443 CURVE SMOOTH",
"143 443 OFFCURVE",
"47 352 OFFCURVE",
"47 223 CURVE SMOOTH",
"47 80 OFFCURVE",
"136 -15 OFFCURVE",
"265 -15 CURVE SMOOTH",
"316 -15 OFFCURVE",
"360 5 OFFCURVE",
"392 27 CURVE",
"428 0 OFFCURVE",
"474 -15 OFFCURVE",
"528 -15 CURVE SMOOTH"
);
},
{
closed = 1;
nodes = (
"310 156 OFFCURVE",
"324 108 OFFCURVE",
"350 71 CURVE",
"328 59 OFFCURVE",
"300 49 OFFCURVE",
"266 49 CURVE SMOOTH",
"174 49 OFFCURVE",
"127 119 OFFCURVE",
"127 224 CURVE SMOOTH",
"127 313 OFFCURVE",
"181 379 OFFCURVE",
"266 379 CURVE SMOOTH",
"306 379 OFFCURVE",
"336 371 OFFCURVE",
"355 364 CURVE",
"326 326 OFFCURVE",
"310 275 OFFCURVE",
"310 214 CURVE SMOOTH"
);
},
{
closed = 1;
nodes = (
"604 379 OFFCURVE",
"644 337 OFFCURVE",
"645 257 CURVE",
"392 256 LINE",
"404 334 OFFCURVE",
"450 379 OFFCURVE",
"529 379 CURVE SMOOTH"
);
}
);
width = 769;
}
);
unicode = 0153;
},
{
glyphname = p;
lastChange = "2016-09-19 16:28:09 +0000";
layers = (
{
layerId = UUID0;
paths = (
{
closed = 1;
nodes = (
"286 -146 LINE",
"202 -146 LINE",
"202 4 LINE",
"232 -6 OFFCURVE",
"268 -13 OFFCURVE",
"313 -13 CURVE SMOOTH",
"442 -13 OFFCURVE",
"531 83 OFFCURVE",
"531 226 CURVE SMOOTH",
"531 366 OFFCURVE",
"443 442 OFFCURVE",
"317 442 CURVE SMOOTH",
"264 442 OFFCURVE",
"216 420 OFFCURVE",
"184 399 CURVE",
"50 445 LINE",
"30 381 LINE",
"124 350 LINE",
"124 -146 LINE",
"40 -146 LINE",
"40 -208 LINE",
"286 -208 LINE"
);
},
{
closed = 1;
nodes = (
"241 51 OFFCURVE",
"202 76 OFFCURVE",
"202 76 CURVE",
"202 341 LINE",
"202 341 OFFCURVE",
"245 378 OFFCURVE",
"316 378 CURVE SMOOTH",
"406 378 OFFCURVE",
"451 327 OFFCURVE",
"451 226 CURVE SMOOTH",
"451 121 OFFCURVE",
"404 51 OFFCURVE",
"312 51 CURVE SMOOTH"
);
}
);
width = 586;
}
);
unicode = 0070;
},
{
glyphname = q;
lastChange = "2016-09-19 16:28:09 +0000";
layers = (
{
layerId = UUID0;
paths = (
{
closed = 1;
nodes = (
"306 -208 LINE",
"552 -208 LINE",
"552 -146 LINE",
"468 -146 LINE",
"468 387 LINE",
"467 387 LINE",
"467 387 OFFCURVE",
"393 443 OFFCURVE",
"278 443 CURVE SMOOTH",
"156 443 OFFCURVE",
"60 352 OFFCURVE",
"60 223 CURVE SMOOTH",
"60 80 OFFCURVE",
"149 -15 OFFCURVE",
"278 -15 CURVE SMOOTH",
"322 -15 OFFCURVE",
"360 0 OFFCURVE",
"390 17 CURVE",
"390 -146 LINE",
"306 -146 LINE"
);
},
{
closed = 1;
nodes = (
"350 379 OFFCURVE",
"389 354 OFFCURVE",
"389 354 CURVE",
"390 354 LINE",
"390 87 LINE",
"370 72 OFFCURVE",
"329 49 OFFCURVE",
"279 49 CURVE SMOOTH",
"187 49 OFFCURVE",
"140 119 OFFCURVE",
"140 224 CURVE SMOOTH",
"140 313 OFFCURVE",
"194 379 OFFCURVE",
"279 379 CURVE SMOOTH"
);
}
);
width = 572;
}
);
unicode = 0071;
},
{
glyphname = r;
lastChange = "2016-09-19 16:28:09 +0000";
layers = (
{
layerId = UUID0;
paths = (
{
closed = 1;
nodes = (
"50 381 LINE",
"146 348 LINE",
"146 62 LINE",
"62 62 LINE",
"62 0 LINE",
"322 0 LINE",
"322 62 LINE",
"224 62 LINE",
"224 345 LINE",
"224 345 OFFCURVE",
"282 379 OFFCURVE",
"347 379 CURVE",
"357 323 LINE",
"422 337 LINE",
"405 442 LINE",
"405 442 OFFCURVE",
"402 444 OFFCURVE",
"367 444 CURVE SMOOTH",
"285 444 OFFCURVE",
"224 410 OFFCURVE",
"204 397 CURVE",
"71 443 LINE"
);
}
);
width = 437;
}
);
unicode = 0072;
},
{
glyphname = s;
lastChange = "2016-09-19 16:28:09 +0000";
layers = (
{
layerId = UUID0;
paths = (
{
closed = 1;
nodes = (
"435 321 LINE",
"419 410 LINE",
"419 410 OFFCURVE",
"345 444 OFFCURVE",
"239 444 CURVE SMOOTH",
"129 444 OFFCURVE",
"69 393 OFFCURVE",
"69 323 CURVE SMOOTH",
"69 250 OFFCURVE",
"109 196 OFFCURVE",
"208 186 CURVE SMOOTH",
"308 176 LINE SMOOTH",
"352 171 OFFCURVE",
"371 151 OFFCURVE",
"371 122 CURVE SMOOTH",
"371 75 OFFCURVE",
"334 49 OFFCURVE",
"258 49 CURVE SMOOTH",
"207 49 OFFCURVE",
"167 62 OFFCURVE",
"141 75 CURVE",
"130 137 LINE",
"65 123 LINE",
"81 34 LINE",
"81 34 OFFCURVE",
"167 -15 OFFCURVE",
"260 -15 CURVE SMOOTH",
"366 -15 OFFCURVE",
"445 32 OFFCURVE",
"445 122 CURVE SMOOTH",
"445 208 OFFCURVE",
"383 248 OFFCURVE",
"305 256 CURVE SMOOTH",
"218 265 LINE SMOOTH",
"163 271 OFFCURVE",
"140 283 OFFCURVE",
"140 323 CURVE SMOOTH",
"140 367 OFFCURVE",
"186 380 OFFCURVE",
"233 380 CURVE SMOOTH",
"300 380 OFFCURVE",
"340 369 OFFCURVE",
"360 362 CURVE",
"370 307 LINE"
);
}
);
width = 505;
}
);
unicode = 0073;
},
{
glyphname = germandbls;
lastChange = "2016-09-19 16:28:09 +0000";
layers = (
{
layerId = UUID0;
paths = (
{
closed = 1;
nodes = (
"36 0 LINE",
"241 0 LINE",
"241 62 LINE",
"198 62 LINE",
"198 457 LINE SMOOTH",
"198 537 OFFCURVE",
"218 578 OFFCURVE",
"304 578 CURVE SMOOTH",
"361 578 OFFCURVE",
"390 543 OFFCURVE",
"390 514 CURVE SMOOTH",
"390 444 OFFCURVE",
"277 438 OFFCURVE",
"277 324 CURVE SMOOTH",
"277 270 OFFCURVE",
"324 221 OFFCURVE",
"399 195 CURVE SMOOTH",
"437 182 OFFCURVE",
"480 164 OFFCURVE",
"480 112 CURVE SMOOTH",
"480 75 OFFCURVE",
"452 49 OFFCURVE",
"411 49 CURVE SMOOTH",
"362 49 OFFCURVE",
"341 73 OFFCURVE",
"341 73 CURVE",
"331 132 LINE",
"266 118 LINE",
"282 29 LINE",
"282 29 OFFCURVE",
"325 -15 OFFCURVE",
"410 -15 CURVE SMOOTH",
"486 -15 OFFCURVE",
"552 31 OFFCURVE",
"552 112 CURVE SMOOTH",
"552 198 OFFCURVE",
"505 239 OFFCURVE",
"439 263 CURVE SMOOTH",
"386 282 OFFCURVE",
"355 297 OFFCURVE",
"355 331 CURVE SMOOTH",
"355 391 OFFCURVE",
"464 415 OFFCURVE",
"464 514 CURVE SMOOTH",
"464 588 OFFCURVE",
"407 642 OFFCURVE",
"299 642 CURVE SMOOTH",
"171 642 OFFCURVE",
"120 585 OFFCURVE",
"120 473 CURVE SMOOTH",
"120 429 LINE",
"36 429 LINE",
"36 367 LINE",
"120 367 LINE",
"120 62 LINE",
"36 62 LINE"
);
}
);
width = 589;
}
);
unicode = 00DF;
},
{
glyphname = t;
lastChange = "2016-09-19 16:28:09 +0000";
layers = (
{
layerId = UUID0;
paths = (
{
closed = 1;
nodes = (
"320 429 LINE",
"195 429 LINE",
"195 534 LINE",
"118 516 LINE",
"118 429 LINE",
"35 429 LINE",
"35 367 LINE",
"118 367 LINE",
"118 144 LINE SMOOTH",
"118 34 OFFCURVE",
"175 -20 OFFCURVE",
"267 -20 CURVE SMOOTH",
"305 -20 OFFCURVE",
"335 -9 OFFCURVE",
"335 -9 CURVE",
"320 47 LINE",
"319 47 OFFCURVE",
"297 42 OFFCURVE",
"271 42 CURVE",
"191 47 OFFCURVE",
"195 134 OFFCURVE",
"195 188 CURVE SMOOTH",
"195 367 LINE",
"320 367 LINE"
);
}
);
width = 380;
}
);
unicode = 0074;
},
{
glyphname = u;
lastChange = "2016-09-19 16:28:09 +0000";
layers = (
{
layerId = UUID0;
paths = (
{
closed = 1;
nodes = (
"340 367 LINE",
"424 367 LINE",
"424 84 LINE",
"424 84 OFFCURVE",
"370 50 OFFCURVE",
"298 50 CURVE SMOOTH",
"212 50 OFFCURVE",
"192 100 OFFCURVE",
"192 171 CURVE SMOOTH",
"192 429 LINE",
"30 429 LINE",
"30 367 LINE",
"114 367 LINE",
"114 155 LINE SMOOTH",
"114 43 OFFCURVE",
"165 -14 OFFCURVE",
"293 -14 CURVE SMOOTH",
"360 -14 OFFCURVE",
"417 16 OFFCURVE",
"440 30 CURVE",
"576 -17 LINE",
"596 47 LINE",
"502 79 LINE",
"502 429 LINE",
"340 429 LINE"
);
}
);
width = 630;
}
);
unicode = 0075;
},
{
glyphname = udieresis;
lastChange = "2016-09-19 16:28:09 +0000";
layers = (
{
layerId = UUID0;
paths = (
{
closed = 1;
nodes = (
"269 562 OFFCURVE",
"243 588 OFFCURVE",
"213 588 CURVE SMOOTH",
"182 588 OFFCURVE",
"157 562 OFFCURVE",
"157 532 CURVE SMOOTH",
"157 501 OFFCURVE",
"182 476 OFFCURVE",
"213 476 CURVE SMOOTH",
"243 476 OFFCURVE",
"269 501 OFFCURVE",
"269 532 CURVE SMOOTH"
);
},
{
closed = 1;
nodes = (
"409 562 OFFCURVE",
"383 588 OFFCURVE",
"353 588 CURVE SMOOTH",
"322 588 OFFCURVE",
"297 562 OFFCURVE",
"297 532 CURVE SMOOTH",
"297 501 OFFCURVE",
"322 476 OFFCURVE",
"353 476 CURVE SMOOTH",
"383 476 OFFCURVE",
"409 501 OFFCURVE",
"409 532 CURVE SMOOTH"
);
},
{
closed = 1;
nodes = (
"340 367 LINE",
"424 367 LINE",
"424 84 LINE",
"424 84 OFFCURVE",
"370 50 OFFCURVE",
"298 50 CURVE SMOOTH",
"212 50 OFFCURVE",
"192 100 OFFCURVE",
"192 171 CURVE SMOOTH",
"192 429 LINE",
"30 429 LINE",
"30 367 LINE",
"114 367 LINE",
"114 155 LINE SMOOTH",
"114 43 OFFCURVE",
"165 -14 OFFCURVE",
"293 -14 CURVE SMOOTH",
"360 -14 OFFCURVE",
"417 16 OFFCURVE",
"440 30 CURVE",
"576 -17 LINE",
"596 47 LINE",
"502 79 LINE",
"502 429 LINE",
"340 429 LINE"
);
}
);
width = 632;
}
);
unicode = 00FC;
},
{
glyphname = v;
lastChange = "2016-09-19 16:28:09 +0000";
layers = (
{
layerId = UUID0;
paths = (
{
closed = 1;
nodes = (
"5 367 LINE",
"88 367 LINE",
"247 0 LINE",
"328 0 LINE",
"492 367 LINE",
"577 367 LINE",
"577 429 LINE",
"377 429 LINE",
"377 367 LINE",
"421 367 LINE",
"295 69 LINE",
"169 367 LINE",
"215 367 LINE",
"215 429 LINE",
"5 429 LINE"
);
}
);
width = 582;
}
);
unicode = 0076;
},
{
glyphname = w;
lastChange = "2016-09-19 16:28:09 +0000";
layers = (
{
layerId = UUID0;
paths = (
{
closed = 1;
nodes = (
"5 367 LINE",
"89 367 LINE",
"223 0 LINE",
"300 0 LINE",
"398 270 LINE",
"489 0 LINE",
"565 0 LINE",
"704 367 LINE",
"789 367 LINE",
"789 429 LINE",
"593 429 LINE",
"593 367 LINE",
"637 367 LINE",
"534 90 LINE",
"441 368 LINE",
"365 368 LINE",
"266 92 LINE",
"166 367 LINE",
"211 367 LINE",
"211 429 LINE",
"5 429 LINE"
);
}
);
width = 794;
}
);
unicode = 0077;
},
{
glyphname = x;
lastChange = "2016-09-19 16:28:09 +0000";
layers = (
{
layerId = UUID0;
paths = (
{
closed = 1;
nodes = (
"354 0 LINE",
"582 0 LINE",
"582 62 LINE",
"498 62 LINE",
"357 210 LINE",
"489 367 LINE",
"564 367 LINE",
"564 429 LINE",
"364 429 LINE",
"364 367 LINE",
"408 367 LINE",
"315 254 LINE",
"208 367 LINE",
"262 367 LINE",
"262 429 LINE",
"35 429 LINE",
"35 367 LINE",
"110 367 LINE",
"252 217 LINE",
"122 62 LINE",
"35 62 LINE",
"35 0 LINE",
"247 0 LINE",
"247 62 LINE",
"203 62 LINE",
"295 171 LINE",
"399 62 LINE",
"354 62 LINE"
);
}
);
width = 604;
}
);
unicode = 0078;
},
{
glyphname = y;
lastChange = "2016-09-19 16:28:09 +0000";
layers = (
{
layerId = UUID0;
paths = (
{
closed = 1;
nodes = (
"5 367 LINE",
"86 367 LINE",
"266 -66 LINE",
"258 -89 LINE SMOOTH",
"236 -152 OFFCURVE",
"200 -163 OFFCURVE",
"178 -163 CURVE SMOOTH",
"159 -163 OFFCURVE",
"123 -154 OFFCURVE",
"123 -154 CURVE",
"110 -214 LINE",
"110 -215 OFFCURVE",
"145 -224 OFFCURVE",
"174 -224 CURVE SMOOTH",
"249 -224 OFFCURVE",
"290 -183 OFFCURVE",
"320 -99 CURVE SMOOTH",
"486 367 LINE",
"576 367 LINE",
"576 429 LINE",
"376 429 LINE",
"376 367 LINE",
"421 367 LINE",
"301 29 LINE",
"166 367 LINE",
"213 367 LINE",
"213 429 LINE",
"5 429 LINE"
);
}
);
width = 581;
}
);
unicode = 0079;
},
{
glyphname = z;
lastChange = "2016-09-19 16:28:09 +0000";
layers = (
{
layerId = UUID0;
paths = (
{
closed = 1;
nodes = (
"130 311 LINE",
"140 367 LINE",
"332 367 LINE",
"69 53 LINE",
"69 0 LINE",
"427 0 LINE",
"429 19 LINE",
"446 110 LINE",
"379 122 LINE",
"368 62 LINE",
"158 62 LINE",
"424 379 LINE",
"424 429 LINE",
"84 429 LINE",
"65 325 LINE"
);
}
);
width = 506;
}
);
unicode = 007A;
},
{
glyphname = x.salt;
lastChange = "2016-09-19 16:28:09 +0000";
layers = (
{
layerId = UUID0;
paths = (
{
closed = 1;
nodes = (
"350 0 LINE",
"580 0 LINE",
"580 62 LINE",
"496 62 LINE",
"375 219 LINE",
"488 367 LINE",
"563 367 LINE",
"563 429 LINE",
"363 429 LINE",
"363 367 LINE",
"407 367 LINE",
"320 246 LINE",
"299 246 LINE",
"211 367 LINE",
"266 367 LINE",
"266 429 LINE",
"37 429 LINE",
"37 367 LINE",
"112 367 LINE",
"227 213 LINE",
"124 62 LINE",
"38 62 LINE",
"38 0 LINE",
"250 0 LINE",
"250 62 LINE",
"199 62 LINE",
"283 184 LINE",
"306 184 LINE",
"395 62 LINE",
"350 62 LINE"
);
}
);
width = 642;
}
);
},
{
glyphname = fi;
lastChange = "2016-09-19 16:28:09 +0000";
layers = (
{
layerId = UUID0;
paths = (
{
closed = 1;
nodes = (
"35 0 LINE",
"287 0 LINE",
"287 62 LINE",
"197 62 LINE",
"197 367 LINE",
"321 367 LINE",
"321 429 LINE",
"197 429 LINE",
"197 525 OFFCURVE",
"207 580 OFFCURVE",
"313 575 CURVE SMOOTH",
"439 568 OFFCURVE",
"557 526 OFFCURVE",
"596 526 CURVE SMOOTH",
"629 526 OFFCURVE",
"658 554 OFFCURVE",
"658 588 CURVE SMOOTH",
"658 621 OFFCURVE",
"629 650 OFFCURVE",
"596 650 CURVE SMOOTH",
"569 650 OFFCURVE",
"546 631 OFFCURVE",
"537 607 CURVE",
"474 623 OFFCURVE",
"384 642 OFFCURVE",
"312 642 CURVE SMOOTH",
"157 642 OFFCURVE",
"121 576 OFFCURVE",
"119 429 CURVE",
"34 429 LINE",
"34 367 LINE",
"119 367 LINE",
"119 62 LINE",
"35 62 LINE"
);
},
{
closed = 1;
nodes = (
"482 367 LINE",
"564 367 LINE",
"564 62 LINE",
"482 62 LINE",
"482 0 LINE",
"726 0 LINE",
"726 62 LINE",
"642 62 LINE",
"642 429 LINE",
"482 429 LINE"
);
}
);
width = 768;
}
);
unicode = FB01;
},
{
glyphname = fl;
lastChange = "2016-09-19 16:28:09 +0000";
layers = (
{
layerId = UUID0;
paths = (
{
closed = 1;
nodes = (
"55 0 LINE",
"307 0 LINE",
"307 62 LINE",
"217 62 LINE",
"217 367 LINE",
"340 367 LINE",
"340 429 LINE",
"217 429 LINE",
"217 524 OFFCURVE",
"227 575 OFFCURVE",
"333 575 CURVE SMOOTH",
"419 575 OFFCURVE",
"526 546 OFFCURVE",
"526 546 CURVE",
"526 62 LINE",
"442 62 LINE",
"442 0 LINE",
"688 0 LINE",
"688 62 LINE",
"604 62 LINE",
"604 588 LINE",
"604 588 OFFCURVE",
"464 642 OFFCURVE",
"332 642 CURVE SMOOTH",
"177 642 OFFCURVE",
"141 576 OFFCURVE",
"139 429 CURVE",
"55 429 LINE",
"55 367 LINE",
"139 367 LINE",
"139 62 LINE",
"55 62 LINE"
);
}
);
width = 740;
}
);
unicode = FB02;
},
{
color = 4;
glyphname = "Be-cy";
lastChange = "2016-09-21 13:10:13 +0000";
layers = (
{
layerId = UUID0;
paths = (
{
closed = 1;
nodes = (
"517 442 LINE",
"486 589 LINE",
"50 589 LINE",
"50 520 LINE",
"145 520 LINE",
"145 69 LINE",
"50 69 LINE",
"50 0 LINE",
"365 0 LINE SMOOTH",
"490 0 OFFCURVE",
"542 86 OFFCURVE",
"542 184 CURVE SMOOTH",
"542 311 OFFCURVE",
"442 339 OFFCURVE",
"345 336 CURVE SMOOTH",
"223 332 LINE",
"223 520 LINE",
"422 520 LINE",
"444 426 LINE"
);
},
{
closed = 1;
nodes = (
"349 267 LINE",
"421 269 OFFCURVE",
"457 247 OFFCURVE",
"457 184 CURVE SMOOTH",
"457 113 OFFCURVE",
"414 70 OFFCURVE",
"341 70 CURVE SMOOTH",
"222 70 LINE",
"223 263 LINE"
);
}
);
width = 597;
}
);
unicode = 0411;
},
{
color = 4;
glyphname = "Ge-cy";
lastChange = "2016-09-21 13:10:13 +0000";
layers = (
{
layerId = UUID0;
paths = (
{
closed = 1;
nodes = (
"504 441 LINE",
"476 589 LINE",
"51 589 LINE",
"51 520 LINE",
"146 520 LINE",
"145 69 LINE",
"50 69 LINE",
"50 0 LINE",
"346 0 LINE",
"346 69 LINE",
"223 69 LINE",
"225 520 LINE",
"413 520 LINE",
"435 426 LINE"
);
}
);
width = 484;
}
);
unicode = 0413;
},
{
color = 9;
glyphname = "Gheupturn-cy";
lastChange = "2016-10-24 18:02:47 +0000";
layers = (
{
anchors = (
{
name = top;
position = "{293, 700}";
}
);
layerId = UUID0;
paths = (
{
closed = 1;
nodes = (
"51 589 LINE",
"51 520 LINE",
"146 520 LINE",
"145 69 LINE",
"50 69 LINE",
"50 0 LINE",
"346 0 LINE",
"346 69 LINE",
"223 69 LINE",
"225 520 LINE",
"488 520 LINE",
"516 668 LINE",
"447 683 LINE",
"425 589 LINE"
);
}
);
width = 501;
}
);
unicode = 0490;
},
{
color = 4;
glyphname = "De-cy";
lastChange = "2016-09-21 13:10:13 +0000";
layers = (
{
layerId = UUID0;
paths = (
{
closed = 1;
nodes = (
"71 520 LINE",
"177 520 LINE",
"164 334 LINE SMOOTH",
"157 231 OFFCURVE",
"130 112 OFFCURVE",
"89 69 CURVE",
"9 69 LINE",
"9 -133 LINE",
"77 -133 LINE",
"77 0 LINE",
"540 0 LINE",
"540 -133 LINE",
"608 -133 LINE",
"608 69 LINE",
"515 69 LINE",
"515 520 LINE",
"612 520 LINE",
"612 589 LINE",
"71 589 LINE"
);
},
{
closed = 1;
nodes = (
"251 520 LINE",
"438 520 LINE",
"438 69 LINE",
"172 69 LINE",
"210 127 OFFCURVE",
"226 212 OFFCURVE",
"236 333 CURVE SMOOTH"
);
}
);
width = 657;
}
);
unicode = 0414;
},
{
color = 4;
glyphname = "Io-cy";
lastChange = "2016-09-21 13:10:13 +0000";
layers = (
{
layerId = UUID0;
paths = (
{
closed = 1;
nodes = (
"494 176 LINE",
"454 69 LINE",
"219 69 LINE",
"220 270 LINE",
"407 270 LINE",
"407 339 LINE",
"220 339 LINE",
"220 520 LINE",
"434 520 LINE",
"474 413 LINE",
"540 435 LINE",
"488 589 LINE",
"45 589 LINE",
"45 520 LINE",
"140 520 LINE",
"139 69 LINE",
"44 69 LINE",
"44 0 LINE",
"508 0 LINE",
"560 154 LINE"
);
},
{
closed = 1;
nodes = (
"236 754 OFFCURVE",
"207 783 OFFCURVE",
"174 783 CURVE SMOOTH",
"140 783 OFFCURVE",
"112 754 OFFCURVE",
"112 721 CURVE SMOOTH",
"112 687 OFFCURVE",
"140 659 OFFCURVE",
"174 659 CURVE SMOOTH",
"207 659 OFFCURVE",
"236 687 OFFCURVE",
"236 721 CURVE SMOOTH"
);
},
{
closed = 1;
nodes = (
"452 754 OFFCURVE",
"423 783 OFFCURVE",
"390 783 CURVE SMOOTH",
"356 783 OFFCURVE",
"328 754 OFFCURVE",
"328 721 CURVE SMOOTH",
"328 687 OFFCURVE",
"356 659 OFFCURVE",
"390 659 CURVE SMOOTH",
"423 659 OFFCURVE",
"452 687 OFFCURVE",
"452 721 CURVE SMOOTH"
);
}
);
width = 602;
}
);
unicode = 0401;
},
{
color = 4;
glyphname = "Zhe-cy";
lastChange = "2016-09-21 13:10:13 +0000";
layers = (
{
layerId = UUID0;
paths = (
{
closed = 1;
nodes = (
"632 0 LINE",
"882 0 LINE",
"882 69 LINE",
"787 69 LINE",
"627 306 LINE",
"787 520 LINE",
"878 520 LINE",
"878 589 LINE",
"632 589 LINE",
"632 520 LINE",
"703 520 LINE",
"566 337 LINE",
"484 337 LINE",
"485 519 LINE",
"549 519 LINE",
"549 588 LINE",
"342 588 LINE",
"342 519 LINE",
"406 519 LINE",
"406 337 LINE",
"325 337 LINE",
"187 520 LINE",
"259 520 LINE",
"259 589 LINE",
"13 589 LINE",
"13 520 LINE",
"104 520 LINE",
"263 306 LINE",
"104 69 LINE",
"9 69 LINE",
"9 0 LINE",
"259 0 LINE",
"259 69 LINE",
"196 69 LINE",
"319 268 LINE",
"406 268 LINE",
"406 69 LINE",
"342 69 LINE",
"342 0 LINE",
"549 0 LINE",
"549 69 LINE",
"483 69 LINE",
"484 268 LINE",
"572 268 LINE",
"695 69 LINE",
"632 69 LINE"
);
}
);
width = 891;
}
);
unicode = 0416;
},
{
color = 4;
glyphname = "Ze-cy";
lastChange = "2016-09-21 13:10:13 +0000";
layers = (
{
layerId = UUID0;
paths = (
{
closed = 1;
nodes = (
"139 426 LINE",
"158 509 LINE",
"181 521 OFFCURVE",
"216 536 OFFCURVE",
"260 536 CURVE SMOOTH",
"313 536 OFFCURVE",
"388 515 OFFCURVE",
"388 435 CURVE SMOOTH",
"388 364 OFFCURVE",
"338 334 OFFCURVE",
"266 334 CURVE SMOOTH",
"208 334 LINE",
"208 265 LINE",
"244 265 LINE SMOOTH",
"294 265 OFFCURVE",
"407 273 OFFCURVE",
"407 178 CURVE SMOOTH",
"407 99 OFFCURVE",
"348 53 OFFCURVE",
"262 53 CURVE SMOOTH",
"187 53 OFFCURVE",
"151 87 OFFCURVE",
"142 97 CURVE",
"125 163 LINE",
"57 147 LINE",
"80 48 LINE",
"80 48 OFFCURVE",
"143 -15 OFFCURVE",
"259 -15 CURVE SMOOTH",
"417 -15 OFFCURVE",
"492 68 OFFCURVE",
"492 162 CURVE SMOOTH",
"492 242 OFFCURVE",
"444 286 OFFCURVE",
"402 305 CURVE",
"437 329 OFFCURVE",
"473 368 OFFCURVE",
"473 440 CURVE SMOOTH",
"473 541 OFFCURVE",
"383 604 OFFCURVE",
"262 604 CURVE SMOOTH",
"173 604 OFFCURVE",
"92 558 OFFCURVE",
"91 557 CURVE",
"92 556 LINE",
"70 441 LINE"
);
}
);
width = 552;
}
);
unicode = 0417;
},
{
color = 4;
glyphname = "Ii-cy";
lastChange = "2016-10-24 18:12:45 +0000";
layers = (
{
anchors = (
{
name = bottomright;
position = "{738, 0}";
},
{
name = top;
position = "{379, 589}";
}
);
layerId = UUID0;
paths = (
{
closed = 1;
nodes = (
"53 0 LINE",
"267 0 LINE",
"546 520 LINE",
"545 69 LINE",
"481 69 LINE",
"481 0 LINE",
"718 0 LINE",
"718 69 LINE",
"623 69 LINE",
"624 520 LINE",
"720 520 LINE",
"720 589 LINE",
"510 589 LINE",
"226 68 LINE",
"228 520 LINE",
"292 520 LINE",
"292 589 LINE",
"54 589 LINE",
"54 520 LINE",
"149 520 LINE",
"148 69 LINE",
"53 69 LINE"
);
}
);
width = 758;
}
);
unicode = 0418;
},
{
color = 4;
glyphname = "Ka-cy";
lastChange = "2016-09-21 13:10:13 +0000";
layers = (
{
layerId = UUID0;
paths = (
{
closed = 1;
nodes = (
"380 0 LINE",
"649 0 LINE",
"649 69 LINE",
"549 69 LINE",
"384 315 LINE",
"535 520 LINE",
"626 520 LINE",
"626 589 LINE",
"380 589 LINE",
"380 520 LINE",
"449 520 LINE",
"311 332 LINE",
"223 332 LINE",
"223 519 LINE",
"287 519 LINE",
"287 588 LINE",
"50 588 LINE",
"50 519 LINE",
"144 519 LINE",
"144 69 LINE",
"50 69 LINE",
"50 0 LINE",
"287 0 LINE",
"287 69 LINE",
"224 69 LINE",
"223 263 LINE",
"323 263 LINE",
"452 69 LINE",
"380 69 LINE"
);
}
);
width = 657;
}
);
unicode = 041A;
},
{
color = 4;
glyphname = "El-cy";
lastChange = "2016-09-21 13:10:13 +0000";
layers = (
{
layerId = UUID0;
paths = (
{
closed = 1;
nodes = (
"338 0 LINE",
"595 0 LINE",
"595 69 LINE",
"500 69 LINE",
"502 522 LINE",
"597 522 LINE",
"597 591 LINE",
"80 591 LINE",
"80 522 LINE",
"166 522 LINE",
"149 278 LINE SMOOTH",
"142 180 OFFCURVE",
"124 105 OFFCURVE",
"82 78 CURVE SMOOTH",
"59 63 OFFCURVE",
"22 64 OFFCURVE",
"8 64 CURVE",
"8 -9 LINE",
"18 -10 OFFCURVE",
"28 -10 OFFCURVE",
"37 -10 CURVE SMOOTH",
"169 -9 OFFCURVE",
"207 105 OFFCURVE",
"218 253 CURVE SMOOTH",
"239 522 LINE",
"423 522 LINE",
"422 69 LINE",
"338 69 LINE"
);
}
);
width = 642;
}
);
unicode = 041B;
},
{
color = 4;
glyphname = "Pe-cy";
lastChange = "2016-09-21 13:10:13 +0000";
layers = (
{
layerId = UUID0;
paths = (
{
closed = 1;
nodes = (
"398 0 LINE",
"655 0 LINE",
"655 69 LINE",
"560 69 LINE",
"562 520 LINE",
"657 520 LINE",
"657 589 LINE",
"47 589 LINE",
"47 520 LINE",
"142 520 LINE",
"141 69 LINE",
"46 69 LINE",
"46 0 LINE",
"303 0 LINE",
"303 69 LINE",
"219 69 LINE",
"221 520 LINE",
"483 520 LINE",
"482 69 LINE",
"398 69 LINE"
);
}
);
width = 694;
}
);
unicode = 041F;
},
{
color = 4;
glyphname = "U-cy";
lastChange = "2016-09-21 13:10:13 +0000";
layers = (
{
layerId = UUID0;
paths = (
{
closed = 1;
nodes = (
"610 589 LINE",
"370 589 LINE",
"370 520 LINE",
"437 520 LINE",
"320 214 LINE",
"175 520 LINE",
"238 520 LINE",
"238 589 LINE",
"0 589 LINE",
"0 520 LINE",
"85 520 LINE",
"285 124 LINE",
"280 110 LINE SMOOTH",
"266 73 OFFCURVE",
"249 51 OFFCURVE",
"208 51 CURVE SMOOTH",
"191 51 OFFCURVE",
"170 56 OFFCURVE",
"144 63 CURVE SMOOTH",
"128 67 LINE",
"108 0 LINE",
"121 -3 LINE SMOOTH",
"159 -12 OFFCURVE",
"187 -18 OFFCURVE",
"212 -18 CURVE SMOOTH",
"285 -18 OFFCURVE",
"315 23 OFFCURVE",
"346 100 CURVE SMOOTH",
"515 520 LINE",
"610 520 LINE"
);
}
);
width = 599;
}
);
unicode = 0423;
},
{
color = 4;
glyphname = "Ef-cy";
lastChange = "2016-09-21 13:10:13 +0000";
layers = (
{
layerId = UUID0;
paths = (
{
closed = 1;
nodes = (
"218 673 LINE",
"337 641 LINE",
"337 590 LINE",
"316 590 LINE SMOOTH",
"179 590 OFFCURVE",
"45 553 OFFCURVE",
"45 364 CURVE SMOOTH",
"45 178 OFFCURVE",
"179 121 OFFCURVE",
"316 121 CURVE SMOOTH",
"337 121 LINE",
"337 66 LINE",
"243 66 LINE",
"243 0 LINE",
"510 0 LINE",
"510 66 LINE",
"416 66 LINE",
"416 121 LINE",
"436 121 LINE SMOOTH",
"573 121 OFFCURVE",
"707 178 OFFCURVE",
"707 364 CURVE SMOOTH",
"707 553 OFFCURVE",
"573 590 OFFCURVE",
"436 590 CURVE SMOOTH",
"416 590 LINE",
"416 693 LINE",
"236 746 LINE"
);
},
{
closed = 1;
nodes = (
"130 511 OFFCURVE",
"217 524 OFFCURVE",
"310 524 CURVE SMOOTH",
"336 524 LINE",
"336 187 LINE",
"310 187 LINE SMOOTH",
"217 187 OFFCURVE",
"130 220 OFFCURVE",
"130 365 CURVE SMOOTH"
);
},
{
closed = 1;
nodes = (
"622 220 OFFCURVE",
"535 187 OFFCURVE",
"442 187 CURVE SMOOTH",
"416 187 LINE",
"416 524 LINE",
"442 524 LINE SMOOTH",
"535 524 OFFCURVE",
"622 511 OFFCURVE",
"622 365 CURVE SMOOTH"
);
}
);
width = 762;
}
);
unicode = 0424;
},
{
color = 4;
glyphname = "Che-cy";
lastChange = "2016-09-21 13:10:13 +0000";
layers = (
{
layerId = UUID0;
paths = (
{
closed = 1;
nodes = (
"571 589 LINE",
"333 589 LINE",
"333 520 LINE",
"398 520 LINE",
"398 321 LINE",
"384 309 OFFCURVE",
"348 285 OFFCURVE",
"276 285 CURVE SMOOTH",
"182 285 OFFCURVE",
"138 318 OFFCURVE",
"138 418 CURVE SMOOTH",
"138 520 LINE",
"203 520 LINE",
"203 589 LINE",
"-35 589 LINE",
"-35 520 LINE",
"61 520 LINE",
"60 418 LINE SMOOTH",
"59 279 OFFCURVE",
"148 218 OFFCURVE",
"258 218 CURVE SMOOTH",
"345 218 OFFCURVE",
"385 244 OFFCURVE",
"398 256 CURVE",
"398 69 LINE",
"248 69 LINE",
"248 0 LINE",
"569 0 LINE",
"569 69 LINE",
"476 69 LINE",
"476 520 LINE",
"571 520 LINE"
);
}
);
width = 621;
}
);
unicode = 0427;
},
{
color = 4;
glyphname = "Tse-cy";
lastChange = "2016-09-21 13:10:13 +0000";
layers = (
{
layerId = UUID0;
paths = (
{
closed = 1;
nodes = (
"289 589 LINE",
"50 589 LINE",
"50 520 LINE",
"146 520 LINE",
"145 69 LINE",
"50 69 LINE",
"50 0 LINE",
"579 0 LINE",
"578 -175 LINE",
"657 -175 LINE",
"657 69 LINE",
"561 69 LINE",
"562 520 LINE",
"658 520 LINE",
"658 589 LINE",
"420 589 LINE",
"420 520 LINE",
"483 520 LINE",
"482 69 LINE",
"224 69 LINE",
"225 520 LINE",
"289 520 LINE"
);
}
);
width = 713;
}
);
unicode = 0426;
},
{
color = 4;
glyphname = "Sha-cy";
lastChange = "2016-09-21 13:10:13 +0000";
layers = (
{
layerId = UUID0;
paths = (
{
closed = 1;
nodes = (
"587 589 LINE",
"381 589 LINE",
"381 520 LINE",
"444 520 LINE",
"443 69 LINE",
"224 69 LINE",
"225 520 LINE",
"289 520 LINE",
"289 589 LINE",
"51 589 LINE",
"51 520 LINE",
"146 520 LINE",
"145 69 LINE",
"50 69 LINE",
"50 0 LINE",
"927 0 LINE",
"927 69 LINE",
"832 69 LINE",
"833 520 LINE",
"927 520 LINE",
"927 589 LINE",
"691 589 LINE",
"691 520 LINE",
"754 520 LINE",
"753 69 LINE",
"522 69 LINE",
"523 520 LINE",
"587 520 LINE"
);
}
);
width = 974;
}
);
unicode = 0428;
},
{
color = 4;
glyphname = "Shcha-cy";
lastChange = "2016-09-21 13:10:13 +0000";
layers = (
{
layerId = UUID0;
paths = (
{
closed = 1;
nodes = (
"947 69 LINE",
"832 69 LINE",
"833 520 LINE",
"927 520 LINE",
"927 589 LINE",
"691 589 LINE",
"691 520 LINE",
"754 520 LINE",
"753 69 LINE",
"522 69 LINE",
"523 520 LINE",
"587 520 LINE",
"587 589 LINE",
"381 589 LINE",
"381 520 LINE",
"444 520 LINE",
"443 69 LINE",
"224 69 LINE",
"225 520 LINE",
"289 520 LINE",
"289 589 LINE",
"51 589 LINE",
"51 520 LINE",
"146 520 LINE",
"145 69 LINE",
"50 69 LINE",
"50 0 LINE",
"869 0 LINE",
"868 -175 LINE",
"947 -175 LINE"
);
}
);
width = 1000;
}
);
unicode = 0429;
},
{
color = 9;
glyphname = "Dzhe-cy";
lastChange = "2016-10-24 18:02:47 +0000";
layers = (
{
layerId = UUID0;
paths = (
{
closed = 1;
nodes = (
"289 589 LINE",
"50 589 LINE",
"50 520 LINE",
"146 520 LINE",
"145 69 LINE",
"50 69 LINE",
"50 0 LINE",
"323 0 LINE",
"318 -206 LINE",
"397 -206 LINE",
"392 0 LINE",
"657 0 LINE",
"657 69 LINE",
"561 69 LINE",
"562 520 LINE",
"658 520 LINE",
"658 589 LINE",
"420 589 LINE",
"420 520 LINE",
"483 520 LINE",
"482 69 LINE",
"224 69 LINE",
"225 520 LINE",
"289 520 LINE"
);
}
);
width = 705;
}
);
unicode = 040F;
},
{
color = 4;
glyphname = "Softsign-cy";
lastChange = "2016-09-21 13:10:13 +0000";
layers = (
{
layerId = UUID0;
paths = (
{
closed = 1;
nodes = (
"54 521 LINE",
"142 521 LINE",
"142 70 LINE",
"50 70 LINE",
"50 1 LINE",
"142 1 LINE",
"142 0 LINE",
"331 0 LINE SMOOTH",
"444 0 OFFCURVE",
"531 60 OFFCURVE",
"531 193 CURVE SMOOTH",
"531 315 OFFCURVE",
"474 373 OFFCURVE",
"311 373 CURVE SMOOTH",
"220 373 LINE",
"220 521 LINE",
"286 521 LINE",
"286 590 LINE",
"54 590 LINE"
);
},
{
closed = 1;
nodes = (
"310 304 LINE",
"393 304 OFFCURVE",
"446 293 OFFCURVE",
"446 192 CURVE SMOOTH",
"446 83 OFFCURVE",
"365 70 OFFCURVE",
"312 70 CURVE SMOOTH",
"220 70 LINE",
"220 304 LINE"
);
}
);
width = 589;
}
);
unicode = 042C;
},
{
color = 4;
glyphname = "Hardsign-cy";
lastChange = "2016-09-21 13:10:13 +0000";
layers = (
{
layerId = UUID0;
paths = (
{
closed = 1;
nodes = (
"1 404 LINE",
"70 404 LINE",
"70 521 LINE",
"218 521 LINE",
"218 70 LINE",
"126 70 LINE",
"126 1 LINE",
"218 1 LINE",
"218 0 LINE",
"408 0 LINE SMOOTH",
"521 0 OFFCURVE",
"608 60 OFFCURVE",
"608 193 CURVE SMOOTH",
"608 315 OFFCURVE",
"551 373 OFFCURVE",
"388 373 CURVE SMOOTH",
"296 373 LINE",
"296 521 LINE",
"362 521 LINE",
"362 590 LINE",
"51 590 LINE",
"51 589 LINE",
"1 589 LINE"
);
},
{
closed = 1;
nodes = (
"387 304 LINE",
"470 304 OFFCURVE",
"523 293 OFFCURVE",
"523 192 CURVE SMOOTH",
"523 83 OFFCURVE",
"442 70 OFFCURVE",
"389 70 CURVE SMOOTH",
"297 70 LINE",
"297 304 LINE"
);
}
);
width = 668;
}
);
unicode = 042A;
},
{
color = 4;
glyphname = "Yeru-cy";
lastChange = "2016-09-21 13:10:13 +0000";
layers = (
{
layerId = UUID0;
paths = (
{
closed = 1;
nodes = (
"54 521 LINE",
"142 521 LINE",
"142 70 LINE",
"50 70 LINE",
"50 1 LINE",
"142 1 LINE",
"142 0 LINE",
"332 0 LINE SMOOTH",
"445 0 OFFCURVE",
"532 60 OFFCURVE",
"532 193 CURVE SMOOTH",
"532 315 OFFCURVE",
"475 373 OFFCURVE",
"312 373 CURVE SMOOTH",
"220 373 LINE",
"220 521 LINE",
"286 521 LINE",
"286 590 LINE",
"54 590 LINE"
);
},
{
closed = 1;
nodes = (
"577 519 LINE",
"642 519 LINE",
"641 69 LINE",
"577 69 LINE",
"577 0 LINE",
"815 0 LINE",
"815 69 LINE",
"719 69 LINE",
"721 519 LINE",
"815 519 LINE",
"815 588 LINE",
"577 588 LINE"
);
},
{
closed = 1;
nodes = (
"311 304 LINE",
"394 304 OFFCURVE",
"447 293 OFFCURVE",
"447 192 CURVE SMOOTH",
"447 83 OFFCURVE",
"366 70 OFFCURVE",
"313 70 CURVE SMOOTH",
"221 70 LINE",
"221 304 LINE"
);
}
);
width = 865;
}
);
unicode = 042B;
},
{
color = 9;
glyphname = "Lje-cy";
lastChange = "2016-10-24 18:02:47 +0000";
layers = (
{
anchors = (
{
name = top;
position = "{388, 700}";
}
);
layerId = UUID0;
paths = (
{
closed = 1;
nodes = (
"338 0 LINE",
"614 0 LINE SMOOTH",
"727 0 OFFCURVE",
"814 60 OFFCURVE",
"814 193 CURVE SMOOTH",
"814 315 OFFCURVE",
"757 373 OFFCURVE",
"594 373 CURVE SMOOTH",
"502 373 LINE",
"502 522 LINE",
"597 522 LINE",
"597 591 LINE",
"80 591 LINE",
"80 522 LINE",
"166 522 LINE",
"149 278 LINE SMOOTH",
"142 180 OFFCURVE",
"124 105 OFFCURVE",
"82 78 CURVE SMOOTH",
"59 63 OFFCURVE",
"22 64 OFFCURVE",
"8 64 CURVE",
"8 -9 LINE",
"18 -10 OFFCURVE",
"28 -10 OFFCURVE",
"37 -10 CURVE SMOOTH",
"169 -9 OFFCURVE",
"207 105 OFFCURVE",
"218 253 CURVE SMOOTH",
"239 522 LINE",
"423 522 LINE",
"422 69 LINE",
"338 69 LINE"
);
},
{
closed = 1;
nodes = (
"593 304 LINE SMOOTH",
"676 304 OFFCURVE",
"729 293 OFFCURVE",
"729 192 CURVE SMOOTH",
"729 83 OFFCURVE",
"648 70 OFFCURVE",
"595 70 CURVE SMOOTH",
"502 70 LINE",
"502 304 LINE"
);
}
);
width = 874;
}
);
unicode = 0409;
},
{
color = 9;
glyphname = "Nje-cy";
lastChange = "2016-10-24 18:02:47 +0000";
layers = (
{
anchors = (
{
name = top;
position = "{388, 700}";
}
);
layerId = UUID0;
paths = (
{
closed = 1;
nodes = (
"449 0 LINE",
"705 0 LINE SMOOTH",
"819 0 OFFCURVE",
"907 54 OFFCURVE",
"907 174 CURVE SMOOTH",
"907 282 OFFCURVE",
"849 335 OFFCURVE",
"685 335 CURVE SMOOTH",
"593 335 LINE",
"594 520 LINE",
"689 520 LINE",
"689 589 LINE",
"450 589 LINE",
"450 520 LINE",
"514 520 LINE",
"513 336 LINE",
"225 336 LINE",
"226 520 LINE",
"290 520 LINE",
"290 589 LINE",
"51 589 LINE",
"51 520 LINE",
"146 520 LINE",
"145 69 LINE",
"50 69 LINE",
"50 0 LINE",
"288 0 LINE",
"288 69 LINE",
"224 69 LINE",
"225 267 LINE",
"513 267 LINE",
"513 69 LINE",
"449 69 LINE"
);
},
{
closed = 1;
nodes = (
"684 267 LINE SMOOTH",
"748 267 OFFCURVE",
"822 263 OFFCURVE",
"822 173 CURVE SMOOTH",
"822 75 OFFCURVE",
"730 69 OFFCURVE",
"687 69 CURVE SMOOTH",
"593 69 LINE",
"593 267 LINE"
);
}
);
width = 965;
}
);
unicode = 040A;
},
{
color = 4;
glyphname = "E-cy";
lastChange = "2016-09-21 13:10:13 +0000";
layers = (
{
layerId = UUID0;
paths = (
{
closed = 1;
nodes = (
"501 154 LINE",
"482 75 LINE",
"454 66 OFFCURVE",
"404 53 OFFCURVE",
"345 53 CURVE SMOOTH",
"223 53 OFFCURVE",
"157 129 OFFCURVE",
"147 258 CURVE",
"288 252 LINE",
"416 252 LINE",
"416 321 LINE",
"287 321 LINE",
"146 314 LINE",
"152 452 OFFCURVE",
"215 536 OFFCURVE",
"345 536 CURVE SMOOTH",
"415 536 OFFCURVE",
"460 521 OFFCURVE",
"482 510 CURVE",
"502 426 LINE",
"571 441 LINE",
"549 557 LINE",
"548 558 OFFCURVE",
"496 603 OFFCURVE",
"344 604 CURVE SMOOTH",
"172 605 OFFCURVE",
"60 483 OFFCURVE",
"61 295 CURVE SMOOTH",
"62 105 OFFCURVE",
"173 -15 OFFCURVE",
"345 -15 CURVE SMOOTH",
"473 -15 OFFCURVE",
"544 22 OFFCURVE",
"544 22 CURVE",
"569 138 LINE"
);
}
);
width = 616;
}
);
unicode = 0404;
},
{
color = 4;
glyphname = "Ereversed-cy";
lastChange = "2016-09-21 13:10:13 +0000";
layers = (
{
layerId = UUID0;
paths = (
{
closed = 1;
nodes = (
"124 426 LINE",
"143 510 LINE",
"166 521 OFFCURVE",
"213 536 OFFCURVE",
"281 536 CURVE SMOOTH",
"411 536 OFFCURVE",
"474 452 OFFCURVE",
"479 314 CURVE",
"312 321 LINE",
"210 321 LINE",
"210 252 LINE",
"309 252 LINE",
"478 259 LINE",
"468 129 OFFCURVE",
"403 53 OFFCURVE",
"281 53 CURVE SMOOTH",
"219 53 OFFCURVE",
"170 67 OFFCURVE",
"143 76 CURVE",
"125 154 LINE",
"57 138 LINE",
"82 22 LINE",
"82 22 OFFCURVE",
"153 -15 OFFCURVE",
"281 -15 CURVE SMOOTH",
"453 -15 OFFCURVE",
"564 105 OFFCURVE",
"565 295 CURVE SMOOTH",
"566 483 OFFCURVE",
"454 605 OFFCURVE",
"282 604 CURVE SMOOTH",
"130 603 OFFCURVE",
"78 558 OFFCURVE",
"77 557 CURVE",
"55 441 LINE"
);
}
);
width = 631;
}
);
unicode = 042D;
},
{
color = 4;
glyphname = "Yi-cy";
lastChange = "2016-09-21 13:10:13 +0000";
layers = (
{
layerId = UUID0;
paths = (
{
closed = 1;
nodes = (
"51 519 LINE",
"146 519 LINE",
"146 69 LINE",
"50 69 LINE",
"50 0 LINE",
"321 0 LINE",
"321 69 LINE",
"225 69 LINE",
"227 519 LINE",
"321 519 LINE",
"321 588 LINE",
"51 588 LINE"
);
},
{
closed = 1;
nodes = (
"171 722 OFFCURVE",
"142 750 OFFCURVE",
"110 750 CURVE SMOOTH",
"76 750 OFFCURVE",
"49 722 OFFCURVE",
"49 689 CURVE SMOOTH",
"49 655 OFFCURVE",
"76 628 OFFCURVE",
"110 628 CURVE SMOOTH",
"142 628 OFFCURVE",
"171 655 OFFCURVE",
"171 689 CURVE SMOOTH"
);
},
{
closed = 1;
nodes = (
"322 722 OFFCURVE",
"294 750 OFFCURVE",
"261 750 CURVE SMOOTH",
"228 750 OFFCURVE",
"200 722 OFFCURVE",
"200 689 CURVE SMOOTH",
"200 655 OFFCURVE",
"228 628 OFFCURVE",
"261 628 CURVE SMOOTH",
"294 628 OFFCURVE",
"322 655 OFFCURVE",
"322 689 CURVE SMOOTH"
);
}
);
width = 371;
}
);
unicode = 0407;
},
{
color = 9;
glyphname = "Tshe-cy";
lastChange = "2016-10-24 18:02:47 +0000";
layers = (
{
anchors = (
{
name = top;
position = "{491, 700}";
}
);
layerId = UUID0;
paths = (
{
closed = 1;
nodes = (
"227 69 LINE",
"132 69 LINE",
"132 0 LINE",
"402 0 LINE",
"402 69 LINE",
"308 69 LINE",
"308 269 LINE",
"320 276 OFFCURVE",
"373 305 OFFCURVE",
"439 305 CURVE SMOOTH",
"528 305 OFFCURVE",
"548 254 OFFCURVE",
"548 180 CURVE SMOOTH",
"548 69 LINE",
"484 69 LINE",
"484 0 LINE",
"722 0 LINE",
"722 69 LINE",
"629 69 LINE",
"629 197 LINE SMOOTH",
"629 313 OFFCURVE",
"576 372 OFFCURVE",
"444 372 CURVE SMOOTH",
"386 372 OFFCURVE",
"337 347 OFFCURVE",
"308 328 CURVE",
"309 520 LINE",
"450 520 LINE",
"450 425 LINE",
"526 425 LINE",
"526 589 LINE",
"11 589 LINE",
"11 425 LINE",
"87 425 LINE",
"87 520 LINE",
"228 520 LINE"
);
}
);
width = 755;
}
);
unicode = 040B;
},
{
color = 4;
glyphname = "Iu-cy";
lastChange = "2016-09-21 13:10:13 +0000";
layers = (
{
layerId = UUID0;
paths = (
{
closed = 1;
nodes = (
"751 -15 OFFCURVE",
"851 105 OFFCURVE",
"851 295 CURVE SMOOTH",
"851 485 OFFCURVE",
"750 604 OFFCURVE",
"596 604 CURVE SMOOTH",
"453 604 OFFCURVE",
"355 499 OFFCURVE",
"344 329 CURVE",
"263 334 LINE",
"223 334 LINE",
"224 519 LINE",
"289 519 LINE",
"289 588 LINE",
"50 588 LINE",
"50 519 LINE",
"145 519 LINE",
"144 69 LINE",
"50 69 LINE",
"50 0 LINE",
"289 0 LINE",
"289 69 LINE",
"222 69 LINE",
"223 265 LINE",
"263 265 LINE",
"343 269 LINE",
"352 94 OFFCURVE",
"452 -15 OFFCURVE",
"597 -15 CURVE SMOOTH"
);
},
{
closed = 1;
nodes = (
"718 536 OFFCURVE",
"766 447 OFFCURVE",
"766 295 CURVE SMOOTH",
"766 143 OFFCURVE",
"718 53 OFFCURVE",
"597 53 CURVE SMOOTH",
"476 53 OFFCURVE",
"428 143 OFFCURVE",
"428 295 CURVE SMOOTH",
"428 447 OFFCURVE",
"476 536 OFFCURVE",
"597 536 CURVE SMOOTH"
);
}
);
width = 906;
}
);
unicode = 042E;
},
{
color = 4;
glyphname = "Ia-cy";
lastChange = "2016-09-21 13:10:13 +0000";
layers = (
{
layerId = UUID0;
paths = (
{
closed = 1;
nodes = (
"554 69 LINE",
"461 69 LINE",
"461 520 LINE",
"554 520 LINE",
"554 589 LINE",
"291 589 LINE SMOOTH",
"128 589 OFFCURVE",
"76 527 OFFCURVE",
"76 405 CURVE SMOOTH",
"76 322 OFFCURVE",
"124 265 OFFCURVE",
"196 242 CURVE",
"111 69 LINE",
"15 69 LINE",
"15 0 LINE",
"161 0 LINE",
"162 5 LINE",
"163 5 LINE",
"273 231 LINE",
"383 231 LINE",
"383 69 LINE",
"319 69 LINE",
"319 0 LINE",
"554 0 LINE"
);
},
{
closed = 1;
nodes = (
"382 520 LINE",
"382 301 LINE",
"290 301 LINE SMOOTH",
"237 301 OFFCURVE",
"161 317 OFFCURVE",
"161 404 CURVE SMOOTH",
"161 505 OFFCURVE",
"209 520 OFFCURVE",
"292 520 CURVE SMOOTH"
);
}
);
width = 604;
}
);
unicode = 042F;
},
{
color = 9;
glyphname = "Dje-cy";
lastChange = "2016-10-24 18:22:40 +0000";
layers = (
{
layerId = UUID0;
paths = (
{
closed = 1;
nodes = (
"227 69 LINE",
"132 69 LINE",
"132 0 LINE",
"402 0 LINE",
"402 69 LINE",
"308 69 LINE",
"308 269 LINE",
"320 276 OFFCURVE",
"373 305 OFFCURVE",
"439 305 CURVE SMOOTH",
"528 305 OFFCURVE",
"548 254 OFFCURVE",
"548 180 CURVE SMOOTH",
"548 135 LINE SMOOTH",
"548 69 OFFCURVE",
"520 16 OFFCURVE",
"507 2 CURVE",
"552 -40 LINE",
"590 -5 OFFCURVE",
"629 61 OFFCURVE",
"629 155 CURVE SMOOTH",
"629 197 LINE SMOOTH",
"629 313 OFFCURVE",
"576 372 OFFCURVE",
"444 372 CURVE SMOOTH",
"386 372 OFFCURVE",
"337 347 OFFCURVE",
"308 328 CURVE",
"309 520 LINE",
"450 520 LINE",
"450 425 LINE",
"526 425 LINE",
"526 589 LINE",
"11 589 LINE",
"11 425 LINE",
"87 425 LINE",
"87 520 LINE",
"228 520 LINE"
);
}
);
width = 673;
},
{
associatedMasterId = UUID0;
background = {
paths = (
{
closed = 1;
nodes = (
"434 404 LINE",
"500 404 LINE",
"500 533 LINE",
"323 533 LINE",
"323 589 LINE",
"389 589 LINE",
"389 658 LINE",
"157 658 LINE",
"157 589 LINE",
"245 589 LINE",
"245 533 LINE",
"64 533 LINE",
"64 404 LINE",
"129 404 LINE",
"129 468 LINE",
"245 468 LINE",
"245 70 LINE",
"153 70 LINE",
"153 0 LINE",
"434 0 LINE SMOOTH",
"547 0 OFFCURVE",
"634 51 OFFCURVE",
"634 184 CURVE SMOOTH",
"634 289 OFFCURVE",
"577 353 OFFCURVE",
"414 353 CURVE SMOOTH",
"323 353 LINE",
"323 468 LINE",
"434 468 LINE"
);
},
{
closed = 1;
nodes = (
"323 284 LINE",
"413 284 LINE SMOOTH",
"519 284 OFFCURVE",
"549 256 OFFCURVE",
"549 183 CURVE SMOOTH",
"549 82 OFFCURVE",
"468 70 OFFCURVE",
"415 70 CURVE SMOOTH",
"323 70 LINE"
);
}
);
};
layerId = "09B4A8F2-A217-4730-8126-9F47403B5518";
name = new;
paths = (
{
closed = 1;
nodes = (
"227 69 LINE",
"132 69 LINE",
"132 0 LINE",
"308 0 LINE",
"308 269 LINE",
"350 293 OFFCURVE",
"393 305 OFFCURVE",
"437 305 CURVE SMOOTH",
"528 305 OFFCURVE",
"548 254 OFFCURVE",
"548 191 CURVE SMOOTH",
"548 133 OFFCURVE",
"533 98 OFFCURVE",
"488 82 CURVE SMOOTH",
"462 73 OFFCURVE",
"442 70 OFFCURVE",
"412 70 CURVE",
"407 0 LINE",
"457 0 OFFCURVE",
"485 2 OFFCURVE",
"511 9 CURVE SMOOTH",
"586 29 OFFCURVE",
"633 100 OFFCURVE",
"633 199 CURVE SMOOTH",
"633 313 OFFCURVE",
"566 372 OFFCURVE",
"455 372 CURVE SMOOTH",
"391 372 OFFCURVE",
"344 352 OFFCURVE",
"308 328 CURVE",
"309 520 LINE",
"450 520 LINE",
"450 425 LINE",
"526 425 LINE",
"526 589 LINE",
"11 589 LINE",
"11 425 LINE",
"87 425 LINE",
"87 520 LINE",
"228 520 LINE"
);
}
);
width = 673;
}
);
unicode = 0402;
},
{
color = 9;
glyphname = "Yat-cy";
lastChange = "2016-10-24 18:02:47 +0000";
layers = (
{
layerId = UUID0;
paths = (
{
closed = 1;
nodes = (
"390 404 LINE",
"456 404 LINE",
"456 533 LINE",
"279 533 LINE",
"279 589 LINE",
"345 589 LINE",
"345 658 LINE",
"113 658 LINE",
"113 589 LINE",
"201 589 LINE",
"201 533 LINE",
"20 533 LINE",
"20 404 LINE",
"85 404 LINE",
"85 468 LINE",
"201 468 LINE",
"201 70 LINE",
"109 70 LINE",
"109 0 LINE",
"390 0 LINE SMOOTH",
"503 0 OFFCURVE",
"590 51 OFFCURVE",
"590 184 CURVE SMOOTH",
"590 289 OFFCURVE",
"533 353 OFFCURVE",
"370 353 CURVE SMOOTH",
"279 353 LINE",
"279 468 LINE",
"390 468 LINE"
);
},
{
closed = 1;
nodes = (
"279 284 LINE",
"369 284 LINE SMOOTH",
"475 284 OFFCURVE",
"505 256 OFFCURVE",
"505 183 CURVE SMOOTH",
"505 82 OFFCURVE",
"424 70 OFFCURVE",
"371 70 CURVE SMOOTH",
"279 70 LINE"
);
}
);
width = 648;
}
);
unicode = 0462;
},
{
color = 9;
glyphname = "Yusbig-cy";
lastChange = "2016-10-24 18:02:47 +0000";
layers = (
{
background = {
paths = (
{
closed = 1;
nodes = (
"1168 0 LINE",
"1168 145 LINE",
"1108 145 LINE",
"276 740 LINE",
"109 740 LINE",
"109 640 LINE",
"169 640 LINE",
"882 145 LINE",
"882 0 LINE"
);
},
{
closed = 1;
nodes = (
"737 0 LINE",
"737 134 LINE",
"420 134 LINE",
"420 0 LINE"
);
},
{
closed = 1;
nodes = (
"664 61 LINE",
"664 485 LINE",
"502 485 LINE",
"502 61 LINE"
);
},
{
closed = 1;
nodes = (
"283 0 LINE",
"283 145 LINE",
"986 640 LINE",
"1046 640 LINE",
"1046 740 LINE",
"880 740 LINE",
"57 145 LINE",
"-3 145 LINE",
"-3 0 LINE"
);
},
{
closed = 1;
nodes = (
"942 640 LINE",
"942 740 LINE",
"215 740 LINE",
"215 640 LINE"
);
}
);
};
layerId = UUID0;
paths = (
{
closed = 1;
nodes = (
"56 520 LINE",
"140 520 LINE",
"336 329 LINE",
"272 325 OFFCURVE",
"233 260 OFFCURVE",
"221 241 CURVE SMOOTH",
"104 69 LINE",
"9 69 LINE",
"9 0 LINE",
"259 0 LINE",
"259 69 LINE",
"196 69 LINE",
"294 227 LINE SMOOTH",
"318 265 OFFCURVE",
"325 276 OFFCURVE",
"374 276 CURVE SMOOTH",
"387 276 LINE",
"387 69 LINE",
"323 69 LINE",
"323 0 LINE",
"530 0 LINE",
"530 69 LINE",
"466 69 LINE",
"468 276 LINE",
"479 276 LINE SMOOTH",
"528 276 OFFCURVE",
"535 265 OFFCURVE",
"559 227 CURVE SMOOTH",
"657 69 LINE",
"594 69 LINE",
"594 0 LINE",
"844 0 LINE",
"844 69 LINE",
"749 69 LINE",
"632 241 LINE SMOOTH",
"619 260 OFFCURVE",
"582 323 OFFCURVE",
"520 329 CURVE",
"713 520 LINE",
"809 520 LINE",
"809 589 LINE",
"56 589 LINE"
);
},
{
closed = 1;
nodes = (
"433 328 LINE",
"251 520 LINE",
"617 520 LINE"
);
}
);
width = 853;
}
);
unicode = 046A;
},
{
color = 9;
glyphname = "Izhitsa-cy";
lastChange = "2016-10-24 18:02:47 +0000";
layers = (
{
layerId = UUID0;
paths = (
{
closed = 1;
nodes = (
"8 520 LINE",
"103 520 LINE",
"299 0 LINE",
"384 0 LINE",
"552 496 LINE SMOOTH",
"557 510 OFFCURVE",
"568 520 OFFCURVE",
"591 520 CURVE SMOOTH",
"655 520 LINE",
"655 589 LINE",
"581 589 LINE SMOOTH",
"527 589 OFFCURVE",
"502 551 OFFCURVE",
"491 520 CURVE SMOOTH",
"392 238 LINE",
"345 89 LINE",
"292 246 LINE",
"189 520 LINE",
"253 520 LINE",
"253 589 LINE",
"8 589 LINE"
);
}
);
width = 662;
}
);
unicode = 0474;
},
{
color = 9;
glyphname = "Hardsign-cy.001";
lastChange = "2016-10-24 18:02:47 +0000";
layers = (
{
layerId = UUID0;
paths = (
{
closed = 1;
nodes = (
"1 404 LINE",
"70 404 LINE",
"70 521 LINE",
"218 521 LINE",
"218 70 LINE",
"126 70 LINE",
"126 1 LINE",
"218 1 LINE",
"218 0 LINE",
"408 0 LINE SMOOTH",
"521 0 OFFCURVE",
"608 60 OFFCURVE",
"608 193 CURVE SMOOTH",
"608 315 OFFCURVE",
"551 373 OFFCURVE",
"388 373 CURVE SMOOTH",
"296 373 LINE",
"296 521 LINE",
"362 521 LINE",
"362 590 LINE",
"1 589 LINE"
);
},
{
closed = 1;
nodes = (
"387 304 LINE",
"470 304 OFFCURVE",
"523 293 OFFCURVE",
"523 192 CURVE SMOOTH",
"523 83 OFFCURVE",
"442 70 OFFCURVE",
"389 70 CURVE SMOOTH",
"297 70 LINE",
"297 304 LINE"
);
}
);
width = 668;
}
);
},
{
color = 4;
glyphname = "be-cy";
lastChange = "2016-09-21 13:10:13 +0000";
layers = (
{
layerId = UUID0;
paths = (
{
closed = 1;
nodes = (
"181 404 OFFCURVE",
"133 334 OFFCURVE",
"112 282 CURVE",
"117 390 OFFCURVE",
"150 462 OFFCURVE",
"236 493 CURVE SMOOTH",
"301 516 OFFCURVE",
"402 539 OFFCURVE",
"460 573 CURVE",
"432 635 LINE",
"372 601 OFFCURVE",
"283 582 OFFCURVE",
"230 562 CURVE SMOOTH",
"72 504 OFFCURVE",
"56 389 OFFCURVE",
"56 234 CURVE SMOOTH",
"56 117 OFFCURVE",
"106 -15 OFFCURVE",
"275 -15 CURVE SMOOTH",
"396 -15 OFFCURVE",
"485 59 OFFCURVE",
"485 195 CURVE SMOOTH",
"485 331 OFFCURVE",
"396 404 OFFCURVE",
"285 404 CURVE SMOOTH"
);
},
{
closed = 1;
nodes = (
"361 340 OFFCURVE",
"405 294 OFFCURVE",
"405 195 CURVE SMOOTH",
"405 96 OFFCURVE",
"361 49 OFFCURVE",
"275 49 CURVE SMOOTH",
"190 49 OFFCURVE",
"145 96 OFFCURVE",
"145 195 CURVE SMOOTH",
"145 289 OFFCURVE",
"200 340 OFFCURVE",
"283 340 CURVE SMOOTH"
);
}
);
width = 531;
}
);
unicode = 0431;
},
{
color = 4;
glyphname = "ve-cy";
lastChange = "2016-09-21 13:10:13 +0000";
layers = (
{
layerId = UUID0;
paths = (
{
closed = 1;
nodes = (
"314 368 LINE",
"358 368 OFFCURVE",
"398 371 OFFCURVE",
"398 309 CURVE SMOOTH",
"398 265 OFFCURVE",
"356 252 OFFCURVE",
"336 252 CURVE SMOOTH",
"209 252 LINE",
"209 368 LINE"
);
},
{
closed = 1;
nodes = (
"349 193 LINE",
"396 193 OFFCURVE",
"424 173 OFFCURVE",
"424 130 CURVE SMOOTH",
"424 82 OFFCURVE",
"393 63 OFFCURVE",
"345 63 CURVE SMOOTH",
"209 63 LINE",
"209 193 LINE"
);
},
{
closed = 1;
nodes = (
"43 429 LINE",
"43 367 LINE",
"131 367 LINE",
"131 63 LINE",
"43 63 LINE",
"43 0 LINE",
"371 0 LINE SMOOTH",
"465 0 OFFCURVE",
"503 56 OFFCURVE",
"503 129 CURVE SMOOTH",
"503 170 OFFCURVE",
"475 217 OFFCURVE",
"426 230 CURVE",
"457 243 OFFCURVE",
"482 282 OFFCURVE",
"482 325 CURVE SMOOTH",
"482 399 OFFCURVE",
"427 429 OFFCURVE",
"311 429 CURVE SMOOTH"
);
}
);
width = 563;
}
);
unicode = 0432;
},
{
color = 4;
glyphname = "ge-cy";
lastChange = "2016-09-21 13:10:13 +0000";
layers = (
{
layerId = UUID0;
paths = (
{
closed = 1;
nodes = (
"50 368 LINE",
"139 368 LINE",
"139 62 LINE",
"50 62 LINE",
"50 0 LINE",
"324 0 LINE",
"324 62 LINE",
"217 62 LINE",
"217 368 LINE",
"367 368 LINE",
"388 278 LINE",
"453 294 LINE",
"423 430 LINE",
"50 430 LINE"
);
}
);
width = 464;
}
);
unicode = 0433;
},
{
color = 9;
glyphname = "gheupturn-cy";
lastChange = "2016-10-24 18:02:47 +0000";
layers = (
{
anchors = (
{
name = top;
position = "{256, 700}";
}
);
layerId = UUID0;
paths = (
{
closed = 1;
nodes = (
"50 368 LINE",
"139 368 LINE",
"139 62 LINE",
"50 62 LINE",
"50 0 LINE",
"324 0 LINE",
"324 62 LINE",
"217 62 LINE",
"217 368 LINE",
"428 368 LINE",
"457 504 LINE",
"392 520 LINE",
"371 430 LINE",
"50 430 LINE"
);
}
);
width = 468;
}
);
unicode = 0491;
},
{
color = 4;
glyphname = "de-cy";
lastChange = "2016-09-21 13:10:13 +0000";
layers = (
{
layerId = UUID0;
paths = (
{
closed = 1;
nodes = (
"75 367 LINE",
"156 367 LINE",
"148 282 LINE SMOOTH",
"141 215 OFFCURVE",
"122 88 OFFCURVE",
"65 62 CURVE",
"7 62 LINE",
"7 -142 LINE",
"83 -142 LINE",
"83 0 LINE",
"475 0 LINE",
"475 -142 LINE",
"551 -142 LINE",
"551 62 LINE",
"458 62 LINE",
"458 367 LINE",
"551 367 LINE",
"551 429 LINE",
"75 429 LINE"
);
},
{
closed = 1;
nodes = (
"222 367 LINE",
"382 367 LINE",
"382 62 LINE",
"152 62 LINE",
"183 96 OFFCURVE",
"202 162 OFFCURVE",
"213 271 CURVE SMOOTH"
);
}
);
width = 596;
}
);
unicode = 0434;
},
{
color = 4;
glyphname = "io-cy";
lastChange = "2016-09-21 13:10:13 +0000";
layers = (
{
layerId = UUID0;
paths = (
{
closed = 1;
nodes = (
"239 586 OFFCURVE",
"210 615 OFFCURVE",
"177 615 CURVE SMOOTH",
"143 615 OFFCURVE",
"115 586 OFFCURVE",
"115 553 CURVE SMOOTH",
"115 519 OFFCURVE",
"143 491 OFFCURVE",
"177 491 CURVE SMOOTH",
"210 491 OFFCURVE",
"239 519 OFFCURVE",
"239 553 CURVE SMOOTH"
);
},
{
closed = 1;
nodes = (
"445 586 OFFCURVE",
"416 615 OFFCURVE",
"383 615 CURVE SMOOTH",
"349 615 OFFCURVE",
"321 586 OFFCURVE",
"321 553 CURVE SMOOTH",
"321 519 OFFCURVE",
"349 491 OFFCURVE",
"383 491 CURVE SMOOTH",
"416 491 OFFCURVE",
"445 519 OFFCURVE",
"445 553 CURVE SMOOTH"
);
},
{
closed = 1;
nodes = (
"155 -15 OFFCURVE",
"66 71 OFFCURVE",
"66 214 CURVE SMOOTH",
"66 357 OFFCURVE",
"155 443 OFFCURVE",
"284 443 CURVE SMOOTH",
"391 443 OFFCURVE",
"489 391 OFFCURVE",
"469 196 CURVE",
"147 194 LINE",
"152 101 OFFCURVE",
"199 49 OFFCURVE",
"285 49 CURVE SMOOTH",
"378 49 OFFCURVE",
"437 98 OFFCURVE",
"437 98 CURVE",
"473 51 LINE",
"473 50 OFFCURVE",
"405 -15 OFFCURVE",
"284 -15 CURVE SMOOTH"
);
},
{
closed = 1;
nodes = (
"206 379 OFFCURVE",
"160 334 OFFCURVE",
"148 256 CURVE",
"401 257 LINE",
"400 337 OFFCURVE",
"360 379 OFFCURVE",
"285 379 CURVE SMOOTH"
);
}
);
width = 525;
}
);
unicode = 0451;
},
{
color = 4;
glyphname = "zhe-cy";
lastChange = "2016-09-21 13:10:13 +0000";
layers = (
{
layerId = UUID0;
paths = (
{
closed = 1;
nodes = (
"295 366 LINE",
"340 366 LINE",
"340 243 LINE",
"264 243 LINE",
"187 367 LINE",
"238 367 LINE",
"238 429 LINE",
"28 429 LINE",
"28 367 LINE",
"111 367 LINE",
"205 218 LINE",
"108 62 LINE",
"22 62 LINE",
"22 0 LINE",
"155 0 LINE",
"267 181 LINE",
"340 181 LINE",
"340 62 LINE",
"295 62 LINE",
"295 0 LINE",
"463 0 LINE",
"463 62 LINE",
"418 62 LINE",
"418 181 LINE",
"491 181 LINE",
"603 0 LINE",
"736 0 LINE",
"736 62 LINE",
"650 62 LINE",
"553 218 LINE",
"646 367 LINE",
"730 367 LINE",
"730 429 LINE",
"520 429 LINE",
"520 367 LINE",
"571 367 LINE",
"493 243 LINE",
"418 243 LINE",
"418 366 LINE",
"463 366 LINE",
"463 428 LINE",
"295 428 LINE"
);
}
);
width = 758;
}
);
unicode = 0436;
},
{
color = 4;
glyphname = "ze-cy";
lastChange = "2016-09-21 13:10:13 +0000";
layers = (
{
layerId = UUID0;
paths = (
{
closed = 1;
nodes = (
"103 291 LINE",
"114 355 LINE",
"124 360 OFFCURVE",
"154 376 OFFCURVE",
"215 376 CURVE SMOOTH",
"269 376 OFFCURVE",
"318 368 OFFCURVE",
"318 309 CURVE SMOOTH",
"318 276 OFFCURVE",
"282 247 OFFCURVE",
"243 247 CURVE SMOOTH",
"180 247 LINE",
"180 187 LINE",
"234 187 LINE SMOOTH",
"298 187 OFFCURVE",
"340 177 OFFCURVE",
"340 130 CURVE SMOOTH",
"340 64 OFFCURVE",
"286 46 OFFCURVE",
"217 46 CURVE SMOOTH",
"141 46 OFFCURVE",
"74 101 OFFCURVE",
"74 101 CURVE",
"36 50 LINE",
"37 50 OFFCURVE",
"118 -19 OFFCURVE",
"230 -19 CURVE SMOOTH",
"331 -19 OFFCURVE",
"419 33 OFFCURVE",
"419 122 CURVE SMOOTH",
"419 201 OFFCURVE",
"356 219 OFFCURVE",
"330 222 CURVE",
"360 234 OFFCURVE",
"398 266 OFFCURVE",
"398 325 CURVE SMOOTH",
"398 420 OFFCURVE",
"296 441 OFFCURVE",
"215 441 CURVE SMOOTH",
"110 441 OFFCURVE",
"56 393 OFFCURVE",
"54 392 CURVE",
"39 303 LINE"
);
}
);
width = 471;
}
);
unicode = 0437;
},
{
color = 4;
glyphname = "ii-cy";
lastChange = "2016-09-21 13:10:13 +0000";
layers = (
{
layerId = UUID0;
paths = (
{
closed = 1;
nodes = (
"374 0 LINE",
"592 0 LINE",
"592 62 LINE",
"507 62 LINE",
"507 367 LINE",
"592 367 LINE",
"592 429 LINE",
"457 429 LINE",
"205 120 LINE",
"205 367 LINE",
"260 367 LINE",
"260 429 LINE",
"42 429 LINE",
"42 367 LINE",
"127 367 LINE",
"127 62 LINE",
"42 62 LINE",
"42 0 LINE",
"183 0 LINE",
"184 -1 LINE",
"185 0 LINE",
"429 299 LINE",
"429 62 LINE",
"374 62 LINE"
);
}
);
width = 627;
}
);
unicode = 0438;
},
{
color = 4;
glyphname = "ka-cy";
lastChange = "2016-09-21 13:10:13 +0000";
layers = (
{
layerId = UUID0;
paths = (
{
closed = 1;
nodes = (
"532 429 LINE",
"322 429 LINE",
"322 367 LINE",
"373 367 LINE",
"295 243 LINE",
"204 243 LINE",
"204 367 LINE",
"249 367 LINE",
"249 429 LINE",
"42 429 LINE",
"42 367 LINE",
"126 367 LINE",
"126 62 LINE",
"42 62 LINE",
"42 0 LINE",
"249 0 LINE",
"249 62 LINE",
"204 62 LINE",
"204 181 LINE",
"293 181 LINE",
"405 0 LINE",
"538 0 LINE",
"538 62 LINE",
"452 62 LINE",
"355 218 LINE",
"448 367 LINE",
"532 367 LINE"
);
}
);
width = 543;
}
);
unicode = 043A;
},
{
color = 4;
glyphname = "el-cy";
lastChange = "2016-09-21 13:10:13 +0000";
layers = (
{
layerId = UUID0;
paths = (
{
closed = 1;
nodes = (
"64 367 LINE",
"148 367 LINE",
"137 252 LINE SMOOTH",
"128 165 OFFCURVE",
"107 101 OFFCURVE",
"70 76 CURVE SMOOTH",
"50 63 OFFCURVE",
"18 64 OFFCURVE",
"5 64 CURVE",
"5 0 LINE",
"13 -1 OFFCURVE",
"21 -1 OFFCURVE",
"29 -1 CURVE SMOOTH",
"147 -1 OFFCURVE",
"182 99 OFFCURVE",
"197 229 CURVE SMOOTH",
"212 367 LINE",
"365 367 LINE",
"365 62 LINE",
"319 62 LINE",
"319 0 LINE",
"537 0 LINE",
"537 62 LINE",
"441 62 LINE",
"441 367 LINE",
"534 367 LINE",
"534 429 LINE",
"64 429 LINE"
);
}
);
width = 572;
}
);
unicode = 043B;
},
{
color = 4;
glyphname = "em-cy";
lastChange = "2016-09-21 13:10:13 +0000";
layers = (
{
layerId = UUID0;
paths = (
{
closed = 1;
nodes = (
"512 0 LINE",
"730 0 LINE",
"730 62 LINE",
"645 62 LINE",
"645 367 LINE",
"730 367 LINE",
"730 429 LINE",
"518 429 LINE",
"392 150 LINE",
"263 429 LINE",
"45 429 LINE",
"45 367 LINE",
"130 367 LINE",
"130 62 LINE",
"45 62 LINE",
"45 0 LINE",
"263 0 LINE",
"263 62 LINE",
"208 62 LINE",
"208 372 LINE",
"352 62 LINE",
"352 61 LINE",
"429 61 LINE",
"567 373 LINE",
"567 62 LINE",
"512 62 LINE"
);
}
);
width = 763;
}
);
unicode = 043C;
},
{
color = 4;
glyphname = "en-cy";
lastChange = "2016-09-21 13:10:13 +0000";
layers = (
{
layerId = UUID0;
paths = (
{
closed = 1;
nodes = (
"377 0 LINE",
"595 0 LINE",
"595 62 LINE",
"510 62 LINE",
"510 367 LINE",
"595 367 LINE",
"595 429 LINE",
"377 429 LINE",
"377 367 LINE",
"432 367 LINE",
"432 242 LINE",
"208 242 LINE",
"208 367 LINE",
"263 367 LINE",
"263 429 LINE",
"45 429 LINE",
"45 367 LINE",
"130 367 LINE",
"130 62 LINE",
"45 62 LINE",
"45 0 LINE",
"263 0 LINE",
"263 62 LINE",
"208 62 LINE",
"208 180 LINE",
"432 180 LINE",
"432 62 LINE",
"377 62 LINE"
);
}
);
width = 635;
}
);
unicode = 043D;
},
{
color = 4;
glyphname = "pe-cy";
lastChange = "2016-09-21 13:10:13 +0000";
layers = (
{
layerId = UUID0;
paths = (
{
closed = 1;
nodes = (
"263 62 LINE",
"208 62 LINE",
"208 367 LINE",
"422 367 LINE",
"422 62 LINE",
"367 62 LINE",
"367 0 LINE",
"585 0 LINE",
"585 62 LINE",
"500 62 LINE",
"500 367 LINE",
"585 367 LINE",
"585 429 LINE",
"45 429 LINE",
"45 367 LINE",
"130 367 LINE",
"130 62 LINE",
"45 62 LINE",
"45 0 LINE",
"263 0 LINE"
);
}
);
width = 625;
}
);
unicode = 043F;
},
{
color = 4;
glyphname = "te-cy";
lastChange = "2016-09-21 13:10:13 +0000";
layers = (
{
layerId = UUID0;
paths = (
{
closed = 1;
nodes = (
"456 278 LINE",
"456 429 LINE",
"35 429 LINE",
"35 278 LINE",
"97 278 LINE",
"97 367 LINE",
"207 367 LINE",
"207 62 LINE",
"118 62 LINE",
"118 0 LINE",
"374 0 LINE",
"374 62 LINE",
"285 62 LINE",
"285 367 LINE",
"394 367 LINE",
"394 278 LINE"
);
}
);
width = 489;
}
);
unicode = 0442;
},
{
color = 4;
glyphname = "ef-cy";
lastChange = "2016-09-21 13:10:13 +0000";
layers = (
{
layerId = UUID0;
paths = (
{
closed = 1;
nodes = (
"252 654 LINE",
"235 590 LINE",
"335 566 LINE",
"335 425 LINE",
"315 432 OFFCURVE",
"284 440 OFFCURVE",
"250 440 CURVE SMOOTH",
"150 440 OFFCURVE",
"58 371 OFFCURVE",
"58 220 CURVE SMOOTH",
"58 67 OFFCURVE",
"160 -10 OFFCURVE",
"260 -10 CURVE SMOOTH",
"294 -10 OFFCURVE",
"318 -4 OFFCURVE",
"335 2 CURVE",
"335 -147 LINE",
"235 -147 LINE",
"235 -209 LINE",
"510 -209 LINE",
"510 -147 LINE",
"413 -147 LINE",
"413 2 LINE",
"429 -4 OFFCURVE",
"454 -10 OFFCURVE",
"488 -10 CURVE SMOOTH",
"588 -10 OFFCURVE",
"690 67 OFFCURVE",
"690 220 CURVE SMOOTH",
"690 371 OFFCURVE",
"598 440 OFFCURVE",
"498 440 CURVE SMOOTH",
"463 440 OFFCURVE",
"433 432 OFFCURVE",
"413 425 CURVE",
"413 617 LINE",
"412 616 LINE",
"412 617 LINE"
);
},
{
closed = 1;
nodes = (
"610 117 OFFCURVE",
"553 53 OFFCURVE",
"474 53 CURVE SMOOTH",
"430 53 OFFCURVE",
"413 63 OFFCURVE",
"413 63 CURVE",
"413 358 LINE",
"413 358 OFFCURVE",
"437 377 OFFCURVE",
"488 377 CURVE SMOOTH",
"558 377 OFFCURVE",
"610 321 OFFCURVE",
"610 219 CURVE SMOOTH"
);
},
{
closed = 1;
nodes = (
"138 321 OFFCURVE",
"190 377 OFFCURVE",
"260 377 CURVE SMOOTH",
"315 377 OFFCURVE",
"335 358 OFFCURVE",
"335 358 CURVE",
"335 63 LINE",
"335 63 OFFCURVE",
"318 53 OFFCURVE",
"274 53 CURVE SMOOTH",
"195 53 OFFCURVE",
"138 117 OFFCURVE",
"138 219 CURVE SMOOTH"
);
}
);
width = 745;
}
);
unicode = 0444;
},
{
color = 4;
glyphname = "che-cy";
lastChange = "2016-09-21 13:10:13 +0000";
layers = (
{
layerId = UUID0;
paths = (
{
closed = 1;
nodes = (
"325 365 LINE",
"379 365 LINE",
"379 247 LINE",
"358 232 OFFCURVE",
"318 211 OFFCURVE",
"263 211 CURVE SMOOTH",
"172 211 OFFCURVE",
"168 254 OFFCURVE",
"168 322 CURVE SMOOTH",
"168 366 LINE",
"223 366 LINE",
"223 428 LINE",
"5 428 LINE",
"5 366 LINE",
"90 366 LINE",
"89 314 LINE SMOOTH",
"87 239 OFFCURVE",
"103 147 OFFCURVE",
"236 147 CURVE SMOOTH",
"306 147 OFFCURVE",
"351 168 OFFCURVE",
"379 187 CURVE",
"379 60 LINE",
"294 60 LINE",
"294 -2 LINE",
"542 -2 LINE",
"542 60 LINE",
"457 60 LINE",
"457 365 LINE",
"542 365 LINE",
"542 427 LINE",
"325 427 LINE"
);
}
);
width = 578;
}
);
unicode = 0447;
},
{
color = 4;
glyphname = "tse-cy";
lastChange = "2016-09-21 13:10:13 +0000";
layers = (
{
layerId = UUID0;
paths = (
{
closed = 1;
nodes = (
"530 -143 LINE",
"606 -143 LINE",
"606 62 LINE",
"511 62 LINE",
"511 367 LINE",
"607 367 LINE",
"607 429 LINE",
"389 429 LINE",
"389 367 LINE",
"435 367 LINE",
"435 62 LINE",
"219 62 LINE",
"219 367 LINE",
"265 367 LINE",
"265 429 LINE",
"47 429 LINE",
"47 367 LINE",
"143 367 LINE",
"143 62 LINE",
"48 62 LINE",
"48 0 LINE",
"529 0 LINE",
"530 -64 LINE"
);
}
);
width = 651;
}
);
unicode = 0446;
},
{
color = 4;
glyphname = "sha-cy";
lastChange = "2016-09-21 13:10:13 +0000";
layers = (
{
layerId = UUID0;
paths = (
{
closed = 1;
nodes = (
"770 62 LINE",
"675 62 LINE",
"675 367 LINE",
"770 367 LINE",
"770 429 LINE",
"555 429 LINE",
"555 367 LINE",
"599 367 LINE",
"599 62 LINE",
"449 62 LINE",
"449 367 LINE",
"493 367 LINE",
"493 429 LINE",
"323 429 LINE",
"323 367 LINE",
"373 367 LINE",
"373 62 LINE",
"219 62 LINE",
"219 367 LINE",
"262 367 LINE",
"262 429 LINE",
"47 429 LINE",
"47 367 LINE",
"143 367 LINE",
"143 62 LINE",
"50 62 LINE",
"50 0 LINE",
"770 0 LINE"
);
}
);
width = 814;
}
);
unicode = 0448;
},
{
color = 4;
glyphname = "shcha-cy";
lastChange = "2016-09-21 13:10:13 +0000";
layers = (
{
layerId = UUID0;
paths = (
{
closed = 1;
nodes = (
"694 -143 LINE",
"770 -143 LINE",
"770 62 LINE",
"675 62 LINE",
"675 367 LINE",
"771 367 LINE",
"771 429 LINE",
"553 429 LINE",
"553 367 LINE",
"599 367 LINE",
"599 62 LINE",
"449 62 LINE",
"449 367 LINE",
"493 367 LINE",
"493 429 LINE",
"323 429 LINE",
"323 367 LINE",
"373 367 LINE",
"373 62 LINE",
"219 62 LINE",
"219 367 LINE",
"265 367 LINE",
"265 429 LINE",
"47 429 LINE",
"47 367 LINE",
"143 367 LINE",
"143 62 LINE",
"50 62 LINE",
"50 0 LINE",
"694 0 LINE"
);
}
);
width = 816;
}
);
unicode = 0449;
},
{
color = 9;
glyphname = "dzhe-cy";
lastChange = "2016-10-24 18:02:47 +0000";
layers = (
{
anchors = (
{
name = top;
position = "{370, 700}";
}
);
layerId = UUID0;
paths = (
{
closed = 1;
nodes = (
"289 -143 LINE",
"365 -143 LINE",
"363 0 LINE",
"606 0 LINE",
"606 62 LINE",
"511 62 LINE",
"511 367 LINE",
"607 367 LINE",
"607 429 LINE",
"389 429 LINE",
"389 367 LINE",
"435 367 LINE",
"435 62 LINE",
"219 62 LINE",
"219 367 LINE",
"265 367 LINE",
"265 429 LINE",
"47 429 LINE",
"47 367 LINE",
"143 367 LINE",
"143 62 LINE",
"48 62 LINE",
"48 0 LINE",
"291 0 LINE"
);
}
);
width = 651;
}
);
unicode = 045F;
},
{
color = 4;
glyphname = "softsign-cy";
lastChange = "2016-09-21 13:10:13 +0000";
layers = (
{
layerId = UUID0;
paths = (
{
closed = 1;
nodes = (
"333 205 LINE",
"380 205 OFFCURVE",
"408 179 OFFCURVE",
"408 136 CURVE SMOOTH",
"408 88 OFFCURVE",
"377 63 OFFCURVE",
"329 63 CURVE SMOOTH",
"200 63 LINE",
"200 205 LINE"
);
},
{
closed = 1;
nodes = (
"282 429 LINE",
"45 429 LINE",
"45 367 LINE",
"122 367 LINE",
"122 63 LINE",
"45 63 LINE",
"45 0 LINE",
"346 0 LINE SMOOTH",
"440 0 OFFCURVE",
"487 62 OFFCURVE",
"487 135 CURVE SMOOTH",
"487 226 OFFCURVE",
"414 264 OFFCURVE",
"320 264 CURVE SMOOTH",
"200 264 LINE",
"200 368 LINE",
"282 368 LINE"
);
}
);
width = 517;
}
);
unicode = 044C;
},
{
color = 4;
glyphname = "hardsign-cy";
lastChange = "2016-09-21 13:10:13 +0000";
layers = (
{
layerId = UUID0;
paths = (
{
closed = 1;
nodes = (
"354 429 LINE",
"11 429 LINE",
"11 278 LINE",
"77 278 LINE",
"77 367 LINE",
"194 367 LINE",
"194 63 LINE",
"117 63 LINE",
"117 0 LINE",
"418 0 LINE SMOOTH",
"512 0 OFFCURVE",
"559 62 OFFCURVE",
"559 135 CURVE SMOOTH",
"559 226 OFFCURVE",
"486 264 OFFCURVE",
"392 264 CURVE SMOOTH",
"272 264 LINE",
"272 368 LINE",
"354 368 LINE"
);
},
{
closed = 1;
nodes = (
"405 205 LINE",
"452 205 OFFCURVE",
"480 179 OFFCURVE",
"480 136 CURVE SMOOTH",
"480 88 OFFCURVE",
"449 63 OFFCURVE",
"401 63 CURVE SMOOTH",
"272 63 LINE",
"272 205 LINE"
);
}
);
width = 589;
}
);
unicode = 044A;
},
{
color = 4;
glyphname = "yeru-cy";
lastChange = "2016-09-21 13:10:13 +0000";
layers = (
{
layerId = UUID0;
paths = (
{
closed = 1;
nodes = (
"514 367 LINE",
"569 367 LINE",
"569 62 LINE",
"524 62 LINE",
"524 0 LINE",
"732 0 LINE",
"732 62 LINE",
"647 62 LINE",
"647 367 LINE",
"732 367 LINE",
"732 429 LINE",
"514 429 LINE"
);
},
{
closed = 1;
nodes = (
"203 204 LINE",
"203 64 LINE",
"322 64 LINE SMOOTH",
"370 64 OFFCURVE",
"401 87 OFFCURVE",
"401 135 CURVE SMOOTH",
"401 178 OFFCURVE",
"373 204 OFFCURVE",
"326 204 CURVE SMOOTH"
);
},
{
closed = 1;
nodes = (
"285 368 LINE",
"203 368 LINE",
"203 263 LINE",
"313 263 LINE SMOOTH",
"407 263 OFFCURVE",
"480 225 OFFCURVE",
"480 134 CURVE SMOOTH",
"480 61 OFFCURVE",
"433 0 OFFCURVE",
"339 0 CURVE SMOOTH",
"48 0 LINE",
"48 63 LINE",
"125 64 LINE",
"125 367 LINE",
"48 367 LINE",
"48 429 LINE",
"285 429 LINE"
);
}
);
width = 775;
}
);
unicode = 044B;
},
{
color = 9;
glyphname = "lje-cy";
lastChange = "2016-10-24 18:02:47 +0000";
layers = (
{
anchors = (
{
name = top;
position = "{329, 700}";
}
);
layerId = UUID0;
paths = (
{
closed = 1;
nodes = (
"64 367 LINE",
"148 367 LINE",
"137 252 LINE SMOOTH",
"128 165 OFFCURVE",
"107 101 OFFCURVE",
"70 76 CURVE SMOOTH",
"50 63 OFFCURVE",
"18 64 OFFCURVE",
"5 64 CURVE",
"5 0 LINE",
"13 -1 OFFCURVE",
"21 -1 OFFCURVE",
"29 -1 CURVE SMOOTH",
"147 -1 OFFCURVE",
"182 99 OFFCURVE",
"197 229 CURVE SMOOTH",
"212 367 LINE",
"365 367 LINE",
"365 62 LINE",
"319 62 LINE",
"319 0 LINE",
"587 0 LINE SMOOTH",
"681 0 OFFCURVE",
"728 62 OFFCURVE",
"728 135 CURVE SMOOTH",
"728 226 OFFCURVE",
"655 264 OFFCURVE",
"561 264 CURVE SMOOTH",
"441 264 LINE",
"441 367 LINE",
"534 367 LINE",
"534 429 LINE",
"64 429 LINE"
);
},
{
closed = 1;
nodes = (
"574 205 LINE SMOOTH",
"621 205 OFFCURVE",
"649 179 OFFCURVE",
"649 136 CURVE SMOOTH",
"649 88 OFFCURVE",
"618 62 OFFCURVE",
"570 62 CURVE SMOOTH",
"441 62 LINE",
"441 205 LINE"
);
}
);
width = 764;
}
);
unicode = 0459;
},
{
color = 9;
glyphname = "nje-cy";
lastChange = "2016-10-24 18:02:47 +0000";
layers = (
{
anchors = (
{
name = top;
position = "{371, 700}";
}
);
layerId = UUID0;
paths = (
{
closed = 1;
nodes = (
"377 0 LINE",
"651 0 LINE SMOOTH",
"749 0 OFFCURVE",
"797 49 OFFCURVE",
"797 120 CURVE SMOOTH",
"797 213 OFFCURVE",
"728 240 OFFCURVE",
"626 240 CURVE SMOOTH",
"510 240 LINE",
"510 367 LINE",
"595 367 LINE",
"595 429 LINE",
"377 429 LINE",
"377 367 LINE",
"432 367 LINE",
"432 242 LINE",
"208 242 LINE",
"208 367 LINE",
"263 367 LINE",
"263 429 LINE",
"45 429 LINE",
"45 367 LINE",
"130 367 LINE",
"130 62 LINE",
"45 62 LINE",
"45 0 LINE",
"263 0 LINE",
"263 62 LINE",
"208 62 LINE",
"208 180 LINE",
"432 180 LINE",
"432 62 LINE",
"377 62 LINE"
);
},
{
closed = 1;
nodes = (
"639 180 LINE SMOOTH",
"686 180 OFFCURVE",
"718 161 OFFCURVE",
"718 121 CURVE SMOOTH",
"718 76 OFFCURVE",
"686 62 OFFCURVE",
"634 62 CURVE SMOOTH",
"510 62 LINE",
"510 180 LINE"
);
}
);
width = 832;
}
);
unicode = 045A;
},
{
color = 4;
glyphname = "e-cy";
lastChange = "2016-09-21 13:10:13 +0000";
layers = (
{
layerId = UUID0;
paths = (
{
closed = 1;
nodes = (
"414 87 LINE",
"414 87 OFFCURVE",
"348 49 OFFCURVE",
"274 49 CURVE SMOOTH",
"188 49 OFFCURVE",
"142 100 OFFCURVE",
"136 192 CURVE",
"214 188 LINE",
"307 188 LINE",
"307 250 LINE",
"211 250 LINE",
"136 246 LINE",
"143 331 OFFCURVE",
"184 379 OFFCURVE",
"274 379 CURVE SMOOTH",
"322 379 OFFCURVE",
"348 369 OFFCURVE",
"356 366 CURVE",
"369 297 LINE",
"434 311 LINE",
"413 419 LINE",
"413 419 OFFCURVE",
"366 443 OFFCURVE",
"273 443 CURVE SMOOTH",
"126 443 OFFCURVE",
"55 357 OFFCURVE",
"55 214 CURVE SMOOTH",
"55 71 OFFCURVE",
"144 -15 OFFCURVE",
"273 -15 CURVE SMOOTH",
"366 -15 OFFCURVE",
"440 28 OFFCURVE",
"440 29 CURVE"
);
}
);
width = 490;
}
);
unicode = 0454;
},
{
color = 4;
glyphname = "ereversed-cy";
lastChange = "2016-09-21 13:10:13 +0000";
layers = (
{
layerId = UUID0;
paths = (
{
closed = 1;
nodes = (
"111 297 LINE",
"124 366 LINE",
"132 369 OFFCURVE",
"158 379 OFFCURVE",
"206 379 CURVE SMOOTH",
"295 379 OFFCURVE",
"336 331 OFFCURVE",
"344 246 CURVE",
"269 250 LINE",
"173 250 LINE",
"173 188 LINE",
"266 188 LINE",
"344 192 LINE",
"338 100 OFFCURVE",
"291 49 OFFCURVE",
"206 49 CURVE SMOOTH",
"132 49 OFFCURVE",
"66 87 OFFCURVE",
"66 87 CURVE",
"40 29 LINE",
"40 28 OFFCURVE",
"114 -15 OFFCURVE",
"207 -15 CURVE SMOOTH",
"336 -15 OFFCURVE",
"425 71 OFFCURVE",
"425 214 CURVE SMOOTH",
"425 357 OFFCURVE",
"354 443 OFFCURVE",
"207 443 CURVE SMOOTH",
"114 443 OFFCURVE",
"67 419 OFFCURVE",
"67 419 CURVE",
"46 311 LINE"
);
}
);
width = 477;
}
);
unicode = 044D;
},
{
color = 4;
glyphname = "yi-cy";
lastChange = "2016-09-21 13:10:13 +0000";
layers = (
{
layerId = UUID0;
paths = (
{
closed = 1;
nodes = (
"45 367 LINE",
"128 367 LINE",
"128 62 LINE",
"45 62 LINE",
"45 0 LINE",
"289 0 LINE",
"289 62 LINE",
"206 62 LINE",
"206 429 LINE",
"45 429 LINE"
);
},
{
closed = 1;
nodes = (
"267 557 OFFCURVE",
"241 583 OFFCURVE",
"211 583 CURVE SMOOTH",
"180 583 OFFCURVE",
"155 557 OFFCURVE",
"155 527 CURVE SMOOTH",
"155 496 OFFCURVE",
"180 471 OFFCURVE",
"211 471 CURVE SMOOTH",
"241 471 OFFCURVE",
"267 496 OFFCURVE",
"267 527 CURVE SMOOTH"
);
},
{
closed = 1;
nodes = (
"127 557 OFFCURVE",
"101 583 OFFCURVE",
"71 583 CURVE SMOOTH",
"40 583 OFFCURVE",
"15 557 OFFCURVE",
"15 527 CURVE SMOOTH",
"15 496 OFFCURVE",
"40 471 OFFCURVE",
"71 471 CURVE SMOOTH",
"101 471 OFFCURVE",
"127 496 OFFCURVE",
"127 527 CURVE SMOOTH"
);
}
);
width = 325;
}
);
unicode = 0457;
},
{
color = 9;
glyphname = "tshe-cy";
lastChange = "2016-10-24 18:25:36 +0000";
layers = (
{
anchors = (
{
name = top;
position = "{350, 521}";
}
);
layerId = UUID0;
paths = (
{
closed = 1;
nodes = (
"394 62 LINE",
"349 62 LINE",
"349 0 LINE",
"556 0 LINE",
"556 62 LINE",
"472 62 LINE",
"472 214 LINE SMOOTH",
"472 326 OFFCURVE",
"431 383 OFFCURVE",
"303 383 CURVE SMOOTH",
"252 383 OFFCURVE",
"215 363 OFFCURVE",
"192 346 CURVE",
"192 445 LINE",
"267 445 LINE",
"267 507 LINE",
"192 507 LINE",
"192 598 LINE",
"40 650 LINE",
"19 588 LINE",
"114 555 LINE",
"114 507 LINE",
"30 507 LINE",
"30 445 LINE",
"114 445 LINE",
"114 62 LINE",
"30 62 LINE",
"30 0 LINE",
"237 0 LINE",
"237 62 LINE",
"192 62 LINE",
"192 285 LINE",
"192 285 OFFCURVE",
"226 319 OFFCURVE",
"298 319 CURVE SMOOTH",
"384 319 OFFCURVE",
"394 269 OFFCURVE",
"394 198 CURVE SMOOTH"
);
}
);
width = 586;
},
{
anchors = (
{
name = top;
position = "{350, 521}";
}
);
associatedMasterId = UUID0;
layerId = "E80F66DA-D220-4F36-AF20-985224ECAC7D";
name = new;
paths = (
{
closed = 1;
nodes = (
"394 62 LINE",
"349 62 LINE",
"349 0 LINE",
"556 0 LINE",
"556 62 LINE",
"472 62 LINE",
"472 214 LINE SMOOTH",
"472 326 OFFCURVE",
"431 383 OFFCURVE",
"303 383 CURVE SMOOTH",
"252 383 OFFCURVE",
"215 363 OFFCURVE",
"192 346 CURVE",
"192 445 LINE",
"347 445 LINE",
"347 507 LINE",
"192 507 LINE",
"192 598 LINE",
"40 650 LINE",
"19 588 LINE",
"114 555 LINE",
"114 507 LINE",
"30 507 LINE",
"30 445 LINE",
"114 445 LINE",
"114 62 LINE",
"30 62 LINE",
"30 0 LINE",
"237 0 LINE",
"237 62 LINE",
"192 62 LINE",
"192 285 LINE",
"192 285 OFFCURVE",
"226 319 OFFCURVE",
"298 319 CURVE SMOOTH",
"384 319 OFFCURVE",
"394 269 OFFCURVE",
"394 198 CURVE SMOOTH"
);
}
);
width = 586;
}
);
unicode = 045B;
},
{
color = 4;
glyphname = "iu-cy";
lastChange = "2016-09-21 13:10:13 +0000";
layers = (
{
layerId = UUID0;
paths = (
{
closed = 1;
nodes = (
"730 363 OFFCURVE",
"641 446 OFFCURVE",
"520 446 CURVE SMOOTH",
"407 446 OFFCURVE",
"323 374 OFFCURVE",
"311 245 CURVE",
"242 249 LINE",
"213 249 LINE",
"213 367 LINE",
"268 367 LINE",
"268 429 LINE",
"50 429 LINE",
"50 367 LINE",
"135 367 LINE",
"135 62 LINE",
"50 62 LINE",
"50 0 LINE",
"268 0 LINE",
"268 62 LINE",
"213 62 LINE",
"213 187 LINE",
"242 187 LINE",
"311 190 LINE",
"320 58 OFFCURVE",
"406 -15 OFFCURVE",
"520 -15 CURVE SMOOTH",
"641 -15 OFFCURVE",
"730 67 OFFCURVE",
"730 215 CURVE SMOOTH"
);
},
{
closed = 1;
nodes = (
"390 322 OFFCURVE",
"438 383 OFFCURVE",
"520 383 CURVE SMOOTH",
"602 383 OFFCURVE",
"650 322 OFFCURVE",
"650 216 CURVE SMOOTH",
"650 110 OFFCURVE",
"602 48 OFFCURVE",
"520 48 CURVE SMOOTH",
"438 48 OFFCURVE",
"390 110 OFFCURVE",
"390 216 CURVE SMOOTH"
);
}
);
width = 775;
}
);
unicode = 044E;
},
{
color = 4;
glyphname = "ia-cy";
lastChange = "2016-09-21 13:10:13 +0000";
layers = (
{
layerId = UUID0;
paths = (
{
closed = 1;
nodes = (
"272 429 LINE",
"142 429 OFFCURVE",
"81 374 OFFCURVE",
"81 295 CURVE SMOOTH",
"81 210 OFFCURVE",
"131 173 OFFCURVE",
"199 163 CURVE",
"127 62 LINE",
"46 62 LINE",
"45 0 LINE",
"170 0 LINE",
"276 160 LINE",
"374 160 LINE",
"374 61 LINE",
"296 61 LINE",
"296 -1 LINE",
"544 -1 LINE",
"544 61 LINE",
"450 61 LINE",
"450 367 LINE",
"544 367 LINE",
"544 429 LINE"
);
},
{
closed = 1;
nodes = (
"162 356 OFFCURVE",
"219 366 OFFCURVE",
"272 366 CURVE SMOOTH",
"374 366 LINE",
"374 220 LINE",
"269 220 LINE SMOOTH",
"207 220 OFFCURVE",
"162 242 OFFCURVE",
"162 289 CURVE SMOOTH"
);
}
);
width = 594;
}
);
unicode = 044F;
},
{
color = 4;
glyphname = "dje-cy";
lastChange = "2016-10-24 18:30:53 +0000";
layers = (
{
background = {
paths = (
{
closed = 1;
nodes = (
"420 62 LINE",
"375 62 LINE",
"375 0 LINE",
"582 0 LINE",
"582 62 LINE",
"498 62 LINE",
"498 214 LINE SMOOTH",
"498 326 OFFCURVE",
"457 383 OFFCURVE",
"329 383 CURVE SMOOTH",
"278 383 OFFCURVE",
"241 363 OFFCURVE",
"218 346 CURVE",
"218 445 LINE",
"373 445 LINE",
"373 507 LINE",
"218 507 LINE",
"218 598 LINE",
"66 650 LINE",
"45 588 LINE",
"140 555 LINE",
"140 507 LINE",
"56 507 LINE",
"56 445 LINE",
"140 445 LINE",
"140 62 LINE",
"56 62 LINE",
"56 0 LINE",
"263 0 LINE",
"263 62 LINE",
"218 62 LINE",
"218 285 LINE",
"218 285 OFFCURVE",
"252 319 OFFCURVE",
"324 319 CURVE SMOOTH",
"410 319 OFFCURVE",
"420 269 OFFCURVE",
"420 198 CURVE SMOOTH"
);
}
);
};
layerId = UUID0;
paths = (
{
closed = 1;
nodes = (
"45 588 LINE",
"140 555 LINE",
"140 507 LINE",
"56 507 LINE",
"56 445 LINE",
"140 445 LINE",
"140 62 LINE",
"56 62 LINE",
"56 0 LINE",
"263 0 LINE",
"263 62 LINE",
"218 62 LINE",
"218 285 LINE",
"246 305 OFFCURVE",
"277 319 OFFCURVE",
"324 319 CURVE SMOOTH",
"410 319 OFFCURVE",
"420 269 OFFCURVE",
"420 198 CURVE SMOOTH",
"420 64 LINE SMOOTH",
"420 11 OFFCURVE",
"412 -103 OFFCURVE",
"353 -174 CURVE SMOOTH",
"327 -205 LINE",
"375 -248 LINE",
"394 -227 LINE SMOOTH",
"456 -159 OFFCURVE",
"498 -56 OFFCURVE",
"498 118 CURVE SMOOTH",
"498 214 LINE SMOOTH",
"498 326 OFFCURVE",
"457 383 OFFCURVE",
"329 383 CURVE SMOOTH",
"278 383 OFFCURVE",
"241 363 OFFCURVE",
"218 346 CURVE",
"218 445 LINE",
"293 445 LINE",
"293 507 LINE",
"218 507 LINE",
"218 598 LINE",
"66 650 LINE"
);
}
);
width = 551;
},
{
associatedMasterId = UUID0;
background = {
paths = (
{
closed = 1;
nodes = (
"420 62 LINE",
"375 62 LINE",
"375 0 LINE",
"582 0 LINE",
"582 62 LINE",
"498 62 LINE",
"498 214 LINE SMOOTH",
"498 326 OFFCURVE",
"457 383 OFFCURVE",
"329 383 CURVE SMOOTH",
"278 383 OFFCURVE",
"241 363 OFFCURVE",
"218 346 CURVE",
"218 445 LINE",
"373 445 LINE",
"373 507 LINE",
"218 507 LINE",
"218 598 LINE",
"66 650 LINE",
"45 588 LINE",
"140 555 LINE",
"140 507 LINE",
"56 507 LINE",
"56 445 LINE",
"140 445 LINE",
"140 62 LINE",
"56 62 LINE",
"56 0 LINE",
"263 0 LINE",
"263 62 LINE",
"218 62 LINE",
"218 285 LINE",
"218 285 OFFCURVE",
"252 319 OFFCURVE",
"324 319 CURVE SMOOTH",
"410 319 OFFCURVE",
"420 269 OFFCURVE",
"420 198 CURVE SMOOTH"
);
}
);
};
layerId = "680B9569-F8FE-485B-AE70-7453DC94EC72";
name = new;
paths = (
{
closed = 1;
nodes = (
"45 588 LINE",
"140 555 LINE",
"140 507 LINE",
"56 507 LINE",
"56 445 LINE",
"140 445 LINE",
"140 62 LINE",
"56 62 LINE",
"56 0 LINE",
"263 0 LINE",
"263 62 LINE",
"218 62 LINE",
"218 285 LINE",
"218 285 OFFCURVE",
"252 319 OFFCURVE",
"324 319 CURVE SMOOTH",
"410 319 OFFCURVE",
"420 269 OFFCURVE",
"420 198 CURVE SMOOTH",
"420 124 LINE SMOOTH",
"420 -1 OFFCURVE",
"394 -72 OFFCURVE",
"323 -114 CURVE SMOOTH",
"295 -131 LINE",
"333 -183 LINE",
"364 -163 LINE SMOOTH",
"434 -119 OFFCURVE",
"498 -29 OFFCURVE",
"498 138 CURVE SMOOTH",
"498 214 LINE SMOOTH",
"498 326 OFFCURVE",
"448 383 OFFCURVE",
"336 383 CURVE SMOOTH",
"269 383 OFFCURVE",
"241 363 OFFCURVE",
"218 346 CURVE",
"218 445 LINE",
"373 445 LINE",
"373 507 LINE",
"218 507 LINE",
"218 598 LINE",
"66 650 LINE"
);
}
);
width = 551;
}
);
leftMetricsKey = "en-cy";
unicode = 0452;
},
{
color = 9;
glyphname = "yat-cy";
lastChange = "2016-10-24 18:02:47 +0000";
layers = (
{
layerId = UUID0;
paths = (
{
closed = 1;
nodes = (
"385 313 LINE",
"384 429 LINE",
"222 429 LINE",
"222 528 LINE",
"304 528 LINE",
"304 589 LINE",
"67 589 LINE",
"67 527 LINE",
"144 527 LINE",
"144 429 LINE",
"27 429 LINE",
"27 313 LINE",
"89 313 LINE",
"89 367 LINE",
"144 367 LINE",
"144 63 LINE",
"67 63 LINE",
"67 0 LINE",
"368 0 LINE SMOOTH",
"462 0 OFFCURVE",
"509 62 OFFCURVE",
"509 135 CURVE SMOOTH",
"509 226 OFFCURVE",
"436 264 OFFCURVE",
"342 264 CURVE SMOOTH",
"222 264 LINE",
"222 367 LINE",
"323 368 LINE",
"323 313 LINE"
);
},
{
closed = 1;
nodes = (
"222 203 LINE",
"355 203 LINE SMOOTH",
"402 203 OFFCURVE",
"430 179 OFFCURVE",
"430 136 CURVE SMOOTH",
"430 88 OFFCURVE",
"399 63 OFFCURVE",
"351 63 CURVE SMOOTH",
"222 63 LINE"
);
}
);
width = 539;
}
);
unicode = 0463;
},
{
color = 9;
glyphname = "yusbig-cy";
lastChange = "2016-10-24 18:02:47 +0000";
layers = (
{
background = {
paths = (
{
closed = 1;
nodes = (
"267 366 LINE",
"312 366 LINE",
"312 243 LINE",
"236 243 LINE",
"159 367 LINE",
"210 367 LINE",
"210 429 LINE",
"0 429 LINE",
"0 367 LINE",
"83 367 LINE",
"177 218 LINE",
"80 62 LINE",
"-6 62 LINE",
"-6 0 LINE",
"127 0 LINE",
"239 181 LINE",
"312 181 LINE",
"312 62 LINE",
"267 62 LINE",
"267 0 LINE",
"435 0 LINE",
"435 62 LINE",
"390 62 LINE",
"390 181 LINE",
"463 181 LINE",
"575 0 LINE",
"708 0 LINE",
"708 62 LINE",
"622 62 LINE",
"525 218 LINE",
"618 367 LINE",
"702 367 LINE",
"702 429 LINE",
"492 429 LINE",
"492 367 LINE",
"543 367 LINE",
"465 243 LINE",
"390 243 LINE",
"390 366 LINE",
"435 366 LINE",
"435 428 LINE",
"267 428 LINE"
);
}
);
};
layerId = UUID0;
paths = (
{
closed = 1;
nodes = (
"523 367 LINE",
"608 367 LINE",
"608 429 LINE",
"49 429 LINE",
"49 367 LINE",
"134 367 LINE",
"250 228 LINE",
"192 225 OFFCURVE",
"163 180 OFFCURVE",
"152 156 CURVE SMOOTH",
"107 63 LINE",
"20 63 LINE",
"20 0 LINE",
"154 -1 LINE",
"208 126 LINE SMOOTH",
"222 159 OFFCURVE",
"240 179 OFFCURVE",
"285 179 CURVE SMOOTH",
"296 179 LINE",
"296 62 LINE",
"251 62 LINE",
"251 0 LINE",
"419 0 LINE",
"419 62 LINE",
"374 62 LINE",
"374 179 LINE",
"385 179 LINE SMOOTH",
"430 179 OFFCURVE",
"448 159 OFFCURVE",
"462 126 CURVE SMOOTH",
"516 -1 LINE",
"650 0 LINE",
"650 63 LINE",
"563 63 LINE",
"518 156 LINE",
"507 181 OFFCURVE",
"477 227 OFFCURVE",
"416 228 CURVE SMOOTH",
"407 228 LINE"
);
},
{
closed = 1;
nodes = (
"231 367 LINE",
"446 367 LINE",
"338 236 LINE"
);
}
);
width = 670;
}
);
unicode = 046B;
},
{
color = 9;
glyphname = "izhitsa-cy";
lastChange = "2016-10-24 18:02:47 +0000";
layers = (
{
layerId = UUID0;
paths = (
{
closed = 1;
nodes = (
"5 367 LINE",
"88 367 LINE",
"247 0 LINE",
"328 0 LINE",
"481 343 LINE SMOOTH",
"488 359 OFFCURVE",
"494 367 OFFCURVE",
"512 367 CURVE SMOOTH",
"587 367 LINE",
"587 429 LINE",
"510 429 LINE SMOOTH",
"467 429 OFFCURVE",
"433 395 OFFCURVE",
"421 367 CURVE SMOOTH",
"295 69 LINE",
"169 367 LINE",
"215 367 LINE",
"215 429 LINE",
"5 429 LINE"
);
}
);
width = 591;
}
);
unicode = 0475;
},
{
glyphname = zero;
lastChange = "2016-09-19 16:28:09 +0000";
layers = (
{
layerId = UUID0;
paths = (
{
closed = 1;
nodes = (
"123 492 OFFCURVE",
"189 536 OFFCURVE",
"273 536 CURVE SMOOTH",
"356 536 OFFCURVE",
"422 492 OFFCURVE",
"422 294 CURVE SMOOTH",
"422 98 OFFCURVE",
"356 53 OFFCURVE",
"273 53 CURVE SMOOTH",
"189 53 OFFCURVE",
"123 98 OFFCURVE",
"123 294 CURVE SMOOTH"
);
},
{
closed = 1;
nodes = (
"508 526 OFFCURVE",
"412 604 OFFCURVE",
"272 604 CURVE SMOOTH",
"133 604 OFFCURVE",
"37 526 OFFCURVE",
"37 294 CURVE SMOOTH",
"37 64 OFFCURVE",
"133 -15 OFFCURVE",
"272 -15 CURVE SMOOTH",
"412 -15 OFFCURVE",
"508 64 OFFCURVE",
"508 294 CURVE SMOOTH"
);
}
);
width = 550;
}
);
unicode = 0030;
},
{
glyphname = one;
lastChange = "2016-09-19 16:28:09 +0000";
layers = (
{
layerId = UUID0;
paths = (
{
closed = 1;
nodes = (
"79 356 LINE",
"222 474 LINE",
"221 69 LINE",
"55 69 LINE",
"55 0 LINE",
"455 0 LINE",
"455 69 LINE",
"299 69 LINE",
"301 591 LINE",
"251 591 LINE",
"35 410 LINE"
);
}
);
width = 466;
}
);
unicode = 0031;
},
{
glyphname = two;
lastChange = "2016-09-19 16:28:09 +0000";
layers = (
{
layerId = UUID0;
paths = (
{
closed = 1;
nodes = (
"133 69 LINE",
"172 201 OFFCURVE",
"442 252 OFFCURVE",
"442 429 CURVE SMOOTH",
"442 530 OFFCURVE",
"362 604 OFFCURVE",
"232 604 CURVE SMOOTH",
"105 604 OFFCURVE",
"43 530 OFFCURVE",
"44 530 CURVE",
"101 476 LINE",
"101 476 OFFCURVE",
"151 536 OFFCURVE",
"233 536 CURVE SMOOTH",
"325 536 OFFCURVE",
"358 477 OFFCURVE",
"357 429 CURVE SMOOTH",
"355 270 OFFCURVE",
"82 248 OFFCURVE",
"35 44 CURVE",
"52 0 LINE",
"422 0 LINE",
"496 122 LINE",
"439 152 LINE",
"387 69 LINE"
);
}
);
width = 526;
}
);
unicode = 0032;
},
{
glyphname = three;
lastChange = "2016-09-19 16:28:09 +0000";
layers = (
{
layerId = UUID0;
paths = (
{
closed = 1;
nodes = (
"25 54 LINE",
"25 54 OFFCURVE",
"97 -15 OFFCURVE",
"233 -15 CURVE SMOOTH",
"391 -15 OFFCURVE",
"451 73 OFFCURVE",
"451 162 CURVE SMOOTH",
"451 247 OFFCURVE",
"392 299 OFFCURVE",
"340 309 CURVE",
"384 323 OFFCURVE",
"437 364 OFFCURVE",
"437 435 CURVE SMOOTH",
"437 537 OFFCURVE",
"352 604 OFFCURVE",
"231 604 CURVE SMOOTH",
"101 604 OFFCURVE",
"43 536 OFFCURVE",
"42 535 CURVE",
"101 481 LINE",
"103 483 OFFCURVE",
"148 536 OFFCURVE",
"229 535 CURVE SMOOTH",
"282 534 OFFCURVE",
"352 515 OFFCURVE",
"352 435 CURVE SMOOTH",
"352 364 OFFCURVE",
"307 338 OFFCURVE",
"235 338 CURVE SMOOTH",
"167 338 LINE",
"167 269 LINE",
"213 269 LINE SMOOTH",
"263 269 OFFCURVE",
"366 273 OFFCURVE",
"366 161 CURVE SMOOTH",
"366 102 OFFCURVE",
"322 54 OFFCURVE",
"236 54 CURVE SMOOTH",
"140 54 OFFCURVE",
"77 111 OFFCURVE",
"76 111 CURVE"
);
}
);
width = 511;
}
);
unicode = 0033;
},
{
glyphname = four;
lastChange = "2016-09-19 16:28:09 +0000";
layers = (
{
layerId = UUID0;
paths = (
{
closed = 1;
nodes = (
"504 165 LINE",
"504 234 LINE",
"409 233 LINE",
"410 502 LINE",
"330 502 LINE",
"330 233 LINE",
"127 233 LINE",
"127 235 OFFCURVE",
"240 468 OFFCURVE",
"296 585 CURVE",
"230 622 LINE",
"40 202 LINE",
"41 165 LINE",
"330 165 LINE",
"330 69 LINE",
"225 69 LINE",
"225 0 LINE",
"500 0 LINE",
"500 69 LINE",
"409 69 LINE",
"409 165 LINE"
);
}
);
width = 559;
}
);
unicode = 0034;
},
{
glyphname = five;
lastChange = "2016-09-19 16:28:09 +0000";
layers = (
{
layerId = UUID0;
paths = (
{
closed = 1;
nodes = (
"74 589 LINE",
"74 294 LINE",
"120 272 LINE",
"120 273 LINE",
"124 277 OFFCURVE",
"162 321 OFFCURVE",
"252 321 CURVE SMOOTH",
"309 321 OFFCURVE",
"367 290 OFFCURVE",
"367 202 CURVE SMOOTH",
"367 91 OFFCURVE",
"303 53 OFFCURVE",
"236 53 CURVE SMOOTH",
"150 53 OFFCURVE",
"99 101 OFFCURVE",
"98 101 CURVE",
"50 46 LINE",
"50 46 OFFCURVE",
"117 -15 OFFCURVE",
"233 -15 CURVE SMOOTH",
"379 -15 OFFCURVE",
"452 83 OFFCURVE",
"452 203 CURVE SMOOTH",
"452 282 OFFCURVE",
"400 389 OFFCURVE",
"252 389 CURVE SMOOTH",
"209 389 OFFCURVE",
"177 376 OFFCURVE",
"155 360 CURVE",
"155 519 LINE",
"420 519 LINE",
"420 589 LINE"
);
}
);
width = 497;
}
);
unicode = 0035;
},
{
glyphname = six;
lastChange = "2016-09-19 16:28:09 +0000";
layers = (
{
layerId = UUID0;
paths = (
{
closed = 1;
nodes = (
"387 538 OFFCURVE",
"451 501 OFFCURVE",
"452 502 CURVE SMOOTH",
"489 560 LINE",
"489 560 OFFCURVE",
"424 606 OFFCURVE",
"335 606 CURVE SMOOTH",
"173 606 OFFCURVE",
"70 466 OFFCURVE",
"70 293 CURVE SMOOTH",
"70 97 OFFCURVE",
"145 -15 OFFCURVE",
"300 -15 CURVE SMOOTH",
"476 -15 OFFCURVE",
"517 107 OFFCURVE",
"517 177 CURVE SMOOTH",
"517 328 OFFCURVE",
"418 369 OFFCURVE",
"317 369 CURVE SMOOTH",
"242 369 OFFCURVE",
"183 332 OFFCURVE",
"157 297 CURVE",
"160 404 OFFCURVE",
"198 538 OFFCURVE",
"337 538 CURVE SMOOTH"
);
},
{
closed = 1;
nodes = (
"397 301 OFFCURVE",
"435 255 OFFCURVE",
"435 177 CURVE SMOOTH",
"435 119 OFFCURVE",
"394 53 OFFCURVE",
"307 53 CURVE SMOOTH",
"240 53 OFFCURVE",
"171 76 OFFCURVE",
"159 230 CURVE",
"183 275 OFFCURVE",
"243 301 OFFCURVE",
"317 301 CURVE SMOOTH"
);
}
);
width = 582;
}
);
unicode = 0036;
},
{
glyphname = seven;
lastChange = "2016-09-19 16:28:09 +0000";
layers = (
{
layerId = UUID0;
paths = (
{
closed = 1;
nodes = (
"74 458 LINE",
"88 520 LINE",
"346 520 LINE",
"217 332 OFFCURVE",
"155 150 OFFCURVE",
"136 0 CURVE",
"230 0 LINE",
"239 142 OFFCURVE",
"287 357 OFFCURVE",
"434 546 CURVE",
"434 589 LINE",
"27 589 LINE",
"5 473 LINE"
);
}
);
width = 445;
}
);
unicode = 0037;
},
{
glyphname = eight;
lastChange = "2016-09-19 16:28:09 +0000";
layers = (
{
layerId = UUID0;
paths = (
{
closed = 1;
nodes = (
"160 604 OFFCURVE",
"71 544 OFFCURVE",
"71 435 CURVE SMOOTH",
"71 379 OFFCURVE",
"107 321 OFFCURVE",
"171 304 CURVE",
"107 294 OFFCURVE",
"60 233 OFFCURVE",
"60 163 CURVE SMOOTH",
"60 44 OFFCURVE",
"159 -15 OFFCURVE",
"268 -15 CURVE SMOOTH",
"377 -15 OFFCURVE",
"476 44 OFFCURVE",
"476 163 CURVE SMOOTH",
"476 233 OFFCURVE",
"429 294 OFFCURVE",
"365 304 CURVE",
"429 321 OFFCURVE",
"465 379 OFFCURVE",
"465 435 CURVE SMOOTH",
"465 544 OFFCURVE",
"376 604 OFFCURVE",
"267 604 CURVE SMOOTH"
);
},
{
closed = 1;
nodes = (
"196 53 OFFCURVE",
"146 99 OFFCURVE",
"146 163 CURVE SMOOTH",
"146 223 OFFCURVE",
"186 270 OFFCURVE",
"268 270 CURVE SMOOTH",
"350 270 OFFCURVE",
"390 223 OFFCURVE",
"390 163 CURVE SMOOTH",
"390 99 OFFCURVE",
"340 53 OFFCURVE",
"268 53 CURVE SMOOTH"
);
},
{
closed = 1;
nodes = (
"197 334 OFFCURVE",
"156 377 OFFCURVE",
"156 435 CURVE SMOOTH",
"156 492 OFFCURVE",
"197 536 OFFCURVE",
"268 536 CURVE SMOOTH",
"339 536 OFFCURVE",
"380 492 OFFCURVE",
"380 435 CURVE SMOOTH",
"380 377 OFFCURVE",
"339 334 OFFCURVE",
"268 334 CURVE SMOOTH"
);
}
);
width = 531;
}
);
unicode = 0038;
},
{
glyphname = nine;
lastChange = "2016-09-19 16:28:09 +0000";
layers = (
{
layerId = UUID0;
paths = (
{
closed = 1;
nodes = (
"185 53 OFFCURVE",
"121 90 OFFCURVE",
"120 89 CURVE SMOOTH",
"83 31 LINE",
"83 31 OFFCURVE",
"148 -15 OFFCURVE",
"245 -15 CURVE SMOOTH",
"352 -15 OFFCURVE",
"502 41 OFFCURVE",
"502 298 CURVE SMOOTH",
"502 494 OFFCURVE",
"427 606 OFFCURVE",
"272 606 CURVE SMOOTH",
"96 606 OFFCURVE",
"55 482 OFFCURVE",
"55 408 CURVE SMOOTH",
"55 241 OFFCURVE",
"154 192 OFFCURVE",
"255 192 CURVE SMOOTH",
"329 192 OFFCURVE",
"387 232 OFFCURVE",
"414 268 CURVE",
"409 168 OFFCURVE",
"383 53 OFFCURVE",
"252 53 CURVE SMOOTH"
);
},
{
closed = 1;
nodes = (
"175 260 OFFCURVE",
"137 324 OFFCURVE",
"137 396 CURVE SMOOTH",
"137 474 OFFCURVE",
"178 538 OFFCURVE",
"265 538 CURVE SMOOTH",
"334 538 OFFCURVE",
"405 512 OFFCURVE",
"414 344 CURVE",
"392 295 OFFCURVE",
"339 260 OFFCURVE",
"255 260 CURVE SMOOTH"
);
}
);
width = 565;
}
);
unicode = 0039;
},
{
glyphname = one.sansSerifBlackCircled;
lastChange = "2016-09-19 16:28:09 +0000";
layers = (
{
layerId = UUID0;
paths = (
{
closed = 1;
nodes = (
"192 181 OFFCURVE",
"229 155 OFFCURVE",
"277 155 CURVE SMOOTH",
"324 155 OFFCURVE",
"361 181 OFFCURVE",
"361 294 CURVE SMOOTH",
"361 409 OFFCURVE",
"324 434 OFFCURVE",
"277 434 CURVE SMOOTH",
"229 434 OFFCURVE",
"192 409 OFFCURVE",
"192 294 CURVE SMOOTH"
);
},
{
closed = 1;
nodes = (
"423 152 OFFCURVE",
"363 104 OFFCURVE",
"276 104 CURVE SMOOTH",
"190 104 OFFCURVE",
"130 152 OFFCURVE",
"130 294 CURVE SMOOTH",
"130 437 OFFCURVE",
"190 485 OFFCURVE",
"276 485 CURVE SMOOTH",
"363 485 OFFCURVE",
"423 437 OFFCURVE",
"423 294 CURVE SMOOTH"
);
},
{
closed = 1;
nodes = (
"22 143 OFFCURVE",
"123 31 OFFCURVE",
"272 31 CURVE SMOOTH",
"421 31 OFFCURVE",
"526 143 OFFCURVE",
"526 288 CURVE SMOOTH",
"526 438 OFFCURVE",
"421 555 OFFCURVE",
"272 555 CURVE SMOOTH",
"123 555 OFFCURVE",
"22 438 OFFCURVE",
"22 288 CURVE SMOOTH"
);
}
);
width = 581;
}
);
unicode = 278A;
},
{
glyphname = two.sansSerifBlackCircled;
lastChange = "2016-09-19 16:28:09 +0000";
layers = (
{
layerId = UUID0;
paths = (
{
closed = 1;
nodes = (
"141 381 LINE",
"276 494 LINE",
"313 494 LINE",
"311 179 LINE",
"405 179 LINE",
"405 129 LINE",
"155 129 LINE",
"155 179 LINE",
"255 179 LINE",
"255 409 LINE",
"173 341 LINE"
);
},
{
closed = 1;
nodes = (
"22 143 OFFCURVE",
"123 31 OFFCURVE",
"272 31 CURVE SMOOTH",
"421 31 OFFCURVE",
"526 143 OFFCURVE",
"526 288 CURVE SMOOTH",
"526 438 OFFCURVE",
"421 555 OFFCURVE",
"272 555 CURVE SMOOTH",
"123 555 OFFCURVE",
"22 438 OFFCURVE",
"22 288 CURVE SMOOTH"
);
}
);
width = 581;
}
);
unicode = 278B;
},
{
glyphname = three.sansSerifBlackCircled;
lastChange = "2016-09-19 16:28:09 +0000";
layers = (
{
layerId = UUID0;
paths = (
{
closed = 1;
nodes = (
"354 169 LINE",
"388 224 LINE",
"431 201 LINE",
"382 122 LINE",
"153 122 LINE",
"142 152 LINE",
"157 217 OFFCURVE",
"209 254 OFFCURVE",
"254 285 CURVE SMOOTH",
"295 314 OFFCURVE",
"335 342 OFFCURVE",
"335 384 CURVE SMOOTH",
"335 411 OFFCURVE",
"317 443 OFFCURVE",
"266 443 CURVE SMOOTH",
"219 443 OFFCURVE",
"187 404 OFFCURVE",
"187 404 CURVE",
"153 440 LINE",
"153 440 OFFCURVE",
"189 494 OFFCURVE",
"265 494 CURVE SMOOTH",
"346 494 OFFCURVE",
"396 448 OFFCURVE",
"396 384 CURVE SMOOTH",
"396 321 OFFCURVE",
"343 284 OFFCURVE",
"293 250 CURVE SMOOTH",
"257 226 OFFCURVE",
"221 199 OFFCURVE",
"210 169 CURVE"
);
},
{
closed = 1;
nodes = (
"22 143 OFFCURVE",
"123 31 OFFCURVE",
"272 31 CURVE SMOOTH",
"421 31 OFFCURVE",
"526 143 OFFCURVE",
"526 288 CURVE SMOOTH",
"526 438 OFFCURVE",
"421 555 OFFCURVE",
"272 555 CURVE SMOOTH",
"123 555 OFFCURVE",
"22 438 OFFCURVE",
"22 288 CURVE SMOOTH"
);
}
);
width = 581;
}
);
unicode = 278C;
},
{
glyphname = four.sansSerifBlackCircled;
lastChange = "2016-09-19 16:28:09 +0000";
layers = (
{
layerId = UUID0;
paths = (
{
closed = 1;
nodes = (
"185 196 LINE",
"185 196 OFFCURVE",
"225 160 OFFCURVE",
"281 160 CURVE SMOOTH",
"329 160 OFFCURVE",
"354 187 OFFCURVE",
"354 219 CURVE SMOOTH",
"354 282 OFFCURVE",
"295 279 OFFCURVE",
"267 279 CURVE SMOOTH",
"234 279 LINE",
"234 331 LINE",
"280 331 LINE SMOOTH",
"320 331 OFFCURVE",
"345 345 OFFCURVE",
"345 384 CURVE SMOOTH",
"345 428 OFFCURVE",
"306 438 OFFCURVE",
"277 439 CURVE",
"230 439 OFFCURVE",
"202 404 OFFCURVE",
"201 402 CURVE",
"157 445 LINE",
"165 453 OFFCURVE",
"205 490 OFFCURVE",
"278 490 CURVE SMOOTH",
"353 490 OFFCURVE",
"406 448 OFFCURVE",
"406 384 CURVE SMOOTH",
"406 346 OFFCURVE",
"383 320 OFFCURVE",
"359 308 CURVE",
"388 297 OFFCURVE",
"415 267 OFFCURVE",
"415 220 CURVE SMOOTH",
"415 164 OFFCURVE",
"378 109 OFFCURVE",
"279 109 CURVE SMOOTH",
"195 109 OFFCURVE",
"147 155 OFFCURVE",
"147 155 CURVE"
);
},
{
closed = 1;
nodes = (
"22 143 OFFCURVE",
"123 31 OFFCURVE",
"272 31 CURVE SMOOTH",
"421 31 OFFCURVE",
"526 143 OFFCURVE",
"526 288 CURVE SMOOTH",
"526 438 OFFCURVE",
"421 555 OFFCURVE",
"272 555 CURVE SMOOTH",
"123 555 OFFCURVE",
"22 438 OFFCURVE",
"22 288 CURVE SMOOTH"
);
}
);
width = 581;
}
);
unicode = 278D;
},
{
glyphname = five.sansSerifBlackCircled;
lastChange = "2016-09-19 16:28:09 +0000";
layers = (
{
layerId = UUID0;
paths = (
{
closed = 1;
nodes = (
"356 217 LINE",
"356 166 LINE",
"411 166 LINE",
"411 118 LINE",
"236 118 LINE",
"236 166 LINE",
"299 166 LINE",
"299 217 LINE",
"125 217 LINE",
"125 247 LINE",
"241 504 LINE",
"290 475 LINE",
"219 328 LINE",
"190 265 LINE",
"299 265 LINE",
"299 430 LINE",
"357 430 LINE",
"356 265 LINE",
"413 266 LINE",
"413 217 LINE"
);
},
{
closed = 1;
nodes = (
"22 143 OFFCURVE",
"123 31 OFFCURVE",
"272 31 CURVE SMOOTH",
"421 31 OFFCURVE",
"526 143 OFFCURVE",
"526 288 CURVE SMOOTH",
"526 438 OFFCURVE",
"421 555 OFFCURVE",
"272 555 CURVE SMOOTH",
"123 555 OFFCURVE",
"22 438 OFFCURVE",
"22 288 CURVE SMOOTH"
);
}
);
width = 581;
}
);
unicode = 278E;
},
{
glyphname = six.sansSerifBlackCircled;
lastChange = "2016-09-19 16:28:09 +0000";
layers = (
{
layerId = UUID0;
paths = (
{
closed = 1;
nodes = (
"389 478 LINE",
"389 430 LINE",
"230 430 LINE",
"230 344 LINE",
"243 352 OFFCURVE",
"260 358 OFFCURVE",
"284 358 CURVE SMOOTH",
"376 358 OFFCURVE",
"409 291 OFFCURVE",
"409 242 CURVE SMOOTH",
"409 167 OFFCURVE",
"363 106 OFFCURVE",
"272 106 CURVE SMOOTH",
"201 106 OFFCURVE",
"154 147 OFFCURVE",
"154 147 CURVE",
"192 186 LINE",
"200 181 OFFCURVE",
"230 157 OFFCURVE",
"274 157 CURVE SMOOTH",
"311 157 OFFCURVE",
"348 178 OFFCURVE",
"348 241 CURVE SMOOTH",
"348 290 OFFCURVE",
"316 307 OFFCURVE",
"284 307 CURVE SMOOTH",
"238 307 OFFCURVE",
"214 285 OFFCURVE",
"205 277 CURVE",
"172 292 LINE",
"172 478 LINE"
);
},
{
closed = 1;
nodes = (
"22 143 OFFCURVE",
"123 31 OFFCURVE",
"272 31 CURVE SMOOTH",
"421 31 OFFCURVE",
"526 143 OFFCURVE",
"526 288 CURVE SMOOTH",
"526 438 OFFCURVE",
"421 555 OFFCURVE",
"272 555 CURVE SMOOTH",
"123 555 OFFCURVE",
"22 438 OFFCURVE",
"22 288 CURVE SMOOTH"
);
}
);
width = 581;
}
);
unicode = 278F;
},
{
glyphname = seven.sansSerifBlackCircled;
lastChange = "2016-09-19 16:28:09 +0000";
layers = (
{
layerId = UUID0;
paths = (
{
closed = 1;
nodes = (
"219 438 OFFCURVE",
"194 371 OFFCURVE",
"191 311 CURVE",
"210 331 OFFCURVE",
"239 347 OFFCURVE",
"282 347 CURVE SMOOTH",
"344 347 OFFCURVE",
"407 321 OFFCURVE",
"407 226 CURVE SMOOTH",
"407 182 OFFCURVE",
"381 106 OFFCURVE",
"271 106 CURVE SMOOTH",
"175 106 OFFCURVE",
"128 175 OFFCURVE",
"128 296 CURVE SMOOTH",
"128 403 OFFCURVE",
"192 489 OFFCURVE",
"292 489 CURVE SMOOTH",
"347 489 OFFCURVE",
"392 457 OFFCURVE",
"392 457 CURVE",
"363 415 LINE",
"363 415 OFFCURVE",
"360 417 OFFCURVE",
"358 418 CURVE SMOOTH",
"347 424 OFFCURVE",
"318 438 OFFCURVE",
"294 438 CURVE SMOOTH"
);
},
{
closed = 1;
nodes = (
"242 296 OFFCURVE",
"207 282 OFFCURVE",
"192 259 CURVE",
"200 176 OFFCURVE",
"239 157 OFFCURVE",
"276 157 CURVE SMOOTH",
"325 157 OFFCURVE",
"347 194 OFFCURVE",
"347 226 CURVE SMOOTH",
"347 270 OFFCURVE",
"327 296 OFFCURVE",
"282 296 CURVE SMOOTH"
);
},
{
closed = 1;
nodes = (
"22 143 OFFCURVE",
"123 31 OFFCURVE",
"272 31 CURVE SMOOTH",
"421 31 OFFCURVE",
"526 143 OFFCURVE",
"526 288 CURVE SMOOTH",
"526 438 OFFCURVE",
"421 555 OFFCURVE",
"272 555 CURVE SMOOTH",
"123 555 OFFCURVE",
"22 438 OFFCURVE",
"22 288 CURVE SMOOTH"
);
}
);
width = 581;
}
);
unicode = 2790;
},
{
glyphname = eight.sansSerifBlackCircled;
lastChange = "2016-09-19 16:28:09 +0000";
layers = (
{
layerId = UUID0;
paths = (
{
closed = 1;
nodes = (
"147 382 LINE",
"162 460 LINE",
"415 460 LINE",
"415 427 LINE",
"327 315 OFFCURVE",
"298 182 OFFCURVE",
"293 95 CURVE",
"225 95 LINE",
"238 188 OFFCURVE",
"272 297 OFFCURVE",
"348 409 CURVE",
"206 409 LINE",
"198 371 LINE"
);
},
{
closed = 1;
nodes = (
"22 143 OFFCURVE",
"123 31 OFFCURVE",
"272 31 CURVE SMOOTH",
"421 31 OFFCURVE",
"526 143 OFFCURVE",
"526 288 CURVE SMOOTH",
"526 438 OFFCURVE",
"421 555 OFFCURVE",
"272 555 CURVE SMOOTH",
"123 555 OFFCURVE",
"22 438 OFFCURVE",
"22 288 CURVE SMOOTH"
);
}
);
width = 581;
}
);
unicode = 2791;
},
{
glyphname = nine.sansSerifBlackCircled;
lastChange = "2016-09-19 16:28:09 +0000";
layers = (
{
layerId = UUID0;
paths = (
{
closed = 1;
nodes = (
"347 485 OFFCURVE",
"402 447 OFFCURVE",
"402 379 CURVE SMOOTH",
"402 348 OFFCURVE",
"385 315 OFFCURVE",
"354 300 CURVE",
"386 287 OFFCURVE",
"409 254 OFFCURVE",
"409 216 CURVE SMOOTH",
"409 141 OFFCURVE",
"347 104 OFFCURVE",
"279 104 CURVE SMOOTH",
"211 104 OFFCURVE",
"149 141 OFFCURVE",
"149 216 CURVE SMOOTH",
"149 256 OFFCURVE",
"168 289 OFFCURVE",
"203 300 CURVE",
"167 313 OFFCURVE",
"156 346 OFFCURVE",
"156 379 CURVE SMOOTH",
"156 447 OFFCURVE",
"211 485 OFFCURVE",
"278 485 CURVE SMOOTH"
);
},
{
closed = 1;
nodes = (
"319 155 OFFCURVE",
"347 180 OFFCURVE",
"347 216 CURVE SMOOTH",
"347 249 OFFCURVE",
"325 275 OFFCURVE",
"279 275 CURVE SMOOTH",
"233 275 OFFCURVE",
"211 249 OFFCURVE",
"211 216 CURVE SMOOTH",
"211 180 OFFCURVE",
"239 155 OFFCURVE",
"279 155 CURVE SMOOTH"
);
},
{
closed = 1;
nodes = (
"319 323 OFFCURVE",
"341 347 OFFCURVE",
"341 379 CURVE SMOOTH",
"341 410 OFFCURVE",
"319 434 OFFCURVE",
"279 434 CURVE SMOOTH",
"239 434 OFFCURVE",
"217 410 OFFCURVE",
"217 379 CURVE SMOOTH",
"217 347 OFFCURVE",
"239 323 OFFCURVE",
"279 323 CURVE SMOOTH"
);
},
{
closed = 1;
nodes = (
"22 143 OFFCURVE",
"123 31 OFFCURVE",
"272 31 CURVE SMOOTH",
"421 31 OFFCURVE",
"526 143 OFFCURVE",
"526 288 CURVE SMOOTH",
"526 438 OFFCURVE",
"421 555 OFFCURVE",
"272 555 CURVE SMOOTH",
"123 555 OFFCURVE",
"22 438 OFFCURVE",
"22 288 CURVE SMOOTH"
);
}
);
width = 581;
}
);
unicode = 2792;
},
{
glyphname = one_zero.sansSerifBlackCircled;
lastChange = "2016-09-19 16:28:09 +0000";
layers = (
{
layerId = UUID0;
paths = (
{
closed = 1;
nodes = (
"337 161 OFFCURVE",
"355 216 OFFCURVE",
"360 269 CURVE",
"341 251 OFFCURVE",
"309 234 OFFCURVE",
"271 234 CURVE SMOOTH",
"208 234 OFFCURVE",
"146 265 OFFCURVE",
"146 369 CURVE SMOOTH",
"146 415 OFFCURVE",
"172 493 OFFCURVE",
"282 493 CURVE SMOOTH",
"378 493 OFFCURVE",
"425 424 OFFCURVE",
"425 303 CURVE SMOOTH",
"425 145 OFFCURVE",
"332 110 OFFCURVE",
"265 110 CURVE SMOOTH",
"206 110 OFFCURVE",
"161 142 OFFCURVE",
"161 142 CURVE",
"191 184 LINE",
"191 182 OFFCURVE",
"240 161 OFFCURVE",
"270 161 CURVE SMOOTH"
);
},
{
closed = 1;
nodes = (
"315 285 OFFCURVE",
"348 308 OFFCURVE",
"361 332 CURVE",
"357 429 OFFCURVE",
"317 442 OFFCURVE",
"277 442 CURVE SMOOTH",
"228 442 OFFCURVE",
"206 406 OFFCURVE",
"206 362 CURVE SMOOTH",
"206 322 OFFCURVE",
"226 285 OFFCURVE",
"271 285 CURVE SMOOTH"
);
},
{
closed = 1;
nodes = (
"22 143 OFFCURVE",
"123 31 OFFCURVE",
"272 31 CURVE SMOOTH",
"421 31 OFFCURVE",
"526 143 OFFCURVE",
"526 288 CURVE SMOOTH",
"526 438 OFFCURVE",
"421 555 OFFCURVE",
"272 555 CURVE SMOOTH",
"123 555 OFFCURVE",
"22 438 OFFCURVE",
"22 288 CURVE SMOOTH"
);
}
);
width = 581;
}
);
unicode = 2793;
},
{
glyphname = zero.onum;
lastChange = "2016-09-19 16:28:09 +0000";
layers = (
{
layerId = UUID0;
paths = (
{
closed = 1;
nodes = (
"55 75 OFFCURVE",
"165 -25 OFFCURVE",
"302 -25 CURVE SMOOTH",
"440 -25 OFFCURVE",
"551 75 OFFCURVE",
"551 212 CURVE SMOOTH",
"551 349 OFFCURVE",
"440 451 OFFCURVE",
"302 451 CURVE SMOOTH",
"165 451 OFFCURVE",
"55 349 OFFCURVE",
"55 212 CURVE SMOOTH"
);
},
{
closed = 1;
nodes = (
"135 306 OFFCURVE",
"208 383 OFFCURVE",
"302 383 CURVE SMOOTH",
"397 383 OFFCURVE",
"471 306 OFFCURVE",
"471 212 CURVE SMOOTH",
"471 118 OFFCURVE",
"397 43 OFFCURVE",
"302 43 CURVE SMOOTH",
"208 43 OFFCURVE",
"135 118 OFFCURVE",
"135 212 CURVE SMOOTH"
);
}
);
width = 606;
}
);
},
{
glyphname = one.onum;
lastChange = "2016-09-19 16:28:09 +0000";
layers = (
{
layerId = UUID0;
paths = (
{
closed = 1;
nodes = (
"50 360 LINE",
"147 360 LINE",
"146 69 LINE",
"50 69 LINE",
"50 0 LINE",
"320 0 LINE",
"320 69 LINE",
"224 69 LINE",
"225 360 LINE",
"321 360 LINE",
"321 429 LINE",
"50 429 LINE"
);
}
);
width = 366;
}
);
},
{
glyphname = two.onum;
lastChange = "2016-09-19 16:28:09 +0000";
layers = (
{
layerId = UUID0;
paths = (
{
closed = 1;
nodes = (
"61 0 LINE",
"423 0 LINE",
"423 64 LINE",
"224 64 LINE",
"246 81 OFFCURVE",
"268 99 OFFCURVE",
"289 114 CURVE SMOOTH",
"370 172 OFFCURVE",
"412 223 OFFCURVE",
"412 291 CURVE SMOOTH",
"412 361 OFFCURVE",
"361 445 OFFCURVE",
"223 445 CURVE SMOOTH",
"98 445 OFFCURVE",
"50 353 OFFCURVE",
"50 354 CURVE",
"104 311 LINE",
"113 322 OFFCURVE",
"156 377 OFFCURVE",
"223 377 CURVE SMOOTH",
"307 377 OFFCURVE",
"328 328 OFFCURVE",
"328 291 CURVE SMOOTH",
"328 238 OFFCURVE",
"307 214 OFFCURVE",
"237 163 CURVE SMOOTH",
"188 127 OFFCURVE",
"114 68 OFFCURVE",
"61 36 CURVE"
);
}
);
width = 478;
}
);
},
{
glyphname = three.onum;
lastChange = "2016-09-19 16:28:09 +0000";
layers = (
{
layerId = UUID0;
paths = (
{
closed = 1;
nodes = (
"50 -171 LINE",
"50 -171 OFFCURVE",
"112 -213 OFFCURVE",
"212 -213 CURVE SMOOTH",
"370 -213 OFFCURVE",
"463 -103 OFFCURVE",
"464 3 CURVE SMOOTH",
"465 85 OFFCURVE",
"400 138 OFFCURVE",
"342 147 CURVE",
"403 185 OFFCURVE",
"440 223 OFFCURVE",
"440 288 CURVE SMOOTH",
"440 389 OFFCURVE",
"362 445 OFFCURVE",
"231 445 CURVE SMOOTH",
"112 445 OFFCURVE",
"51 378 OFFCURVE",
"50 377 CURVE",
"94 327 LINE",
"96 329 OFFCURVE",
"149 381 OFFCURVE",
"229 381 CURVE SMOOTH",
"304 381 OFFCURVE",
"356 356 OFFCURVE",
"356 276 CURVE SMOOTH",
"356 228 OFFCURVE",
"322 189 OFFCURVE",
"252 175 CURVE SMOOTH",
"194 163 LINE",
"208 94 LINE",
"243 101 LINE SMOOTH",
"259 105 OFFCURVE",
"279 107 OFFCURVE",
"298 105 CURVE SMOOTH",
"356 100 OFFCURVE",
"380 67 OFFCURVE",
"380 2 CURVE SMOOTH",
"380 -76 OFFCURVE",
"330 -149 OFFCURVE",
"210 -149 CURVE SMOOTH",
"150 -149 OFFCURVE",
"87 -111 OFFCURVE",
"86 -111 CURVE"
);
}
);
width = 525;
}
);
},
{
glyphname = four.onum;
lastChange = "2016-09-19 16:28:09 +0000";
layers = (
{
layerId = UUID0;
paths = (
{
closed = 1;
nodes = (
"6 8 LINE",
"286 8 LINE",
"286 -160 LINE",
"365 -160 LINE",
"365 8 LINE",
"444 8 LINE",
"444 68 LINE",
"365 68 LINE",
"366 429 LINE",
"293 429 LINE",
"293 427 LINE",
"6 51 LINE",
"6 9 LINE",
"7 9 LINE"
);
},
{
closed = 1;
nodes = (
"92 68 LINE",
"286 321 LINE",
"286 68 LINE"
);
}
);
width = 484;
}
);
},
{
glyphname = five.onum;
lastChange = "2016-09-19 16:28:09 +0000";
layers = (
{
layerId = UUID0;
paths = (
{
closed = 1;
nodes = (
"106 431 LINE",
"80 136 LINE",
"120 114 LINE",
"120 115 LINE",
"123 119 OFFCURVE",
"152 155 OFFCURVE",
"242 155 CURVE SMOOTH",
"299 155 OFFCURVE",
"366 122 OFFCURVE",
"366 15 CURVE SMOOTH",
"366 -102 OFFCURVE",
"308 -154 OFFCURVE",
"226 -154 CURVE SMOOTH",
"139 -154 OFFCURVE",
"83 -120 OFFCURVE",
"82 -120 CURVE",
"50 -178 LINE",
"50 -178 OFFCURVE",
"107 -219 OFFCURVE",
"223 -219 CURVE SMOOTH",
"362 -219 OFFCURVE",
"450 -134 OFFCURVE",
"450 16 CURVE SMOOTH",
"450 133 OFFCURVE",
"390 219 OFFCURVE",
"242 219 CURVE SMOOTH",
"207 219 OFFCURVE",
"181 212 OFFCURVE",
"162 202 CURVE",
"169 361 LINE",
"410 361 LINE",
"410 431 LINE"
);
}
);
width = 505;
}
);
},
{
glyphname = six.onum;
lastChange = "2016-09-19 16:28:09 +0000";
layers = (
{
layerId = UUID0;
paths = (
{
closed = 1;
nodes = (
"406 567 OFFCURVE",
"455 536 OFFCURVE",
"456 537 CURVE SMOOTH",
"493 595 LINE",
"493 595 OFFCURVE",
"441 635 OFFCURVE",
"335 635 CURVE SMOOTH",
"173 635 OFFCURVE",
"70 478 OFFCURVE",
"70 305 CURVE SMOOTH",
"70 109 OFFCURVE",
"145 -15 OFFCURVE",
"300 -15 CURVE SMOOTH",
"476 -15 OFFCURVE",
"517 119 OFFCURVE",
"517 189 CURVE SMOOTH",
"517 340 OFFCURVE",
"418 381 OFFCURVE",
"317 381 CURVE SMOOTH",
"241 381 OFFCURVE",
"183 336 OFFCURVE",
"157 297 CURVE",
"157 406 OFFCURVE",
"193 567 OFFCURVE",
"337 567 CURVE SMOOTH"
);
},
{
closed = 1;
nodes = (
"397 313 OFFCURVE",
"435 267 OFFCURVE",
"435 189 CURVE SMOOTH",
"435 131 OFFCURVE",
"394 53 OFFCURVE",
"307 53 CURVE SMOOTH",
"241 53 OFFCURVE",
"174 85 OFFCURVE",
"160 232 CURVE",
"185 280 OFFCURVE",
"244 313 OFFCURVE",
"317 313 CURVE SMOOTH"
);
}
);
width = 582;
}
);
},
{
glyphname = seven.onum;
lastChange = "2016-09-19 16:28:09 +0000";
layers = (
{
layerId = UUID0;
paths = (
{
closed = 1;
nodes = (
"91 298 LINE",
"105 360 LINE",
"323 360 LINE",
"194 172 OFFCURVE",
"149 -53 OFFCURVE",
"142 -205 CURVE",
"236 -205 LINE",
"245 -63 OFFCURVE",
"264 197 OFFCURVE",
"411 386 CURVE",
"411 429 LINE",
"44 429 LINE",
"22 313 LINE"
);
}
);
width = 446;
}
);
},
{
glyphname = eight.onum;
lastChange = "2016-09-19 16:28:09 +0000";
layers = (
{
layerId = UUID0;
paths = (
{
closed = 1;
nodes = (
"131 605 OFFCURVE",
"75 512 OFFCURVE",
"75 432 CURVE SMOOTH",
"75 375 OFFCURVE",
"105 327 OFFCURVE",
"164 295 CURVE",
"93 255 OFFCURVE",
"70 199 OFFCURVE",
"70 149 CURVE SMOOTH",
"70 63 OFFCURVE",
"131 -16 OFFCURVE",
"284 -16 CURVE SMOOTH",
"430 -16 OFFCURVE",
"484 66 OFFCURVE",
"484 153 CURVE SMOOTH",
"484 212 OFFCURVE",
"449 277 OFFCURVE",
"366 301 CURVE",
"422 327 OFFCURVE",
"474 368 OFFCURVE",
"474 442 CURVE SMOOTH",
"474 522 OFFCURVE",
"414 605 OFFCURVE",
"276 605 CURVE SMOOTH"
);
},
{
closed = 1;
nodes = (
"350 237 OFFCURVE",
"410 209 OFFCURVE",
"410 141 CURVE SMOOTH",
"410 113 OFFCURVE",
"397 48 OFFCURVE",
"282 48 CURVE SMOOTH",
"184 48 OFFCURVE",
"143 96 OFFCURVE",
"143 149 CURVE SMOOTH",
"143 180 OFFCURVE",
"157 238 OFFCURVE",
"237 265 CURVE"
);
},
{
closed = 1;
nodes = (
"286 334 OFFCURVE",
"147 361 OFFCURVE",
"147 446 CURVE SMOOTH",
"147 477 OFFCURVE",
"177 542 OFFCURVE",
"274 542 CURVE SMOOTH",
"368 542 OFFCURVE",
"405 484 OFFCURVE",
"405 442 CURVE SMOOTH",
"405 378 OFFCURVE",
"331 347 OFFCURVE",
"288 333 CURVE"
);
}
);
width = 544;
}
);
},
{
glyphname = nine.onum;
lastChange = "2016-09-19 16:28:09 +0000";
layers = (
{
layerId = UUID0;
paths = (
{
closed = 1;
nodes = (
"173 -162 OFFCURVE",
"121 -122 OFFCURVE",
"120 -123 CURVE SMOOTH",
"90 -183 LINE",
"90 -183 OFFCURVE",
"160 -230 OFFCURVE",
"257 -230 CURVE SMOOTH",
"385 -230 OFFCURVE",
"514 -123 OFFCURVE",
"514 134 CURVE SMOOTH",
"514 330 OFFCURVE",
"439 442 OFFCURVE",
"284 442 CURVE SMOOTH",
"135 442 OFFCURVE",
"67 324 OFFCURVE",
"67 209 CURVE SMOOTH",
"67 42 OFFCURVE",
"166 -7 OFFCURVE",
"267 -7 CURVE SMOOTH",
"339 -7 OFFCURVE",
"396 31 OFFCURVE",
"424 67 CURVE",
"416 -37 OFFCURVE",
"385 -162 OFFCURVE",
"264 -162 CURVE SMOOTH"
);
},
{
closed = 1;
nodes = (
"187 61 OFFCURVE",
"149 125 OFFCURVE",
"149 197 CURVE SMOOTH",
"149 311 OFFCURVE",
"201 374 OFFCURVE",
"277 374 CURVE SMOOTH",
"350 374 OFFCURVE",
"426 345 OFFCURVE",
"427 147 CURVE",
"406 97 OFFCURVE",
"352 61 OFFCURVE",
"267 61 CURVE SMOOTH"
);
}
);
width = 574;
}
);
},
{
glyphname = zero.tnum;
lastChange = "2016-09-19 16:28:27 +0000";
layers = (
{
layerId = UUID0;
paths = (
{
closed = 1;
nodes = (
"528 526 OFFCURVE",
"432 604 OFFCURVE",
"292 604 CURVE SMOOTH",
"153 604 OFFCURVE",
"57 526 OFFCURVE",
"57 294 CURVE SMOOTH",
"57 64 OFFCURVE",
"153 -15 OFFCURVE",
"292 -15 CURVE SMOOTH",
"432 -15 OFFCURVE",
"528 64 OFFCURVE",
"528 294 CURVE SMOOTH"
);
},
{
closed = 1;
nodes = (
"143 492 OFFCURVE",
"209 536 OFFCURVE",
"293 536 CURVE SMOOTH",
"334 536 OFFCURVE",
"371 525 OFFCURVE",
"398 490 CURVE",
"158 158 LINE",
"148 192 OFFCURVE",
"143 237 OFFCURVE",
"143 294 CURVE SMOOTH"
);
},
{
closed = 1;
nodes = (
"442 98 OFFCURVE",
"376 53 OFFCURVE",
"293 53 CURVE SMOOTH",
"255 53 OFFCURVE",
"220 62 OFFCURVE",
"194 90 CURVE",
"430 415 LINE",
"438 383 OFFCURVE",
"442 343 OFFCURVE",
"442 294 CURVE SMOOTH"
);
}
);
width = 580;
}
);
},
{
glyphname = one.tnum;
lastChange = "2016-09-19 16:28:27 +0000";
layers = (
{
layerId = UUID0;
paths = (
{
closed = 1;
nodes = (
"142 356 LINE",
"285 474 LINE",
"284 69 LINE",
"118 69 LINE",
"118 0 LINE",
"518 0 LINE",
"518 69 LINE",
"362 69 LINE",
"364 591 LINE",
"314 591 LINE",
"98 410 LINE"
);
}
);
width = 580;
}
);
},
{
glyphname = two.tnum;
lastChange = "2016-09-19 16:28:27 +0000";
layers = (
{
layerId = UUID0;
paths = (
{
closed = 1;
nodes = (
"161 69 LINE",
"200 201 OFFCURVE",
"470 252 OFFCURVE",
"470 429 CURVE SMOOTH",
"470 530 OFFCURVE",
"390 604 OFFCURVE",
"260 604 CURVE SMOOTH",
"133 604 OFFCURVE",
"71 530 OFFCURVE",
"72 530 CURVE",
"129 476 LINE",
"129 476 OFFCURVE",
"179 536 OFFCURVE",
"261 536 CURVE SMOOTH",
"353 536 OFFCURVE",
"386 477 OFFCURVE",
"385 429 CURVE SMOOTH",
"383 270 OFFCURVE",
"110 248 OFFCURVE",
"63 44 CURVE",
"80 0 LINE",
"450 0 LINE",
"524 122 LINE",
"467 152 LINE",
"415 69 LINE"
);
}
);
width = 580;
}
);
},
{
glyphname = three.tnum;
lastChange = "2016-09-19 16:28:27 +0000";
layers = (
{
layerId = UUID0;
paths = (
{
closed = 1;
nodes = (
"76 54 LINE",
"76 54 OFFCURVE",
"148 -15 OFFCURVE",
"284 -15 CURVE SMOOTH",
"442 -15 OFFCURVE",
"502 73 OFFCURVE",
"502 162 CURVE SMOOTH",
"502 247 OFFCURVE",
"443 299 OFFCURVE",
"391 309 CURVE",
"435 323 OFFCURVE",
"488 364 OFFCURVE",
"488 435 CURVE SMOOTH",
"488 537 OFFCURVE",
"403 604 OFFCURVE",
"282 604 CURVE SMOOTH",
"152 604 OFFCURVE",
"94 536 OFFCURVE",
"93 535 CURVE",
"152 481 LINE",
"154 483 OFFCURVE",
"199 536 OFFCURVE",
"280 535 CURVE SMOOTH",
"333 534 OFFCURVE",
"403 515 OFFCURVE",
"403 435 CURVE SMOOTH",
"403 364 OFFCURVE",
"358 338 OFFCURVE",
"286 338 CURVE SMOOTH",
"218 338 LINE",
"218 269 LINE",
"264 269 LINE SMOOTH",
"314 269 OFFCURVE",
"417 273 OFFCURVE",
"417 161 CURVE SMOOTH",
"417 102 OFFCURVE",
"373 54 OFFCURVE",
"287 54 CURVE SMOOTH",
"191 54 OFFCURVE",
"128 111 OFFCURVE",
"127 111 CURVE"
);
}
);
width = 580;
}
);
},
{
glyphname = four.tnum;
lastChange = "2016-09-19 16:28:27 +0000";
layers = (
{
layerId = UUID0;
paths = (
{
closed = 1;
nodes = (
"512 165 LINE",
"512 234 LINE",
"417 233 LINE",
"418 502 LINE",
"338 502 LINE",
"338 233 LINE",
"135 233 LINE",
"135 235 OFFCURVE",
"248 468 OFFCURVE",
"304 585 CURVE",
"238 622 LINE",
"48 202 LINE",
"49 165 LINE",
"338 165 LINE",
"338 69 LINE",
"233 69 LINE",
"233 0 LINE",
"508 0 LINE",
"508 69 LINE",
"417 69 LINE",
"417 165 LINE"
);
}
);
width = 580;
}
);
},
{
glyphname = five.tnum;
lastChange = "2016-09-19 16:28:27 +0000";
layers = (
{
layerId = UUID0;
paths = (
{
closed = 1;
nodes = (
"118 589 LINE",
"118 294 LINE",
"164 272 LINE",
"164 273 LINE",
"168 277 OFFCURVE",
"206 321 OFFCURVE",
"296 321 CURVE SMOOTH",
"353 321 OFFCURVE",
"411 290 OFFCURVE",
"411 202 CURVE SMOOTH",
"411 91 OFFCURVE",
"347 53 OFFCURVE",
"280 53 CURVE SMOOTH",
"194 53 OFFCURVE",
"143 101 OFFCURVE",
"142 101 CURVE",
"94 46 LINE",
"94 46 OFFCURVE",
"161 -15 OFFCURVE",
"277 -15 CURVE SMOOTH",
"423 -15 OFFCURVE",
"496 83 OFFCURVE",
"496 203 CURVE SMOOTH",
"496 282 OFFCURVE",
"444 389 OFFCURVE",
"296 389 CURVE SMOOTH",
"253 389 OFFCURVE",
"221 376 OFFCURVE",
"199 360 CURVE",
"199 519 LINE",
"464 519 LINE",
"464 589 LINE"
);
}
);
width = 580;
}
);
},
{
glyphname = six.tnum;
lastChange = "2016-09-19 16:28:27 +0000";
layers = (
{
layerId = UUID0;
paths = (
{
closed = 1;
nodes = (
"379 538 OFFCURVE",
"443 501 OFFCURVE",
"444 502 CURVE SMOOTH",
"481 560 LINE",
"481 560 OFFCURVE",
"416 606 OFFCURVE",
"327 606 CURVE SMOOTH",
"165 606 OFFCURVE",
"62 466 OFFCURVE",
"62 293 CURVE SMOOTH",
"62 97 OFFCURVE",
"137 -15 OFFCURVE",
"292 -15 CURVE SMOOTH",
"468 -15 OFFCURVE",
"509 107 OFFCURVE",
"509 177 CURVE SMOOTH",
"509 328 OFFCURVE",
"410 369 OFFCURVE",
"309 369 CURVE SMOOTH",
"234 369 OFFCURVE",
"175 332 OFFCURVE",
"149 297 CURVE",
"152 404 OFFCURVE",
"190 538 OFFCURVE",
"329 538 CURVE SMOOTH"
);
},
{
closed = 1;
nodes = (
"389 301 OFFCURVE",
"427 255 OFFCURVE",
"427 177 CURVE SMOOTH",
"427 119 OFFCURVE",
"386 53 OFFCURVE",
"299 53 CURVE SMOOTH",
"232 53 OFFCURVE",
"163 76 OFFCURVE",
"151 230 CURVE",
"175 275 OFFCURVE",
"235 301 OFFCURVE",
"309 301 CURVE SMOOTH"
);
}
);
width = 580;
}
);
},
{
glyphname = seven.tnum;
lastChange = "2016-09-19 16:28:27 +0000";
layers = (
{
layerId = UUID0;
paths = (
{
closed = 1;
nodes = (
"150 458 LINE",
"164 520 LINE",
"422 520 LINE",
"293 332 OFFCURVE",
"231 150 OFFCURVE",
"212 0 CURVE",
"306 0 LINE",
"315 142 OFFCURVE",
"363 357 OFFCURVE",
"510 546 CURVE",
"510 589 LINE",
"103 589 LINE",
"81 473 LINE"
);
}
);
width = 580;
}
);
},
{
glyphname = eight.tnum;
lastChange = "2016-09-19 16:28:27 +0000";
layers = (
{
layerId = UUID0;
paths = (
{
closed = 1;
nodes = (
"184 604 OFFCURVE",
"95 544 OFFCURVE",
"95 435 CURVE SMOOTH",
"95 379 OFFCURVE",
"131 321 OFFCURVE",
"195 304 CURVE",
"131 294 OFFCURVE",
"84 233 OFFCURVE",
"84 163 CURVE SMOOTH",
"84 44 OFFCURVE",
"183 -15 OFFCURVE",
"292 -15 CURVE SMOOTH",
"401 -15 OFFCURVE",
"500 44 OFFCURVE",
"500 163 CURVE SMOOTH",
"500 233 OFFCURVE",
"453 294 OFFCURVE",
"389 304 CURVE",
"453 321 OFFCURVE",
"489 379 OFFCURVE",
"489 435 CURVE SMOOTH",
"489 544 OFFCURVE",
"400 604 OFFCURVE",
"291 604 CURVE SMOOTH"
);
},
{
closed = 1;
nodes = (
"220 53 OFFCURVE",
"170 99 OFFCURVE",
"170 163 CURVE SMOOTH",
"170 223 OFFCURVE",
"210 270 OFFCURVE",
"292 270 CURVE SMOOTH",
"374 270 OFFCURVE",
"414 223 OFFCURVE",
"414 163 CURVE SMOOTH",
"414 99 OFFCURVE",
"364 53 OFFCURVE",
"292 53 CURVE SMOOTH"
);
},
{
closed = 1;
nodes = (
"221 334 OFFCURVE",
"180 377 OFFCURVE",
"180 435 CURVE SMOOTH",
"180 492 OFFCURVE",
"221 536 OFFCURVE",
"292 536 CURVE SMOOTH",
"363 536 OFFCURVE",
"404 492 OFFCURVE",
"404 435 CURVE SMOOTH",
"404 377 OFFCURVE",
"363 334 OFFCURVE",
"292 334 CURVE SMOOTH"
);
}
);
width = 580;
}
);
},
{
glyphname = nine.tnum;
lastChange = "2016-09-19 16:28:27 +0000";
layers = (
{
layerId = UUID0;
paths = (
{
closed = 1;
nodes = (
"201 53 OFFCURVE",
"137 90 OFFCURVE",
"136 89 CURVE SMOOTH",
"99 31 LINE",
"99 31 OFFCURVE",
"164 -15 OFFCURVE",
"261 -15 CURVE SMOOTH",
"368 -15 OFFCURVE",
"518 41 OFFCURVE",
"518 298 CURVE SMOOTH",
"518 494 OFFCURVE",
"443 606 OFFCURVE",
"288 606 CURVE SMOOTH",
"112 606 OFFCURVE",
"71 482 OFFCURVE",
"71 408 CURVE SMOOTH",
"71 241 OFFCURVE",
"170 192 OFFCURVE",
"271 192 CURVE SMOOTH",
"345 192 OFFCURVE",
"403 232 OFFCURVE",
"430 268 CURVE",
"425 168 OFFCURVE",
"399 53 OFFCURVE",
"268 53 CURVE SMOOTH"
);
},
{
closed = 1;
nodes = (
"191 260 OFFCURVE",
"153 324 OFFCURVE",
"153 396 CURVE SMOOTH",
"153 474 OFFCURVE",
"194 538 OFFCURVE",
"281 538 CURVE SMOOTH",
"350 538 OFFCURVE",
"421 512 OFFCURVE",
"430 344 CURVE",
"408 295 OFFCURVE",
"355 260 OFFCURVE",
"271 260 CURVE SMOOTH"
);
}
);
width = 580;
}
);
},
{
glyphname = zero.subs;
lastChange = "2016-09-19 16:28:54 +0000";
layers = (
{
layerId = UUID0;
paths = (
{
closed = 1;
nodes = (
"72 84 OFFCURVE",
"109 109 OFFCURVE",
"157 109 CURVE SMOOTH",
"204 109 OFFCURVE",
"241 84 OFFCURVE",
"241 -31 CURVE SMOOTH",
"241 -144 OFFCURVE",
"204 -170 OFFCURVE",
"157 -170 CURVE SMOOTH",
"109 -170 OFFCURVE",
"72 -144 OFFCURVE",
"72 -31 CURVE SMOOTH"
);
},
{
closed = 1;
nodes = (
"303 112 OFFCURVE",
"243 160 OFFCURVE",
"156 160 CURVE SMOOTH",
"70 160 OFFCURVE",
"10 112 OFFCURVE",
"10 -31 CURVE SMOOTH",
"10 -173 OFFCURVE",
"70 -221 OFFCURVE",
"156 -221 CURVE SMOOTH",
"243 -221 OFFCURVE",
"303 -173 OFFCURVE",
"303 -31 CURVE SMOOTH"
);
}
);
width = 303;
}
);
},
{
glyphname = one.subs;
lastChange = "2016-09-19 16:28:54 +0000";
layers = (
{
layerId = UUID0;
paths = (
{
closed = 1;
nodes = (
"42 4 LINE",
"124 72 LINE",
"124 -158 LINE",
"24 -158 LINE",
"24 -208 LINE",
"274 -208 LINE",
"274 -158 LINE",
"180 -158 LINE",
"182 157 LINE",
"145 157 LINE",
"10 44 LINE"
);
}
);
width = 274;
}
);
},
{
glyphname = two.subs;
lastChange = "2016-09-19 16:28:54 +0000";
layers = (
{
layerId = UUID0;
paths = (
{
closed = 1;
nodes = (
"78 -161 LINE",
"89 -131 OFFCURVE",
"125 -104 OFFCURVE",
"161 -80 CURVE SMOOTH",
"211 -46 OFFCURVE",
"264 -9 OFFCURVE",
"264 54 CURVE SMOOTH",
"264 118 OFFCURVE",
"214 164 OFFCURVE",
"133 164 CURVE SMOOTH",
"57 164 OFFCURVE",
"21 110 OFFCURVE",
"21 110 CURVE",
"55 74 LINE",
"55 74 OFFCURVE",
"87 113 OFFCURVE",
"134 113 CURVE SMOOTH",
"185 113 OFFCURVE",
"203 81 OFFCURVE",
"203 54 CURVE SMOOTH",
"203 12 OFFCURVE",
"163 -16 OFFCURVE",
"122 -45 CURVE SMOOTH",
"77 -76 OFFCURVE",
"25 -113 OFFCURVE",
"10 -178 CURVE",
"21 -208 LINE",
"250 -208 LINE",
"299 -129 LINE",
"256 -106 LINE",
"222 -161 LINE"
);
}
);
width = 299;
}
);
},
{
glyphname = three.subs;
lastChange = "2016-09-19 16:28:54 +0000";
layers = (
{
layerId = UUID0;
paths = (
{
closed = 1;
nodes = (
"10 -170 LINE",
"10 -170 OFFCURVE",
"58 -216 OFFCURVE",
"142 -216 CURVE SMOOTH",
"241 -216 OFFCURVE",
"278 -161 OFFCURVE",
"278 -105 CURVE SMOOTH",
"278 -58 OFFCURVE",
"251 -28 OFFCURVE",
"222 -17 CURVE",
"246 -5 OFFCURVE",
"269 21 OFFCURVE",
"269 59 CURVE SMOOTH",
"269 123 OFFCURVE",
"216 165 OFFCURVE",
"141 165 CURVE SMOOTH",
"68 165 OFFCURVE",
"28 128 OFFCURVE",
"20 120 CURVE",
"64 77 LINE",
"65 79 OFFCURVE",
"93 114 OFFCURVE",
"140 114 CURVE",
"169 113 OFFCURVE",
"208 103 OFFCURVE",
"208 59 CURVE SMOOTH",
"208 20 OFFCURVE",
"183 6 OFFCURVE",
"143 6 CURVE SMOOTH",
"97 6 LINE",
"97 -46 LINE",
"130 -46 LINE SMOOTH",
"158 -46 OFFCURVE",
"217 -43 OFFCURVE",
"217 -106 CURVE SMOOTH",
"217 -138 OFFCURVE",
"192 -165 OFFCURVE",
"144 -165 CURVE SMOOTH",
"88 -165 OFFCURVE",
"48 -129 OFFCURVE",
"48 -129 CURVE"
);
}
);
width = 278;
}
);
},
{
glyphname = four.subs;
lastChange = "2016-09-19 16:28:54 +0000";
layers = (
{
layerId = UUID0;
paths = (
{
closed = 1;
nodes = (
"298 -109 LINE",
"298 -60 LINE",
"241 -61 LINE",
"242 104 LINE",
"184 104 LINE",
"184 -61 LINE",
"75 -61 LINE",
"104 2 LINE",
"175 149 LINE",
"126 178 LINE",
"10 -79 LINE",
"10 -109 LINE",
"184 -109 LINE",
"184 -160 LINE",
"121 -160 LINE",
"121 -208 LINE",
"296 -208 LINE",
"296 -160 LINE",
"241 -160 LINE",
"241 -109 LINE"
);
}
);
width = 298;
}
);
},
{
glyphname = five.subs;
lastChange = "2016-09-19 16:28:54 +0000";
layers = (
{
layerId = UUID0;
paths = (
{
closed = 1;
nodes = (
"28 158 LINE",
"28 -28 LINE",
"61 -43 LINE",
"70 -35 OFFCURVE",
"94 -13 OFFCURVE",
"140 -13 CURVE SMOOTH",
"172 -13 OFFCURVE",
"204 -30 OFFCURVE",
"204 -79 CURVE SMOOTH",
"204 -142 OFFCURVE",
"167 -163 OFFCURVE",
"130 -163 CURVE SMOOTH",
"86 -163 OFFCURVE",
"56 -139 OFFCURVE",
"48 -134 CURVE",
"10 -173 LINE",
"10 -173 OFFCURVE",
"57 -214 OFFCURVE",
"128 -214 CURVE SMOOTH",
"219 -214 OFFCURVE",
"265 -153 OFFCURVE",
"265 -78 CURVE SMOOTH",
"265 -29 OFFCURVE",
"232 38 OFFCURVE",
"140 38 CURVE SMOOTH",
"116 38 OFFCURVE",
"99 32 OFFCURVE",
"86 24 CURVE",
"86 110 LINE",
"245 110 LINE",
"245 158 LINE"
);
}
);
width = 265;
}
);
},
{
glyphname = six.subs;
lastChange = "2016-10-24 18:03:09 +0000";
layers = (
{
background = {
paths = (
{
closed = 1;
nodes = (
"200 115 OFFCURVE",
"229 101 OFFCURVE",
"240 95 CURVE SMOOTH",
"242 94 OFFCURVE",
"245 92 OFFCURVE",
"245 92 CURVE",
"274 134 LINE",
"274 134 OFFCURVE",
"229 166 OFFCURVE",
"174 166 CURVE SMOOTH",
"74 166 OFFCURVE",
"10 80 OFFCURVE",
"10 -27 CURVE SMOOTH",
"10 -148 OFFCURVE",
"57 -217 OFFCURVE",
"153 -217 CURVE SMOOTH",
"263 -217 OFFCURVE",
"289 -141 OFFCURVE",
"289 -97 CURVE SMOOTH",
"289 -2 OFFCURVE",
"226 24 OFFCURVE",
"164 24 CURVE SMOOTH",
"121 24 OFFCURVE",
"92 8 OFFCURVE",
"73 -12 CURVE",
"76 48 OFFCURVE",
"101 115 OFFCURVE",
"176 115 CURVE SMOOTH"
);
},
{
closed = 1;
nodes = (
"209 -27 OFFCURVE",
"229 -53 OFFCURVE",
"229 -97 CURVE SMOOTH",
"229 -129 OFFCURVE",
"207 -166 OFFCURVE",
"158 -166 CURVE SMOOTH",
"121 -166 OFFCURVE",
"82 -147 OFFCURVE",
"74 -64 CURVE",
"89 -41 OFFCURVE",
"124 -27 OFFCURVE",
"164 -27 CURVE SMOOTH"
);
}
);
};
layerId = UUID0;
paths = (
{
closed = 1;
nodes = (
"200 115 OFFCURVE",
"229 101 OFFCURVE",
"240 95 CURVE SMOOTH",
"242 94 OFFCURVE",
"245 92 OFFCURVE",
"245 92 CURVE",
"274 134 LINE",
"274 134 OFFCURVE",
"229 166 OFFCURVE",
"174 166 CURVE SMOOTH",
"74 166 OFFCURVE",
"10 80 OFFCURVE",
"10 -27 CURVE SMOOTH",
"10 -148 OFFCURVE",
"57 -217 OFFCURVE",
"153 -217 CURVE SMOOTH",
"263 -217 OFFCURVE",
"289 -141 OFFCURVE",
"289 -97 CURVE SMOOTH",
"289 -2 OFFCURVE",
"226 24 OFFCURVE",
"164 24 CURVE SMOOTH",
"121 24 OFFCURVE",
"92 8 OFFCURVE",
"73 -12 CURVE",
"76 48 OFFCURVE",
"101 115 OFFCURVE",
"176 115 CURVE SMOOTH"
);
},
{
closed = 1;
nodes = (
"209 -27 OFFCURVE",
"229 -53 OFFCURVE",
"229 -97 CURVE SMOOTH",
"229 -129 OFFCURVE",
"207 -166 OFFCURVE",
"158 -166 CURVE SMOOTH",
"121 -166 OFFCURVE",
"82 -147 OFFCURVE",
"74 -64 CURVE",
"89 -41 OFFCURVE",
"124 -27 OFFCURVE",
"164 -27 CURVE SMOOTH"
);
}
);
width = 289;
}
);
},
{
glyphname = seven.subs;
lastChange = "2016-09-19 16:28:54 +0000";
layers = (
{
layerId = UUID0;
paths = (
{
closed = 1;
nodes = (
"61 68 LINE",
"69 106 LINE",
"211 106 LINE",
"135 -6 OFFCURVE",
"101 -115 OFFCURVE",
"88 -208 CURVE",
"156 -208 LINE",
"161 -121 OFFCURVE",
"190 12 OFFCURVE",
"278 124 CURVE",
"278 157 LINE",
"25 157 LINE",
"10 79 LINE"
);
}
);
width = 278;
}
);
},
{
glyphname = eight.subs;
lastChange = "2016-09-19 16:28:54 +0000";
layers = (
{
layerId = UUID0;
paths = (
{
closed = 1;
nodes = (
"72 165 OFFCURVE",
"17 127 OFFCURVE",
"17 59 CURVE SMOOTH",
"17 26 OFFCURVE",
"28 -7 OFFCURVE",
"64 -20 CURVE",
"29 -31 OFFCURVE",
"10 -64 OFFCURVE",
"10 -104 CURVE SMOOTH",
"10 -179 OFFCURVE",
"72 -216 OFFCURVE",
"140 -216 CURVE SMOOTH",
"208 -216 OFFCURVE",
"270 -179 OFFCURVE",
"270 -104 CURVE SMOOTH",
"270 -66 OFFCURVE",
"247 -33 OFFCURVE",
"215 -20 CURVE",
"246 -5 OFFCURVE",
"263 28 OFFCURVE",
"263 59 CURVE SMOOTH",
"263 127 OFFCURVE",
"208 165 OFFCURVE",
"139 165 CURVE SMOOTH"
);
},
{
closed = 1;
nodes = (
"100 -165 OFFCURVE",
"72 -140 OFFCURVE",
"72 -104 CURVE SMOOTH",
"72 -71 OFFCURVE",
"94 -45 OFFCURVE",
"140 -45 CURVE SMOOTH",
"186 -45 OFFCURVE",
"208 -71 OFFCURVE",
"208 -104 CURVE SMOOTH",
"208 -140 OFFCURVE",
"180 -165 OFFCURVE",
"140 -165 CURVE SMOOTH"
);
},
{
closed = 1;
nodes = (
"100 3 OFFCURVE",
"78 27 OFFCURVE",
"78 59 CURVE SMOOTH",
"78 90 OFFCURVE",
"100 114 OFFCURVE",
"140 114 CURVE SMOOTH",
"180 114 OFFCURVE",
"202 90 OFFCURVE",
"202 59 CURVE SMOOTH",
"202 27 OFFCURVE",
"180 3 OFFCURVE",
"140 3 CURVE SMOOTH"
);
}
);
width = 270;
}
);
},
{
glyphname = nine.subs;
lastChange = "2016-09-19 16:28:54 +0000";
layers = (
{
layerId = UUID0;
paths = (
{
closed = 1;
nodes = (
"104 -167 OFFCURVE",
"55 -146 OFFCURVE",
"55 -144 CURVE",
"25 -186 LINE",
"25 -186 OFFCURVE",
"70 -218 OFFCURVE",
"129 -218 CURVE SMOOTH",
"196 -218 OFFCURVE",
"289 -183 OFFCURVE",
"289 -25 CURVE SMOOTH",
"289 96 OFFCURVE",
"242 165 OFFCURVE",
"146 165 CURVE SMOOTH",
"36 165 OFFCURVE",
"10 87 OFFCURVE",
"10 41 CURVE SMOOTH",
"10 -63 OFFCURVE",
"72 -94 OFFCURVE",
"135 -94 CURVE SMOOTH",
"173 -94 OFFCURVE",
"205 -77 OFFCURVE",
"224 -59 CURVE",
"219 -112 OFFCURVE",
"201 -167 OFFCURVE",
"134 -167 CURVE SMOOTH"
);
},
{
closed = 1;
nodes = (
"90 -43 OFFCURVE",
"70 -6 OFFCURVE",
"70 34 CURVE SMOOTH",
"70 78 OFFCURVE",
"92 114 OFFCURVE",
"141 114 CURVE SMOOTH",
"181 114 OFFCURVE",
"221 101 OFFCURVE",
"225 4 CURVE",
"212 -20 OFFCURVE",
"179 -43 OFFCURVE",
"135 -43 CURVE SMOOTH"
);
}
);
width = 289;
}
);
},
{
glyphname = zero.sups;
lastChange = "2016-09-19 16:28:42 +0000";
layers = (
{
layerId = UUID0;
paths = (
{
closed = 1;
nodes = (
"72 577 OFFCURVE",
"109 602 OFFCURVE",
"157 602 CURVE SMOOTH",
"204 602 OFFCURVE",
"241 577 OFFCURVE",
"241 462 CURVE SMOOTH",
"241 349 OFFCURVE",
"204 323 OFFCURVE",
"157 323 CURVE SMOOTH",
"109 323 OFFCURVE",
"72 349 OFFCURVE",
"72 462 CURVE SMOOTH"
);
},
{
closed = 1;
nodes = (
"303 605 OFFCURVE",
"243 653 OFFCURVE",
"156 653 CURVE SMOOTH",
"70 653 OFFCURVE",
"10 605 OFFCURVE",
"10 462 CURVE SMOOTH",
"10 320 OFFCURVE",
"70 272 OFFCURVE",
"156 272 CURVE SMOOTH",
"243 272 OFFCURVE",
"303 320 OFFCURVE",
"303 462 CURVE SMOOTH"
);
}
);
width = 325;
}
);
},
{
glyphname = one.sups;
lastChange = "2016-09-19 16:28:42 +0000";
layers = (
{
layerId = UUID0;
paths = (
{
closed = 1;
nodes = (
"42 499 LINE",
"124 567 LINE",
"124 337 LINE",
"24 337 LINE",
"24 287 LINE",
"274 287 LINE",
"274 337 LINE",
"180 337 LINE",
"182 652 LINE",
"145 652 LINE",
"10 539 LINE"
);
}
);
width = 296;
}
);
},
{
glyphname = two.sups;
lastChange = "2016-09-19 16:28:42 +0000";
layers = (
{
layerId = UUID0;
paths = (
{
closed = 1;
nodes = (
"78 333 LINE",
"89 363 OFFCURVE",
"125 390 OFFCURVE",
"161 414 CURVE SMOOTH",
"211 448 OFFCURVE",
"264 485 OFFCURVE",
"264 548 CURVE SMOOTH",
"264 612 OFFCURVE",
"214 658 OFFCURVE",
"133 658 CURVE SMOOTH",
"57 658 OFFCURVE",
"21 604 OFFCURVE",
"21 604 CURVE",
"55 568 LINE",
"55 568 OFFCURVE",
"87 607 OFFCURVE",
"134 607 CURVE SMOOTH",
"185 607 OFFCURVE",
"203 575 OFFCURVE",
"203 548 CURVE SMOOTH",
"203 506 OFFCURVE",
"163 478 OFFCURVE",
"122 449 CURVE SMOOTH",
"77 418 OFFCURVE",
"25 381 OFFCURVE",
"10 316 CURVE",
"21 286 LINE",
"250 286 LINE",
"299 365 LINE",
"256 388 LINE",
"222 333 LINE"
);
}
);
width = 321;
}
);
},
{
glyphname = three.sups;
lastChange = "2016-09-19 16:28:42 +0000";
layers = (
{
layerId = UUID0;
paths = (
{
closed = 1;
nodes = (
"10 323 LINE",
"10 323 OFFCURVE",
"58 277 OFFCURVE",
"142 277 CURVE SMOOTH",
"241 277 OFFCURVE",
"278 332 OFFCURVE",
"278 388 CURVE SMOOTH",
"278 435 OFFCURVE",
"251 465 OFFCURVE",
"222 476 CURVE",
"246 488 OFFCURVE",
"269 514 OFFCURVE",
"269 552 CURVE SMOOTH",
"269 616 OFFCURVE",
"216 658 OFFCURVE",
"141 658 CURVE SMOOTH",
"68 658 OFFCURVE",
"28 621 OFFCURVE",
"20 613 CURVE",
"64 570 LINE",
"65 572 OFFCURVE",
"93 607 OFFCURVE",
"140 607 CURVE",
"169 606 OFFCURVE",
"208 596 OFFCURVE",
"208 552 CURVE SMOOTH",
"208 513 OFFCURVE",
"183 499 OFFCURVE",
"143 499 CURVE SMOOTH",
"97 499 LINE",
"97 447 LINE",
"130 447 LINE SMOOTH",
"158 447 OFFCURVE",
"217 450 OFFCURVE",
"217 387 CURVE SMOOTH",
"217 355 OFFCURVE",
"192 328 OFFCURVE",
"144 328 CURVE SMOOTH",
"88 328 OFFCURVE",
"48 364 OFFCURVE",
"48 364 CURVE"
);
}
);
width = 300;
}
);
},
{
glyphname = four.sups;
lastChange = "2016-09-19 16:28:42 +0000";
layers = (
{
layerId = UUID0;
paths = (
{
closed = 1;
nodes = (
"293 385 LINE",
"293 434 LINE",
"236 433 LINE",
"237 598 LINE",
"179 598 LINE",
"179 433 LINE",
"70 433 LINE",
"99 496 LINE",
"170 643 LINE",
"121 672 LINE",
"5 415 LINE",
"5 385 LINE",
"179 385 LINE",
"179 334 LINE",
"116 334 LINE",
"116 286 LINE",
"291 286 LINE",
"291 334 LINE",
"236 334 LINE",
"236 385 LINE"
);
}
);
width = 315;
}
);
},
{
glyphname = five.sups;
lastChange = "2016-09-19 16:28:42 +0000";
layers = (
{
layerId = UUID0;
paths = (
{
closed = 1;
nodes = (
"23 651 LINE",
"23 465 LINE",
"56 450 LINE",
"65 458 OFFCURVE",
"89 480 OFFCURVE",
"135 480 CURVE SMOOTH",
"167 480 OFFCURVE",
"199 463 OFFCURVE",
"199 414 CURVE SMOOTH",
"199 351 OFFCURVE",
"162 330 OFFCURVE",
"125 330 CURVE SMOOTH",
"81 330 OFFCURVE",
"51 354 OFFCURVE",
"43 359 CURVE",
"5 320 LINE",
"5 320 OFFCURVE",
"52 279 OFFCURVE",
"123 279 CURVE SMOOTH",
"214 279 OFFCURVE",
"260 340 OFFCURVE",
"260 415 CURVE SMOOTH",
"260 464 OFFCURVE",
"227 531 OFFCURVE",
"135 531 CURVE SMOOTH",
"111 531 OFFCURVE",
"94 525 OFFCURVE",
"81 517 CURVE",
"81 603 LINE",
"240 603 LINE",
"240 651 LINE"
);
}
);
width = 282;
}
);
},
{
glyphname = six.sups;
lastChange = "2016-09-19 16:28:42 +0000";
layers = (
{
layerId = UUID0;
paths = (
{
closed = 1;
nodes = (
"200 608 OFFCURVE",
"229 594 OFFCURVE",
"240 588 CURVE SMOOTH",
"242 587 OFFCURVE",
"245 585 OFFCURVE",
"245 585 CURVE",
"274 627 LINE",
"274 627 OFFCURVE",
"229 659 OFFCURVE",
"174 659 CURVE SMOOTH",
"74 659 OFFCURVE",
"10 573 OFFCURVE",
"10 466 CURVE SMOOTH",
"10 345 OFFCURVE",
"57 276 OFFCURVE",
"153 276 CURVE SMOOTH",
"263 276 OFFCURVE",
"289 352 OFFCURVE",
"289 396 CURVE SMOOTH",
"289 491 OFFCURVE",
"226 517 OFFCURVE",
"164 517 CURVE SMOOTH",
"121 517 OFFCURVE",
"92 501 OFFCURVE",
"73 481 CURVE",
"76 541 OFFCURVE",
"101 608 OFFCURVE",
"176 608 CURVE SMOOTH"
);
},
{
closed = 1;
nodes = (
"209 466 OFFCURVE",
"229 440 OFFCURVE",
"229 396 CURVE SMOOTH",
"229 364 OFFCURVE",
"207 327 OFFCURVE",
"158 327 CURVE SMOOTH",
"121 327 OFFCURVE",
"82 346 OFFCURVE",
"74 429 CURVE",
"89 452 OFFCURVE",
"124 466 OFFCURVE",
"164 466 CURVE SMOOTH"
);
}
);
width = 311;
}
);
},
{
glyphname = seven.sups;
lastChange = "2016-09-19 16:28:42 +0000";
layers = (
{
layerId = UUID0;
paths = (
{
closed = 1;
nodes = (
"61 563 LINE",
"69 601 LINE",
"211 601 LINE",
"135 489 OFFCURVE",
"101 380 OFFCURVE",
"88 287 CURVE",
"156 287 LINE",
"161 374 OFFCURVE",
"190 507 OFFCURVE",
"278 619 CURVE",
"278 652 LINE",
"25 652 LINE",
"10 574 LINE"
);
}
);
width = 300;
}
);
},
{
glyphname = eight.sups;
lastChange = "2016-09-19 16:28:42 +0000";
layers = (
{
layerId = UUID0;
paths = (
{
closed = 1;
nodes = (
"72 658 OFFCURVE",
"17 620 OFFCURVE",
"17 552 CURVE SMOOTH",
"17 519 OFFCURVE",
"28 486 OFFCURVE",
"64 473 CURVE",
"29 462 OFFCURVE",
"10 429 OFFCURVE",
"10 389 CURVE SMOOTH",
"10 314 OFFCURVE",
"72 277 OFFCURVE",
"140 277 CURVE SMOOTH",
"208 277 OFFCURVE",
"270 314 OFFCURVE",
"270 389 CURVE SMOOTH",
"270 427 OFFCURVE",
"247 460 OFFCURVE",
"215 473 CURVE",
"246 488 OFFCURVE",
"263 521 OFFCURVE",
"263 552 CURVE SMOOTH",
"263 620 OFFCURVE",
"208 658 OFFCURVE",
"139 658 CURVE SMOOTH"
);
},
{
closed = 1;
nodes = (
"100 328 OFFCURVE",
"72 353 OFFCURVE",
"72 389 CURVE SMOOTH",
"72 422 OFFCURVE",
"94 448 OFFCURVE",
"140 448 CURVE SMOOTH",
"186 448 OFFCURVE",
"208 422 OFFCURVE",
"208 389 CURVE SMOOTH",
"208 353 OFFCURVE",
"180 328 OFFCURVE",
"140 328 CURVE SMOOTH"
);
},
{
closed = 1;
nodes = (
"100 496 OFFCURVE",
"78 520 OFFCURVE",
"78 552 CURVE SMOOTH",
"78 583 OFFCURVE",
"100 607 OFFCURVE",
"140 607 CURVE SMOOTH",
"180 607 OFFCURVE",
"202 583 OFFCURVE",
"202 552 CURVE SMOOTH",
"202 520 OFFCURVE",
"180 496 OFFCURVE",
"140 496 CURVE SMOOTH"
);
}
);
width = 292;
}
);
},
{
glyphname = nine.sups;
lastChange = "2016-09-19 16:28:42 +0000";
layers = (
{
layerId = UUID0;
paths = (
{
closed = 1;
nodes = (
"104 326 OFFCURVE",
"55 347 OFFCURVE",
"55 349 CURVE",
"25 307 LINE",
"25 307 OFFCURVE",
"70 275 OFFCURVE",
"129 275 CURVE SMOOTH",
"196 275 OFFCURVE",
"289 310 OFFCURVE",
"289 468 CURVE SMOOTH",
"289 589 OFFCURVE",
"242 658 OFFCURVE",
"146 658 CURVE SMOOTH",
"36 658 OFFCURVE",
"10 580 OFFCURVE",
"10 534 CURVE SMOOTH",
"10 430 OFFCURVE",
"72 399 OFFCURVE",
"135 399 CURVE SMOOTH",
"173 399 OFFCURVE",
"205 416 OFFCURVE",
"224 434 CURVE",
"219 381 OFFCURVE",
"201 326 OFFCURVE",
"134 326 CURVE SMOOTH"
);
},
{
closed = 1;
nodes = (
"90 450 OFFCURVE",
"70 487 OFFCURVE",
"70 527 CURVE SMOOTH",
"70 571 OFFCURVE",
"92 607 OFFCURVE",
"141 607 CURVE SMOOTH",
"181 607 OFFCURVE",
"221 594 OFFCURVE",
"225 497 CURVE",
"212 473 OFFCURVE",
"179 450 OFFCURVE",
"135 450 CURVE SMOOTH"
);
}
);
width = 311;
}
);
},
{
glyphname = onehalf;
lastChange = "2016-09-19 16:28:09 +0000";
layers = (
{
layerId = UUID0;
paths = (
{
closed = 1;
nodes = (
"609 652 LINE",
"545 652 LINE",
"230 -135 LINE",
"295 -135 LINE"
);
},
{
closed = 1;
nodes = (
"598 46 LINE",
"609 76 OFFCURVE",
"642 98 OFFCURVE",
"678 122 CURVE SMOOTH",
"728 156 OFFCURVE",
"782 194 OFFCURVE",
"782 257 CURVE SMOOTH",
"782 321 OFFCURVE",
"731 367 OFFCURVE",
"650 367 CURVE SMOOTH",
"572 367 OFFCURVE",
"530 317 OFFCURVE",
"530 317 CURVE",
"572 277 LINE",
"572 277 OFFCURVE",
"604 316 OFFCURVE",
"651 316 CURVE SMOOTH",
"702 316 OFFCURVE",
"720 284 OFFCURVE",
"720 257 CURVE SMOOTH",
"720 215 OFFCURVE",
"680 187 OFFCURVE",
"639 158 CURVE SMOOTH",
"594 127 OFFCURVE",
"542 90 OFFCURVE",
"527 25 CURVE",
"538 -5 LINE",
"763 -5 LINE",
"766 -7 LINE",
"767 -5 LINE",
"769 -5 LINE",
"769 -1 LINE",
"816 75 LINE",
"772 97 LINE",
"740 46 LINE"
);
},
{
closed = 1;
nodes = (
"85 436 LINE",
"167 503 LINE",
"166 276 LINE",
"66 276 LINE",
"66 225 LINE",
"316 225 LINE",
"316 276 LINE",
"226 276 LINE",
"227 589 LINE",
"188 589 LINE",
"52 477 LINE"
);
}
);
width = 884;
}
);
unicode = 00BD;
},
{
glyphname = asterisk;
lastChange = "2016-09-19 16:28:09 +0000";
layers = (
{
layerId = UUID0;
paths = (
{
closed = 1;
nodes = (
"258 418 LINE",
"182 418 LINE",
"190 273 LINE",
"56 326 LINE",
"33 253 LINE",
"174 216 LINE",
"79 100 LINE",
"142 56 LINE",
"221 178 LINE",
"300 56 LINE",
"361 102 LINE",
"269 215 LINE",
"414 254 LINE",
"389 326 LINE",
"250 272 LINE"
);
}
);
width = 451;
}
);
unicode = 002A;
},
{
glyphname = backslash;
lastChange = "2016-09-19 16:28:09 +0000";
layers = (
{
layerId = UUID0;
paths = (
{
closed = 1;
nodes = (
"361 -131 LINE",
"435 -131 LINE",
"107 589 LINE",
"34 589 LINE"
);
}
);
width = 403;
}
);
unicode = 005C;
},
{
glyphname = bullet;
lastChange = "2016-09-19 16:28:09 +0000";
layers = (
{
layerId = UUID0;
paths = (
{
closed = 1;
nodes = (
"49 254 OFFCURVE",
"101 202 OFFCURVE",
"165 202 CURVE SMOOTH",
"229 202 OFFCURVE",
"281 254 OFFCURVE",
"281 318 CURVE SMOOTH",
"281 382 OFFCURVE",
"229 434 OFFCURVE",
"165 434 CURVE SMOOTH",
"101 434 OFFCURVE",
"49 382 OFFCURVE",
"49 318 CURVE SMOOTH"
);
}
);
width = 328;
}
);
unicode = 2022;
},
{
glyphname = colon;
lastChange = "2016-09-19 16:28:09 +0000";
layers = (
{
layerId = UUID0;
paths = (
{
closed = 1;
nodes = (
"192 84 OFFCURVE",
"159 116 OFFCURVE",
"121 116 CURVE SMOOTH",
"82 116 OFFCURVE",
"50 84 OFFCURVE",
"50 45 CURVE SMOOTH",
"50 6 OFFCURVE",
"82 -26 OFFCURVE",
"121 -26 CURVE SMOOTH",
"159 -26 OFFCURVE",
"192 6 OFFCURVE",
"192 45 CURVE SMOOTH"
);
},
{
closed = 1;
nodes = (
"192 408 OFFCURVE",
"159 440 OFFCURVE",
"121 440 CURVE SMOOTH",
"82 440 OFFCURVE",
"50 408 OFFCURVE",
"50 369 CURVE SMOOTH",
"50 330 OFFCURVE",
"82 298 OFFCURVE",
"121 298 CURVE SMOOTH",
"159 298 OFFCURVE",
"192 330 OFFCURVE",
"192 369 CURVE SMOOTH"
);
}
);
width = 252;
}
);
unicode = 003A;
},
{
glyphname = comma;
lastChange = "2016-09-19 16:28:09 +0000";
layers = (
{
layerId = UUID0;
paths = (
{
closed = 1;
nodes = (
"183 82 OFFCURVE",
"151 113 OFFCURVE",
"115 113 CURVE SMOOTH",
"78 113 OFFCURVE",
"50 88 OFFCURVE",
"50 51 CURVE SMOOTH",
"50 33 OFFCURVE",
"58 17 OFFCURVE",
"71 6 CURVE SMOOTH",
"81 -2 OFFCURVE",
"94 -6 OFFCURVE",
"106 -7 CURVE",
"90 -43 OFFCURVE",
"60 -87 OFFCURVE",
"60 -87 CURVE",
"95 -117 LINE",
"95 -117 OFFCURVE",
"184 -32 OFFCURVE",
"183 45 CURVE SMOOTH"
);
}
);
width = 239;
}
);
unicode = 002C;
},
{
glyphname = ellipsis;
lastChange = "2016-09-19 16:28:09 +0000";
layers = (
{
layerId = UUID0;
paths = (
{
closed = 1;
nodes = (
"177 84 OFFCURVE",
"144 116 OFFCURVE",
"106 116 CURVE SMOOTH",
"67 116 OFFCURVE",
"35 84 OFFCURVE",
"35 45 CURVE SMOOTH",
"35 6 OFFCURVE",
"67 -26 OFFCURVE",
"106 -26 CURVE SMOOTH",
"144 -26 OFFCURVE",
"177 6 OFFCURVE",
"177 45 CURVE SMOOTH"
);
},
{
closed = 1;
nodes = (
"423 84 OFFCURVE",
"390 116 OFFCURVE",
"352 116 CURVE SMOOTH",
"313 116 OFFCURVE",
"281 84 OFFCURVE",
"281 45 CURVE SMOOTH",
"281 6 OFFCURVE",
"313 -26 OFFCURVE",
"352 -26 CURVE SMOOTH",
"390 -26 OFFCURVE",
"423 6 OFFCURVE",
"423 45 CURVE SMOOTH"
);
},
{
closed = 1;
nodes = (
"683 84 OFFCURVE",
"650 116 OFFCURVE",
"612 116 CURVE SMOOTH",
"573 116 OFFCURVE",
"541 84 OFFCURVE",
"541 45 CURVE SMOOTH",
"541 6 OFFCURVE",
"573 -26 OFFCURVE",
"612 -26 CURVE SMOOTH",
"650 -26 OFFCURVE",
"683 6 OFFCURVE",
"683 45 CURVE SMOOTH"
);
}
);
width = 698;
}
);
unicode = 2026;
},
{
glyphname = exclam;
lastChange = "2016-09-19 16:28:09 +0000";
layers = (
{
layerId = UUID0;
paths = (
{
closed = 1;
nodes = (
"156 270 LINE",
"158 588 LINE",
"79 588 LINE",
"78 270 LINE",
"88 186 LINE",
"146 186 LINE"
);
},
{
closed = 1;
nodes = (
"179 80 OFFCURVE",
"150 108 OFFCURVE",
"117 108 CURVE SMOOTH",
"83 108 OFFCURVE",
"55 80 OFFCURVE",
"55 46 CURVE SMOOTH",
"55 12 OFFCURVE",
"83 -16 OFFCURVE",
"117 -16 CURVE SMOOTH",
"150 -16 OFFCURVE",
"179 12 OFFCURVE",
"179 46 CURVE SMOOTH"
);
}
);
width = 206;
}
);
unicode = 0021;
},
{
glyphname = exclamdown;
lastChange = "2016-09-19 16:28:09 +0000";
layers = (
{
layerId = UUID0;
paths = (
{
closed = 1;
nodes = (
"113 240 LINE",
"55 240 LINE",
"45 156 LINE",
"46 -210 LINE",
"125 -210 LINE",
"123 156 LINE"
);
},
{
closed = 1;
nodes = (
"146 414 OFFCURVE",
"117 442 OFFCURVE",
"84 442 CURVE SMOOTH",
"50 442 OFFCURVE",
"22 414 OFFCURVE",
"22 380 CURVE SMOOTH",
"22 346 OFFCURVE",
"50 318 OFFCURVE",
"84 318 CURVE SMOOTH",
"117 318 OFFCURVE",
"146 346 OFFCURVE",
"146 380 CURVE SMOOTH"
);
}
);
width = 201;
}
);
unicode = 00A1;
},
{
glyphname = numbersign;
lastChange = "2016-09-19 16:28:09 +0000";
layers = (
{
layerId = UUID0;
paths = (
{
closed = 1;
nodes = (
"57 339 LINE",
"205 339 LINE",
"160 177 LINE",
"23 177 LINE",
"23 123 LINE",
"145 123 LINE",
"93 -67 LINE",
"157 -67 LINE",
"209 123 LINE",
"343 123 LINE",
"291 -67 LINE",
"355 -67 LINE",
"407 123 LINE",
"571 123 LINE",
"571 177 LINE",
"422 177 LINE",
"467 339 LINE",
"605 339 LINE",
"605 393 LINE",
"482 393 LINE",
"536 589 LINE",
"473 589 LINE",
"418 393 LINE",
"284 393 LINE",
"338 589 LINE",
"275 589 LINE",
"220 393 LINE",
"57 393 LINE"
);
},
{
closed = 1;
nodes = (
"269 339 LINE",
"403 339 LINE",
"358 177 LINE",
"224 177 LINE"
);
}
);
width = 642;
}
);
unicode = 0023;
},
{
glyphname = period;
lastChange = "2016-09-19 16:28:09 +0000";
layers = (
{
layerId = UUID0;
paths = (
{
closed = 1;
nodes = (
"187 84 OFFCURVE",
"154 116 OFFCURVE",
"116 116 CURVE SMOOTH",
"77 116 OFFCURVE",
"45 84 OFFCURVE",
"45 45 CURVE SMOOTH",
"45 6 OFFCURVE",
"77 -26 OFFCURVE",
"116 -26 CURVE SMOOTH",
"154 -26 OFFCURVE",
"187 6 OFFCURVE",
"187 45 CURVE SMOOTH"
);
}
);
width = 242;
}
);
unicode = 002E;
},
{
glyphname = question;
lastChange = "2016-09-19 16:28:09 +0000";
layers = (
{
layerId = UUID0;
paths = (
{
closed = 1;
nodes = (
"121 437 LINE",
"134 521 LINE",
"155 530 OFFCURVE",
"187 538 OFFCURVE",
"235 538 CURVE SMOOTH",
"306 538 OFFCURVE",
"335 496 OFFCURVE",
"335 469 CURVE SMOOTH",
"335 415 OFFCURVE",
"290 398 OFFCURVE",
"246 373 CURVE SMOOTH",
"219 358 OFFCURVE",
"152 329 OFFCURVE",
"152 265 CURVE SMOOTH",
"152 187 OFFCURVE",
"231 157 OFFCURVE",
"233 155 CURVE",
"272 208 LINE",
"256 217 OFFCURVE",
"228 232 OFFCURVE",
"228 258 CURVE SMOOTH",
"228 286 OFFCURVE",
"266 298 OFFCURVE",
"306 320 CURVE SMOOTH",
"382 361 OFFCURVE",
"420 403 OFFCURVE",
"420 468 CURVE SMOOTH",
"420 520 OFFCURVE",
"370 605 OFFCURVE",
"236 605 CURVE SMOOTH",
"120 605 OFFCURVE",
"72 567 OFFCURVE",
"72 567 CURVE",
"55 444 LINE"
);
},
{
closed = 1;
nodes = (
"300 84 OFFCURVE",
"267 116 OFFCURVE",
"229 116 CURVE SMOOTH",
"190 116 OFFCURVE",
"158 84 OFFCURVE",
"158 45 CURVE SMOOTH",
"158 6 OFFCURVE",
"190 -26 OFFCURVE",
"229 -26 CURVE SMOOTH",
"267 -26 OFFCURVE",
"300 6 OFFCURVE",
"300 45 CURVE SMOOTH"
);
}
);
width = 475;
}
);
unicode = 003F;
},
{
glyphname = questiondown;
lastChange = "2016-09-19 16:28:09 +0000";
layers = (
{
layerId = UUID0;
paths = (
{
closed = 1;
nodes = (
"88 218 OFFCURVE",
"50 176 OFFCURVE",
"50 111 CURVE SMOOTH",
"50 59 OFFCURVE",
"100 -26 OFFCURVE",
"234 -26 CURVE SMOOTH",
"355 -26 OFFCURVE",
"395 12 OFFCURVE",
"398 12 CURVE",
"415 135 LINE",
"349 142 LINE",
"335 57 LINE",
"315 49 OFFCURVE",
"282 41 OFFCURVE",
"235 41 CURVE SMOOTH",
"164 41 OFFCURVE",
"135 83 OFFCURVE",
"135 110 CURVE SMOOTH",
"135 164 OFFCURVE",
"180 181 OFFCURVE",
"224 206 CURVE SMOOTH",
"251 221 OFFCURVE",
"318 250 OFFCURVE",
"318 314 CURVE SMOOTH",
"318 392 OFFCURVE",
"239 422 OFFCURVE",
"237 424 CURVE",
"198 371 LINE",
"214 362 OFFCURVE",
"242 347 OFFCURVE",
"242 321 CURVE SMOOTH",
"242 293 OFFCURVE",
"204 281 OFFCURVE",
"164 259 CURVE SMOOTH"
);
},
{
closed = 1;
nodes = (
"170 495 OFFCURVE",
"203 463 OFFCURVE",
"241 463 CURVE SMOOTH",
"280 463 OFFCURVE",
"312 495 OFFCURVE",
"312 534 CURVE SMOOTH",
"312 573 OFFCURVE",
"280 605 OFFCURVE",
"241 605 CURVE SMOOTH",
"203 605 OFFCURVE",
"170 573 OFFCURVE",
"170 534 CURVE SMOOTH"
);
}
);
width = 468;
}
);
unicode = 00BF;
},
{
glyphname = quotedbl;
lastChange = "2016-09-19 16:28:09 +0000";
layers = (
{
layerId = UUID0;
paths = (
{
closed = 1;
nodes = (
"61 488 LINE",
"80 404 LINE",
"122 404 LINE",
"141 488 LINE",
"141 590 LINE",
"61 590 LINE"
);
},
{
closed = 1;
nodes = (
"203 488 LINE",
"222 404 LINE",
"264 404 LINE",
"283 488 LINE",
"283 590 LINE",
"203 590 LINE"
);
}
);
width = 341;
}
);
unicode = 0022;
},
{
glyphname = quotesingle;
lastChange = "2016-09-19 16:28:09 +0000";
layers = (
{
layerId = UUID0;
paths = (
{
closed = 1;
nodes = (
"40 488 LINE",
"59 404 LINE",
"101 404 LINE",
"120 488 LINE",
"120 590 LINE",
"40 590 LINE"
);
}
);
width = 158;
}
);
unicode = 0027;
},
{
glyphname = semicolon;
lastChange = "2016-09-19 16:28:09 +0000";
layers = (
{
layerId = UUID0;
paths = (
{
closed = 1;
nodes = (
"192 408 OFFCURVE",
"159 440 OFFCURVE",
"121 440 CURVE SMOOTH",
"82 440 OFFCURVE",
"50 408 OFFCURVE",
"50 369 CURVE SMOOTH",
"50 330 OFFCURVE",
"82 298 OFFCURVE",
"121 298 CURVE SMOOTH",
"159 298 OFFCURVE",
"192 330 OFFCURVE",
"192 369 CURVE SMOOTH"
);
},
{
closed = 1;
nodes = (
"191 83 OFFCURVE",
"159 114 OFFCURVE",
"123 114 CURVE SMOOTH",
"86 114 OFFCURVE",
"58 89 OFFCURVE",
"58 52 CURVE SMOOTH",
"58 34 OFFCURVE",
"66 18 OFFCURVE",
"79 7 CURVE SMOOTH",
"89 -1 OFFCURVE",
"102 -5 OFFCURVE",
"114 -6 CURVE",
"98 -42 OFFCURVE",
"68 -86 OFFCURVE",
"68 -86 CURVE",
"103 -116 LINE",
"103 -116 OFFCURVE",
"192 -31 OFFCURVE",
"191 46 CURVE SMOOTH"
);
}
);
width = 252;
}
);
unicode = 003B;
},
{
glyphname = slash;
lastChange = "2016-09-19 16:28:09 +0000";
layers = (
{
layerId = UUID0;
paths = (
{
closed = 1;
nodes = (
"372 589 LINE",
"299 589 LINE",
"-29 -131 LINE",
"45 -131 LINE"
);
}
);
width = 405;
}
);
unicode = 002F;
},
{
glyphname = underscore;
lastChange = "2016-09-19 16:28:09 +0000";
layers = (
{
layerId = UUID0;
paths = (
{
closed = 1;
nodes = (
"0 -88 LINE",
"459 -88 LINE",
"459 -19 LINE",
"0 -19 LINE"
);
}
);
width = 459;
}
);
unicode = 005F;
},
{
glyphname = braceleft;
lastChange = "2016-09-19 16:28:09 +0000";
layers = (
{
layerId = UUID0;
paths = (
{
closed = 1;
nodes = (
"308 -70 LINE",
"232 -61 OFFCURVE",
"219 -11 OFFCURVE",
"219 53 CURVE SMOOTH",
"219 150 LINE SMOOTH",
"219 197 OFFCURVE",
"199 223 OFFCURVE",
"168 236 CURVE",
"199 250 OFFCURVE",
"219 275 OFFCURVE",
"219 323 CURVE SMOOTH",
"219 430 LINE SMOOTH",
"219 494 OFFCURVE",
"232 544 OFFCURVE",
"308 553 CURVE",
"299 614 LINE",
"192 606 OFFCURVE",
"148 549 OFFCURVE",
"148 446 CURVE SMOOTH",
"148 343 LINE SMOOTH",
"148 318 OFFCURVE",
"151 264 OFFCURVE",
"121 264 CURVE SMOOTH",
"49 264 LINE",
"49 209 LINE",
"121 209 LINE SMOOTH",
"151 209 OFFCURVE",
"148 155 OFFCURVE",
"148 130 CURVE SMOOTH",
"148 37 LINE SMOOTH",
"148 -66 OFFCURVE",
"192 -123 OFFCURVE",
"299 -131 CURVE"
);
}
);
width = 390;
}
);
unicode = 007B;
},
{
glyphname = braceright;
lastChange = "2016-09-19 16:28:09 +0000";
layers = (
{
layerId = UUID0;
paths = (
{
closed = 1;
nodes = (
"58 -131 LINE",
"165 -123 OFFCURVE",
"209 -66 OFFCURVE",
"209 37 CURVE SMOOTH",
"209 130 LINE SMOOTH",
"209 155 OFFCURVE",
"206 209 OFFCURVE",
"236 209 CURVE SMOOTH",
"308 209 LINE",
"308 264 LINE",
"236 264 LINE SMOOTH",
"206 264 OFFCURVE",
"209 318 OFFCURVE",
"209 343 CURVE SMOOTH",
"209 446 LINE SMOOTH",
"209 549 OFFCURVE",
"165 606 OFFCURVE",
"58 614 CURVE",
"49 553 LINE",
"125 544 OFFCURVE",
"138 494 OFFCURVE",
"138 430 CURVE SMOOTH",
"138 323 LINE SMOOTH",
"138 275 OFFCURVE",
"158 250 OFFCURVE",
"188 236 CURVE",
"158 223 OFFCURVE",
"138 197 OFFCURVE",
"138 150 CURVE SMOOTH",
"138 53 LINE SMOOTH",
"138 -11 OFFCURVE",
"125 -61 OFFCURVE",
"49 -70 CURVE"
);
}
);
width = 351;
}
);
unicode = 007D;
},
{
glyphname = bracketleft;
lastChange = "2016-09-19 16:28:09 +0000";
layers = (
{
layerId = UUID0;
paths = (
{
closed = 1;
nodes = (
"114 553 LINE",
"217 553 LINE",
"217 615 LINE",
"37 615 LINE",
"37 -124 LINE",
"217 -124 LINE",
"217 -62 LINE",
"114 -62 LINE"
);
}
);
width = 247;
}
);
unicode = 005B;
},
{
glyphname = bracketright;
lastChange = "2016-09-19 16:28:09 +0000";
layers = (
{
layerId = UUID0;
paths = (
{
closed = 1;
nodes = (
"129 -62 LINE",
"26 -62 LINE",
"26 -124 LINE",
"206 -124 LINE",
"206 615 LINE",
"26 615 LINE",
"26 553 LINE",
"129 553 LINE"
);
}
);
width = 252;
}
);
unicode = 005D;
},
{
glyphname = parenleft;
lastChange = "2016-09-19 16:28:09 +0000";
layers = (
{
layerId = UUID0;
paths = (
{
closed = 1;
nodes = (
"120 339 OFFCURVE",
"137 493 OFFCURVE",
"251 605 CURVE",
"213 654 LINE",
"126 598 OFFCURVE",
"40 441 OFFCURVE",
"40 265 CURVE SMOOTH",
"40 90 OFFCURVE",
"126 -67 OFFCURVE",
"213 -123 CURVE",
"251 -74 LINE",
"137 38 OFFCURVE",
"120 192 OFFCURVE",
"120 265 CURVE SMOOTH"
);
}
);
width = 286;
}
);
unicode = 0028;
},
{
glyphname = parenright;
lastChange = "2016-09-19 16:28:09 +0000";
layers = (
{
layerId = UUID0;
paths = (
{
closed = 1;
nodes = (
"169 192 OFFCURVE",
"152 38 OFFCURVE",
"38 -74 CURVE",
"76 -123 LINE",
"163 -67 OFFCURVE",
"249 90 OFFCURVE",
"249 265 CURVE SMOOTH",
"249 441 OFFCURVE",
"163 598 OFFCURVE",
"76 654 CURVE",
"38 605 LINE",
"152 493 OFFCURVE",
"169 339 OFFCURVE",
"169 265 CURVE SMOOTH"
);
}
);
width = 297;
}
);
unicode = 0029;
},
{
glyphname = emdash;
lastChange = "2016-09-19 16:28:09 +0000";
layers = (
{
layerId = UUID0;
paths = (
{
closed = 1;
nodes = (
"75 196 LINE",
"755 196 LINE",
"755 265 LINE",
"75 265 LINE"
);
}
);
width = 837;
}
);
unicode = 2014;
},
{
glyphname = endash;
lastChange = "2016-09-19 16:28:09 +0000";
layers = (
{
layerId = UUID0;
paths = (
{
closed = 1;
nodes = (
"33 197 LINE",
"492 197 LINE",
"492 266 LINE",
"33 266 LINE"
);
}
);
width = 525;
}
);
unicode = 2013;
},
{
glyphname = hyphen;
lastChange = "2016-09-19 16:28:09 +0000";
layers = (
{
layerId = UUID0;
paths = (
{
closed = 1;
nodes = (
"28 185 LINE",
"334 185 LINE",
"334 254 LINE",
"28 254 LINE"
);
}
);
width = 359;
}
);
unicode = 002D;
},
{
glyphname = guillemetleft;
lastChange = "2016-09-19 16:28:09 +0000";
layers = (
{
layerId = UUID0;
paths = (
{
closed = 1;
nodes = (
"129 217 LINE",
"257 397 LINE",
"207 432 LINE",
"48 217 LINE",
"207 2 LINE",
"257 37 LINE"
);
},
{
closed = 1;
nodes = (
"280 217 LINE",
"358 333 LINE",
"303 365 LINE",
"202 217 LINE",
"303 69 LINE",
"358 101 LINE"
);
}
);
width = 403;
}
);
unicode = 00AB;
},
{
glyphname = guillemetright;
lastChange = "2016-09-19 16:28:09 +0000";
layers = (
{
layerId = UUID0;
paths = (
{
closed = 1;
nodes = (
"146 37 LINE",
"196 2 LINE",
"355 217 LINE",
"196 432 LINE",
"146 397 LINE",
"274 217 LINE"
);
},
{
closed = 1;
nodes = (
"45 101 LINE",
"100 69 LINE",
"201 217 LINE",
"100 365 LINE",
"45 333 LINE",
"124 217 LINE"
);
}
);
width = 403;
}
);
unicode = 00BB;
},
{
glyphname = quotedblbase;
lastChange = "2016-09-19 16:28:09 +0000";
layers = (
{
layerId = UUID0;
paths = (
{
closed = 1;
nodes = (
"372 91 OFFCURVE",
"340 122 OFFCURVE",
"304 122 CURVE SMOOTH",
"267 122 OFFCURVE",
"239 97 OFFCURVE",
"239 60 CURVE SMOOTH",
"239 42 OFFCURVE",
"247 26 OFFCURVE",
"260 15 CURVE SMOOTH",
"270 7 OFFCURVE",
"283 3 OFFCURVE",
"295 2 CURVE",
"279 -34 OFFCURVE",
"249 -78 OFFCURVE",
"249 -78 CURVE",
"284 -108 LINE",
"284 -108 OFFCURVE",
"373 -23 OFFCURVE",
"372 54 CURVE SMOOTH"
);
},
{
closed = 1;
nodes = (
"187 91 OFFCURVE",
"155 122 OFFCURVE",
"119 122 CURVE SMOOTH",
"82 122 OFFCURVE",
"54 97 OFFCURVE",
"54 60 CURVE SMOOTH",
"54 42 OFFCURVE",
"62 26 OFFCURVE",
"75 15 CURVE SMOOTH",
"85 7 OFFCURVE",
"98 3 OFFCURVE",
"110 2 CURVE",
"94 -34 OFFCURVE",
"64 -78 OFFCURVE",
"64 -78 CURVE",
"99 -108 LINE",
"99 -108 OFFCURVE",
"188 -23 OFFCURVE",
"187 54 CURVE SMOOTH"
);
}
);
width = 426;
}
);
unicode = 201E;
},
{
glyphname = quotedblleft;
lastChange = "2016-09-19 16:28:09 +0000";
layers = (
{
layerId = UUID0;
paths = (
{
closed = 1;
nodes = (
"34 514 OFFCURVE",
"66 483 OFFCURVE",
"102 483 CURVE SMOOTH",
"139 483 OFFCURVE",
"167 508 OFFCURVE",
"167 545 CURVE SMOOTH",
"167 563 OFFCURVE",
"159 579 OFFCURVE",
"146 590 CURVE SMOOTH",
"136 598 OFFCURVE",
"123 602 OFFCURVE",
"111 603 CURVE",
"127 639 OFFCURVE",
"157 683 OFFCURVE",
"157 683 CURVE",
"122 713 LINE",
"122 713 OFFCURVE",
"33 628 OFFCURVE",
"34 551 CURVE SMOOTH"
);
},
{
closed = 1;
nodes = (
"219 514 OFFCURVE",
"251 483 OFFCURVE",
"287 483 CURVE SMOOTH",
"324 483 OFFCURVE",
"352 508 OFFCURVE",
"352 545 CURVE SMOOTH",
"352 563 OFFCURVE",
"344 579 OFFCURVE",
"331 590 CURVE SMOOTH",
"321 598 OFFCURVE",
"308 602 OFFCURVE",
"296 603 CURVE",
"312 639 OFFCURVE",
"342 683 OFFCURVE",
"342 683 CURVE",
"307 713 LINE",
"307 713 OFFCURVE",
"218 628 OFFCURVE",
"219 551 CURVE SMOOTH"
);
}
);
width = 382;
}
);
unicode = 201C;
},
{
glyphname = quotedblright;
lastChange = "2016-09-19 16:28:09 +0000";
layers = (
{
layerId = UUID0;
paths = (
{
closed = 1;
nodes = (
"348 586 OFFCURVE",
"316 617 OFFCURVE",
"280 617 CURVE SMOOTH",
"243 617 OFFCURVE",
"215 592 OFFCURVE",
"215 555 CURVE SMOOTH",
"215 537 OFFCURVE",
"223 521 OFFCURVE",
"236 510 CURVE SMOOTH",
"246 502 OFFCURVE",
"259 498 OFFCURVE",
"271 497 CURVE",
"255 461 OFFCURVE",
"225 417 OFFCURVE",
"225 417 CURVE",
"260 387 LINE",
"260 387 OFFCURVE",
"349 472 OFFCURVE",
"348 549 CURVE SMOOTH"
);
},
{
closed = 1;
nodes = (
"163 586 OFFCURVE",
"131 617 OFFCURVE",
"95 617 CURVE SMOOTH",
"58 617 OFFCURVE",
"30 592 OFFCURVE",
"30 555 CURVE SMOOTH",
"30 537 OFFCURVE",
"38 521 OFFCURVE",
"51 510 CURVE SMOOTH",
"61 502 OFFCURVE",
"74 498 OFFCURVE",
"86 497 CURVE",
"70 461 OFFCURVE",
"40 417 OFFCURVE",
"40 417 CURVE",
"75 387 LINE",
"75 387 OFFCURVE",
"164 472 OFFCURVE",
"163 549 CURVE SMOOTH"
);
}
);
width = 382;
}
);
unicode = 201D;
},
{
glyphname = quoteleft;
lastChange = "2016-09-19 16:28:09 +0000";
layers = (
{
layerId = UUID0;
paths = (
{
closed = 1;
nodes = (
"47 463 OFFCURVE",
"79 432 OFFCURVE",
"115 432 CURVE SMOOTH",
"152 432 OFFCURVE",
"180 457 OFFCURVE",
"180 494 CURVE SMOOTH",
"180 512 OFFCURVE",
"172 528 OFFCURVE",
"159 539 CURVE SMOOTH",
"149 547 OFFCURVE",
"136 551 OFFCURVE",
"124 552 CURVE",
"140 588 OFFCURVE",
"170 632 OFFCURVE",
"170 632 CURVE",
"135 662 LINE",
"135 662 OFFCURVE",
"46 577 OFFCURVE",
"47 500 CURVE SMOOTH"
);
}
);
width = 238;
}
);
unicode = 2018;
},
{
glyphname = quoteright;
lastChange = "2016-09-19 16:28:09 +0000";
layers = (
{
layerId = UUID0;
paths = (
{
closed = 1;
nodes = (
"181 618 OFFCURVE",
"149 649 OFFCURVE",
"113 649 CURVE SMOOTH",
"76 649 OFFCURVE",
"48 624 OFFCURVE",
"48 587 CURVE SMOOTH",
"48 569 OFFCURVE",
"56 553 OFFCURVE",
"69 542 CURVE SMOOTH",
"79 534 OFFCURVE",
"92 530 OFFCURVE",
"104 529 CURVE",
"88 493 OFFCURVE",
"58 449 OFFCURVE",
"58 449 CURVE",
"93 419 LINE",
"93 419 OFFCURVE",
"182 504 OFFCURVE",
"181 581 CURVE SMOOTH"
);
}
);
width = 230;
}
);
unicode = 2019;
},
{
glyphname = quotesinglbase.002;
lastChange = "2016-09-19 16:28:09 +0000";
layers = (
{
layerId = UUID0;
paths = (
{
closed = 1;
nodes = (
"187 87 OFFCURVE",
"155 118 OFFCURVE",
"119 118 CURVE SMOOTH",
"82 118 OFFCURVE",
"54 93 OFFCURVE",
"54 56 CURVE SMOOTH",
"54 38 OFFCURVE",
"62 22 OFFCURVE",
"75 11 CURVE SMOOTH",
"85 3 OFFCURVE",
"98 -1 OFFCURVE",
"110 -2 CURVE",
"94 -38 OFFCURVE",
"64 -82 OFFCURVE",
"64 -82 CURVE",
"99 -112 LINE",
"99 -112 OFFCURVE",
"188 -27 OFFCURVE",
"187 50 CURVE SMOOTH"
);
}
);
width = 238;
}
);
},
{
glyphname = .notdef;
lastChange = "2016-09-19 16:28:09 +0000";
layers = (
{
layerId = UUID0;
paths = (
{
closed = 1;
nodes = (
"39 173 OFFCURVE",
"140 72 OFFCURVE",
"266 72 CURVE SMOOTH",
"392 72 OFFCURVE",
"494 173 OFFCURVE",
"494 299 CURVE SMOOTH",
"494 425 OFFCURVE",
"392 527 OFFCURVE",
"266 527 CURVE SMOOTH",
"140 527 OFFCURVE",
"39 425 OFFCURVE",
"39 299 CURVE SMOOTH"
);
},
{
closed = 1;
nodes = (
"324 299 LINE",
"418 235 LINE",
"364 158 LINE",
"267 255 LINE",
"169 156 LINE",
"114 234 LINE",
"206 296 LINE",
"112 360 LINE",
"168 437 LINE",
"265 342 LINE",
"360 437 LINE",
"415 361 LINE"
);
}
);
width = 527;
}
);
},
{
glyphname = cent;
lastChange = "2016-09-19 16:28:09 +0000";
layers = (
{
layerId = UUID0;
paths = (
{
closed = 1;
nodes = (
"432 390 LINE",
"411 498 LINE",
"411 498 OFFCURVE",
"376 516 OFFCURVE",
"305 521 CURVE",
"305 653 LINE",
"236 653 LINE",
"236 519 LINE",
"128 504 OFFCURVE",
"56 421 OFFCURVE",
"56 293 CURVE SMOOTH",
"56 164 OFFCURVE",
"128 82 OFFCURVE",
"236 66 CURVE",
"236 -75 LINE",
"305 -75 LINE",
"305 66 LINE",
"383 76 OFFCURVE",
"443 121 OFFCURVE",
"443 122 CURVE",
"410 171 LINE",
"410 171 OFFCURVE",
"364 139 OFFCURVE",
"305 130 CURVE",
"305 457 LINE",
"333 454 OFFCURVE",
"349 448 OFFCURVE",
"355 445 CURVE",
"368 376 LINE"
);
},
{
closed = 1;
nodes = (
"136 382 OFFCURVE",
"169 439 OFFCURVE",
"236 454 CURVE",
"236 132 LINE",
"169 147 OFFCURVE",
"136 204 OFFCURVE",
"136 293 CURVE SMOOTH"
);
}
);
width = 500;
}
);
unicode = 00A2;
},
{
glyphname = currency;
lastChange = "2016-09-19 16:28:09 +0000";
layers = (
{
layerId = UUID0;
paths = (
{
closed = 1;
nodes = (
"77 196 OFFCURVE",
"89 163 OFFCURVE",
"109 136 CURVE",
"42 92 LINE",
"78 39 LINE",
"158 93 LINE",
"184 78 OFFCURVE",
"215 70 OFFCURVE",
"248 70 CURVE SMOOTH",
"281 70 OFFCURVE",
"311 78 OFFCURVE",
"337 92 CURVE",
"416 40 LINE",
"452 93 LINE",
"388 135 LINE",
"409 162 OFFCURVE",
"421 196 OFFCURVE",
"421 234 CURVE SMOOTH",
"421 273 OFFCURVE",
"408 308 OFFCURVE",
"385 336 CURVE",
"451 381 LINE",
"416 433 LINE",
"335 378 LINE",
"309 392 OFFCURVE",
"280 400 OFFCURVE",
"248 400 CURVE SMOOTH",
"216 400 OFFCURVE",
"185 392 OFFCURVE",
"160 377 CURVE",
"78 433 LINE",
"42 380 LINE",
"110 334 LINE",
"89 306 OFFCURVE",
"77 272 OFFCURVE",
"77 234 CURVE SMOOTH"
);
},
{
closed = 1;
nodes = (
"142 294 OFFCURVE",
"189 343 OFFCURVE",
"248 343 CURVE SMOOTH",
"309 343 OFFCURVE",
"355 294 OFFCURVE",
"355 234 CURVE SMOOTH",
"355 175 OFFCURVE",
"309 127 OFFCURVE",
"248 127 CURVE SMOOTH",
"189 127 OFFCURVE",
"142 175 OFFCURVE",
"142 234 CURVE SMOOTH"
);
}
);
width = 532;
}
);
unicode = 00A4;
},
{
glyphname = dollar;
lastChange = "2016-09-19 16:28:09 +0000";
layers = (
{
layerId = UUID0;
paths = (
{
closed = 1;
nodes = (
"201 652 LINE",
"201 568 LINE",
"90 557 OFFCURVE",
"55 494 OFFCURVE",
"55 416 CURVE SMOOTH",
"55 345 OFFCURVE",
"98 276 OFFCURVE",
"201 263 CURVE",
"201 65 LINE",
"171 69 OFFCURVE",
"139 78 OFFCURVE",
"114 87 CURVE",
"103 157 LINE",
"41 150 LINE",
"58 46 LINE",
"59 46 OFFCURVE",
"120 15 OFFCURVE",
"201 7 CURVE",
"201 -77 LINE",
"265 -77 LINE",
"265 6 LINE",
"367 12 OFFCURVE",
"427 61 OFFCURVE",
"427 176 CURVE SMOOTH",
"427 250 OFFCURVE",
"390 310 OFFCURVE",
"289 325 CURVE SMOOTH",
"266 328 LINE",
"266 509 LINE",
"300 506 OFFCURVE",
"326 498 OFFCURVE",
"343 491 CURVE",
"355 417 LINE",
"415 423 LINE",
"400 535 LINE",
"399 535 LINE",
"394 536 OFFCURVE",
"354 563 OFFCURVE",
"266 569 CURVE",
"267 652 LINE"
);
},
{
closed = 1;
nodes = (
"357 105 OFFCURVE",
"321 74 OFFCURVE",
"265 65 CURVE",
"265 254 LINE",
"271 254 LINE",
"340 245 OFFCURVE",
"357 205 OFFCURVE",
"357 166 CURVE SMOOTH"
);
},
{
closed = 1;
nodes = (
"118 472 OFFCURVE",
"142 501 OFFCURVE",
"201 509 CURVE",
"201 338 LINE",
"194 339 LINE SMOOTH",
"147 346 OFFCURVE",
"118 383 OFFCURVE",
"118 427 CURVE SMOOTH"
);
}
);
width = 471;
}
);
unicode = 0024;
},
{
glyphname = euro;
lastChange = "2016-09-19 16:28:09 +0000";
layers = (
{
layerId = UUID0;
paths = (
{
closed = 1;
nodes = (
"70 315 LINE",
"181 315 LINE",
"181 295 LINE SMOOTH",
"181 281 OFFCURVE",
"182 268 OFFCURVE",
"183 255 CURVE",
"103 255 LINE",
"70 186 LINE",
"195 186 LINE",
"232 59 OFFCURVE",
"334 -8 OFFCURVE",
"455 -8 CURVE SMOOTH",
"530 -8 OFFCURVE",
"618 21 OFFCURVE",
"669 71 CURVE",
"619 116 LINE",
"581 77 OFFCURVE",
"511 60 OFFCURVE",
"454 60 CURVE SMOOTH",
"374 60 OFFCURVE",
"310 101 OFFCURVE",
"282 186 CURVE",
"456 186 LINE",
"480 255 LINE",
"268 255 LINE",
"267 267 OFFCURVE",
"266 281 OFFCURVE",
"266 295 CURVE SMOOTH",
"266 315 LINE",
"501 315 LINE",
"525 384 LINE",
"276 384 LINE",
"300 481 OFFCURVE",
"368 530 OFFCURVE",
"454 530 CURVE SMOOTH",
"515 530 OFFCURVE",
"568 513 OFFCURVE",
"601 489 CURVE",
"572 405 LINE",
"635 385 LINE",
"681 515 LINE",
"681 515 OFFCURVE",
"614 598 OFFCURVE",
"455 598 CURVE SMOOTH",
"328 598 OFFCURVE",
"222 523 OFFCURVE",
"190 384 CURVE",
"103 384 LINE"
);
}
);
width = 721;
}
);
unicode = 20AC;
},
{
glyphname = sterling;
lastChange = "2016-09-19 16:28:09 +0000";
layers = (
{
layerId = UUID0;
paths = (
{
closed = 1;
nodes = (
"56 256 LINE",
"138 256 LINE",
"140 245 LINE SMOOTH",
"141 236 OFFCURVE",
"142 227 OFFCURVE",
"142 219 CURVE SMOOTH",
"142 138 OFFCURVE",
"87 81 OFFCURVE",
"57 55 CURVE SMOOTH",
"46 45 OFFCURVE",
"36 38 OFFCURVE",
"36 38 CURVE",
"76 -15 LINE",
"81 -11 OFFCURVE",
"127 25 OFFCURVE",
"171 25 CURVE SMOOTH",
"200 25 OFFCURVE",
"225 13 OFFCURVE",
"245 3 CURVE SMOOTH",
"255 -2 OFFCURVE",
"290 -17 OFFCURVE",
"334 -17 CURVE SMOOTH",
"362 -17 OFFCURVE",
"397 -6 OFFCURVE",
"423 6 CURVE SMOOTH",
"442 15 OFFCURVE",
"459 28 OFFCURVE",
"459 28 CURVE",
"422 86 LINE",
"422 86 OFFCURVE",
"386 55 OFFCURVE",
"341 55 CURVE SMOOTH",
"294 55 OFFCURVE",
"257 86 OFFCURVE",
"214 86 CURVE SMOOTH",
"201 86 OFFCURVE",
"188 84 OFFCURVE",
"176 81 CURVE",
"200 108 OFFCURVE",
"219 146 OFFCURVE",
"219 203 CURVE SMOOTH",
"219 211 OFFCURVE",
"219 219 OFFCURVE",
"218 227 CURVE SMOOTH",
"215 256 LINE",
"352 256 LINE",
"352 325 LINE",
"211 325 LINE",
"208 378 OFFCURVE",
"206 428 OFFCURVE",
"206 447 CURVE SMOOTH",
"206 505 OFFCURVE",
"240 537 OFFCURVE",
"289 537 CURVE SMOOTH",
"311 537 OFFCURVE",
"325 533 OFFCURVE",
"337 528 CURVE",
"352 436 LINE",
"419 445 LINE",
"401 566 LINE",
"371 588 OFFCURVE",
"346 604 OFFCURVE",
"288 604 CURVE SMOOTH",
"193 604 OFFCURVE",
"126 539 OFFCURVE",
"126 445 CURVE SMOOTH",
"126 411 OFFCURVE",
"127 370 OFFCURVE",
"130 325 CURVE",
"56 325 LINE"
);
}
);
width = 489;
}
);
unicode = 00A3;
},
{
glyphname = yen;
lastChange = "2016-09-19 16:28:09 +0000";
layers = (
{
layerId = UUID0;
paths = (
{
closed = 1;
nodes = (
"11 520 LINE",
"95 520 LINE",
"278 294 LINE",
"173 301 LINE",
"128 301 LINE",
"128 243 LINE",
"292 243 LINE",
"292 190 LINE",
"128 190 LINE",
"128 132 LINE",
"292 132 LINE",
"292 69 LINE",
"198 69 LINE",
"198 0 LINE",
"465 0 LINE",
"465 69 LINE",
"371 69 LINE",
"372 132 LINE",
"535 132 LINE",
"535 190 LINE",
"372 190 LINE",
"372 243 LINE",
"535 243 LINE",
"535 301 LINE",
"505 301 LINE",
"382 290 LINE",
"558 520 LINE",
"654 520 LINE",
"654 589 LINE",
"417 589 LINE",
"417 520 LINE",
"472 520 LINE",
"338 344 LINE",
"197 520 LINE",
"250 520 LINE",
"250 589 LINE",
"11 589 LINE"
);
}
);
width = 665;
}
);
unicode = 00A5;
},
{
glyphname = plus;
lastChange = "2016-09-19 16:28:09 +0000";
layers = (
{
layerId = UUID0;
paths = (
{
closed = 1;
nodes = (
"48 269 LINE",
"196 269 LINE",
"196 117 LINE",
"271 117 LINE",
"271 269 LINE",
"420 269 LINE",
"420 338 LINE",
"271 338 LINE",
"271 489 LINE",
"196 489 LINE",
"196 338 LINE",
"48 338 LINE"
);
}
);
width = 473;
}
);
unicode = 002B;
},
{
glyphname = minus;
lastChange = "2016-09-19 16:28:09 +0000";
layers = (
{
layerId = UUID0;
paths = (
{
closed = 1;
nodes = (
"52 267 LINE",
"424 267 LINE",
"424 336 LINE",
"52 336 LINE"
);
}
);
width = 476;
}
);
unicode = 2212;
},
{
glyphname = multiply;
lastChange = "2016-09-19 16:28:09 +0000";
layers = (
{
layerId = UUID0;
paths = (
{
closed = 1;
nodes = (
"83 157 LINE",
"189 259 LINE",
"293 159 LINE",
"343 215 LINE",
"243 311 LINE",
"341 405 LINE",
"293 459 LINE",
"191 361 LINE",
"85 463 LINE",
"35 407 LINE",
"137 309 LINE",
"35 211 LINE"
);
}
);
width = 378;
}
);
unicode = 00D7;
},
{
glyphname = divide;
lastChange = "2016-09-19 16:28:09 +0000";
layers = (
{
layerId = UUID0;
paths = (
{
closed = 1;
nodes = (
"298 173 OFFCURVE",
"265 205 OFFCURVE",
"227 205 CURVE SMOOTH",
"188 205 OFFCURVE",
"156 173 OFFCURVE",
"156 134 CURVE SMOOTH",
"156 95 OFFCURVE",
"188 63 OFFCURVE",
"227 63 CURVE SMOOTH",
"265 63 OFFCURVE",
"298 95 OFFCURVE",
"298 134 CURVE SMOOTH"
);
},
{
closed = 1;
nodes = (
"298 497 OFFCURVE",
"265 529 OFFCURVE",
"227 529 CURVE SMOOTH",
"188 529 OFFCURVE",
"156 497 OFFCURVE",
"156 458 CURVE SMOOTH",
"156 419 OFFCURVE",
"188 387 OFFCURVE",
"227 387 CURVE SMOOTH",
"265 387 OFFCURVE",
"298 419 OFFCURVE",
"298 458 CURVE SMOOTH"
);
},
{
closed = 1;
nodes = (
"35 264 LINE",
"407 264 LINE",
"407 333 LINE",
"35 333 LINE"
);
}
);
width = 422;
}
);
unicode = 00F7;
},
{
glyphname = equal;
lastChange = "2016-09-19 16:28:09 +0000";
layers = (
{
layerId = UUID0;
paths = (
{
closed = 1;
nodes = (
"66 347 LINE",
"437 347 LINE",
"437 416 LINE",
"66 416 LINE"
);
},
{
closed = 1;
nodes = (
"66 189 LINE",
"437 189 LINE",
"437 258 LINE",
"66 258 LINE"
);
}
);
width = 497;
}
);
unicode = 003D;
},
{
glyphname = notequal;
lastChange = "2016-09-19 16:28:09 +0000";
layers = (
{
layerId = UUID0;
paths = (
{
closed = 1;
nodes = (
"41 347 LINE",
"196 347 LINE",
"161 258 LINE",
"41 258 LINE",
"41 189 LINE",
"135 189 LINE",
"62 0 LINE",
"136 0 LINE",
"209 189 LINE",
"412 189 LINE",
"412 258 LINE",
"235 258 LINE",
"270 347 LINE",
"412 347 LINE",
"412 416 LINE",
"296 416 LINE",
"363 589 LINE",
"290 589 LINE",
"223 416 LINE",
"41 416 LINE"
);
}
);
width = 455;
}
);
unicode = 2260;
},
{
glyphname = greater;
lastChange = "2016-09-19 16:28:09 +0000";
layers = (
{
layerId = UUID0;
paths = (
{
closed = 1;
nodes = (
"79 70 LINE",
"466 284 LINE",
"466 345 LINE",
"69 538 LINE",
"37 474 LINE",
"368 314 LINE",
"368 308 LINE",
"47 134 LINE"
);
}
);
width = 507;
}
);
unicode = 003E;
},
{
glyphname = less;
lastChange = "2016-09-19 16:28:09 +0000";
layers = (
{
layerId = UUID0;
paths = (
{
closed = 1;
nodes = (
"464 134 LINE",
"130 308 LINE",
"130 314 LINE",
"454 474 LINE",
"422 538 LINE",
"32 345 LINE",
"32 284 LINE",
"432 70 LINE"
);
}
);
width = 501;
}
);
unicode = 003C;
},
{
glyphname = greaterequal;
lastChange = "2016-09-19 16:28:09 +0000";
layers = (
{
layerId = UUID0;
paths = (
{
closed = 1;
nodes = (
"79 85 LINE",
"465 299 LINE",
"465 360 LINE",
"69 553 LINE",
"37 489 LINE",
"367 329 LINE",
"367 323 LINE",
"47 149 LINE"
);
},
{
closed = 1;
nodes = (
"111 -50 LINE",
"467 149 LINE",
"470 232 LINE",
"79 14 LINE"
);
}
);
width = 523;
}
);
unicode = 2265;
},
{
glyphname = lessequal;
lastChange = "2016-09-19 16:28:09 +0000";
layers = (
{
layerId = UUID0;
paths = (
{
closed = 1;
nodes = (
"490 148 LINE",
"156 322 LINE",
"156 328 LINE",
"480 488 LINE",
"448 552 LINE",
"58 359 LINE",
"58 298 LINE",
"458 84 LINE"
);
},
{
closed = 1;
nodes = (
"441 24 LINE",
"56 233 LINE",
"59 150 LINE",
"409 -40 LINE"
);
}
);
width = 547;
}
);
unicode = 2264;
},
{
glyphname = plusminus;
lastChange = "2016-09-19 16:28:09 +0000";
layers = (
{
layerId = UUID0;
paths = (
{
closed = 1;
nodes = (
"48 352 LINE",
"196 352 LINE",
"196 200 LINE",
"271 200 LINE",
"271 352 LINE",
"420 352 LINE",
"420 421 LINE",
"271 421 LINE",
"271 572 LINE",
"196 572 LINE",
"196 421 LINE",
"48 421 LINE"
);
},
{
closed = 1;
nodes = (
"48 68 LINE",
"420 68 LINE",
"420 137 LINE",
"48 137 LINE"
);
}
);
width = 461;
}
);
unicode = 00B1;
},
{
glyphname = approxequal;
lastChange = "2016-09-19 16:26:37 +0000";
layers = (
{
layerId = UUID0;
paths = (
{
closed = 1;
nodes = (
"273 246 OFFCURVE",
"325 234 OFFCURVE",
"373 251 CURVE SMOOTH",
"405 262 OFFCURVE",
"440 286 OFFCURVE",
"440 286 CURVE",
"406 340 LINE",
"407 340 OFFCURVE",
"382 323 OFFCURVE",
"348 312 CURVE SMOOTH",
"319 303 OFFCURVE",
"280 321 OFFCURVE",
"253 333 CURVE SMOOTH",
"224 346 OFFCURVE",
"173 360 OFFCURVE",
"125 343 CURVE SMOOTH",
"93 332 OFFCURVE",
"59 310 OFFCURVE",
"59 310 CURVE",
"93 256 LINE",
"92 256 OFFCURVE",
"116 271 OFFCURVE",
"150 282 CURVE SMOOTH",
"179 291 OFFCURVE",
"219 275 OFFCURVE",
"245 261 CURVE SMOOTH"
);
},
{
closed = 1;
nodes = (
"273 94 OFFCURVE",
"325 82 OFFCURVE",
"373 99 CURVE SMOOTH",
"405 110 OFFCURVE",
"440 134 OFFCURVE",
"440 134 CURVE",
"406 188 LINE",
"407 188 OFFCURVE",
"382 171 OFFCURVE",
"348 160 CURVE SMOOTH",
"319 151 OFFCURVE",
"280 169 OFFCURVE",
"253 181 CURVE SMOOTH",
"224 194 OFFCURVE",
"173 208 OFFCURVE",
"125 191 CURVE SMOOTH",
"93 180 OFFCURVE",
"59 158 OFFCURVE",
"59 158 CURVE",
"93 104 LINE",
"92 104 OFFCURVE",
"116 119 OFFCURVE",
"150 130 CURVE SMOOTH",
"179 139 OFFCURVE",
"219 123 OFFCURVE",
"245 109 CURVE SMOOTH"
);
}
);
width = 500;
}
);
unicode = 2248;
},
{
glyphname = asciitilde;
lastChange = "2016-09-19 16:26:37 +0000";
layers = (
{
layerId = UUID0;
paths = (
{
closed = 1;
nodes = (
"300 174 OFFCURVE",
"352 162 OFFCURVE",
"400 179 CURVE SMOOTH",
"432 190 OFFCURVE",
"467 214 OFFCURVE",
"467 214 CURVE",
"433 268 LINE",
"434 268 OFFCURVE",
"409 251 OFFCURVE",
"375 240 CURVE SMOOTH",
"346 231 OFFCURVE",
"307 249 OFFCURVE",
"280 261 CURVE SMOOTH",
"251 274 OFFCURVE",
"200 288 OFFCURVE",
"152 271 CURVE SMOOTH",
"120 260 OFFCURVE",
"86 238 OFFCURVE",
"86 238 CURVE",
"120 184 LINE",
"119 184 OFFCURVE",
"143 199 OFFCURVE",
"177 210 CURVE SMOOTH",
"206 219 OFFCURVE",
"246 203 OFFCURVE",
"272 189 CURVE SMOOTH"
);
}
);
width = 514;
}
);
unicode = 007E;
},
